SplineFontDB: 2.0
FontName: THKoHo-Italic
FullName: THKoHo-Italic
FamilyName: TH KoHo
Weight: Book
Copyright: Copyright (c) 2006 by Department of Intellectual Property (DIP), Ministry of Commerce and Software Industry Promotion Agency (Public Organization) (SIPA). All rights reserved.
Version: 1.1
ItalicAngle: -12
UnderlinePosition: -35
UnderlineWidth: 30
Ascent: 800
Descent: 200
XUID: [1021 375 425136265 16283230]
FSType: 0
OS2Version: 3
OS2_WeightWidthSlopeOnly: 0
OS2_UseTypoMetrics: 1
CreationTime: 1158666780
ModificationTime: 1204811002
PfmFamily: 17
TTFWeight: 400
TTFWidth: 5
LineGap: 30
VLineGap: 0
Panose: 2 0 5 6 0 0 0 2 0 4
OS2TypoAscent: 0
OS2TypoAOffset: 1
OS2TypoDescent: 0
OS2TypoDOffset: 1
OS2TypoLinegap: 0
OS2WinAscent: -43
OS2WinAOffset: 1
OS2WinDescent: -196
OS2WinDOffset: 1
HheadAscent: -43
HheadAOffset: 1
HheadDescent: 196
HheadDOffset: 1
OS2SubXSize: 700
OS2SubYSize: 650
OS2SubXOff: 0
OS2SubYOff: 140
OS2SupXSize: 700
OS2SupYSize: 650
OS2SupXOff: 0
OS2SupYOff: 477
OS2StrikeYSize: 30
OS2StrikeYPos: 250
OS2FamilyClass: 773
OS2Vendor: 'IPTH'
Lookup: 4 0 0 "'frac' Diagonal Fractions in Latin lookup 0"  {"'frac' Diagonal Fractions in Latin lookup 0 subtable"  } ['frac' ('latn' <'dflt' > ) ]
Lookup: 6 0 0 "'liga' Standard Ligatures in Latin lookup 1"  {"'liga' Standard Ligatures in Latin lookup 1 subtable"  } ['liga' ('latn' <'dflt' > ) ]
Lookup: 6 0 0 "'liga' Standard Ligatures in Latin lookup 2"  {"'liga' Standard Ligatures in Latin lookup 2 subtable"  } ['liga' ('latn' <'dflt' > ) ]
Lookup: 6 0 0 "'liga' Standard Ligatures in Latin lookup 3"  {"'liga' Standard Ligatures in Latin lookup 3 subtable"  } ['liga' ('latn' <'dflt' > ) ]
Lookup: 6 0 0 "'liga' Standard Ligatures in Latin lookup 4"  {"'liga' Standard Ligatures in Latin lookup 4 subtable"  } ['liga' ('latn' <'dflt' > ) ]
Lookup: 6 0 0 "'liga' Standard Ligatures in Latin lookup 5"  {"'liga' Standard Ligatures in Latin lookup 5 subtable"  } ['liga' ('latn' <'dflt' > ) ]

StartChar: .notdef
Encoding: 65536 -1 0
Width: 733
VWidth: 1467
Flags: W
HStem: 0 51<147 595> 968 52<342 790>
Fore
595 51 m 1
 790 968 l 1
 342 968 l 1
 147 51 l 1
 595 51 l 1
634 0 m 1
 86 0 l 1
 303 1020 l 1
 851 1020 l 1
 634 0 l 1
EndSplineSet
EndChar
StartChar: numbersign
Encoding: 35 35 4
Width: 528
VWidth: 1467
Flags: W
HStem: 0 21G<117 160.667 289 332.758> 219 30<88 191 239 364 411 506> 427 32<154 261 309 434 482 571>
VStem: 82 496<219 459 130.443 219>
Fore
447 459 m 1
 478 549 483 572 520 685 c 1
 557 685 l 1
 482 459 l 1
 578 459 l 1
 571 427 l 1
 469 427 l 1
 447 356 433 320 411 249 c 1
 512 249 l 1
 506 219 l 1
 400 219 l 1
 326 0 l 1
 289 0 l 1
 364 219 l 1
 227 219 l 1
 154 0 l 1
 117 0 l 1
 191 219 l 1
 82 219 l 1
 88 249 l 1
 203 249 l 1
 225 320 239 356 261 427 c 1
 147 427 l 1
 154 459 l 1
 274 459 l 1
 313 572 316 595 350 685 c 1
 384 685 l 1
 309 459 l 1
 447 459 l 1
376 249 m 1
 398 320 412 356 434 427 c 1
 296 427 l 1
 239 249 l 1
 376 249 l 1
EndSplineSet
EndChar
StartChar: dollar
Encoding: 36 36 5
Width: 669
VWidth: 1467
Flags: W
HStem: -26 35<219.25 311 364 445.896> 690 30<370.623 464 517 575.661>
VStem: 95 49<73.9338 132> 195 48<432.435 572.422> 587 45<130.933 269.202> 634 47<571 634.644>
Fore
443 371 m 1
 549 352 632 324 632 223 c 0
 632 55 481 -15 356 -26 c 1
 332 -139 l 1
 287 -139 l 1
 311 -26 l 1
 217 -24 95 11 95 132 c 1
 144 132 l 1
 151 32 261 11 319 9 c 1
 389 339 l 1
 303 353 195 372 195 483 c 0
 195 624 332 717 470 720 c 1
 493 828 l 1
 540 828 l 1
 517 719 l 1
 604 711 681 662 681 571 c 1
 634 571 l 1
 631 658 554 682 510 688 c 1
 443 371 l 1
464 690 m 1
 312 685 243 570 243 491 c 0
 243 427 295 394 398 379 c 1
 464 690 l 1
364 9 m 1
 489 22 587 109 587 210 c 0
 587 303 476 321 434 330 c 1
 364 9 l 1
EndSplineSet
EndChar
StartChar: percent
Encoding: 37 37 6
Width: 852
VWidth: 1467
Flags: W
HStem: 20 40<610.912 709.623> 305 40<233.955 329.929> 384 41<669.679 762.817> 669 41<297.058 388.89>
VStem: 153 50<378.045 549.661> 415 54<457.686 640.427> 529 56<86.2663 270.027> 791 54<170.099 353.71>
Fore
153 450 m 0
 153 581 252 710 353 710 c 0
 428 710 469 644 469 563 c 0
 469 439 376 305 266 305 c 0
 196 305 153 366 153 450 c 0
347 669 m 0
 282 669 203 553 203 454 c 0
 203 389 238 345 280 345 c 0
 334 345 415 438 415 547 c 0
 415 604 397 669 347 669 c 0
529 166 m 0
 529 285 620 425 730 425 c 0
 804 425 845 362 845 281 c 0
 845 166 766 20 648 20 c 0
 571 20 529 83 529 166 c 0
719 384 m 0
 663 384 585 288 585 171 c 0
 585 114 605 63 653 60 c 0
 721 60 791 158 791 267 c 0
 791 333 765 384 719 384 c 0
809 713 m 1
 232 1 l 1
 182 1 l 1
 759 713 l 1
 809 713 l 1
EndSplineSet
EndChar
StartChar: ampersand
Encoding: 38 38 7
Width: 642
VWidth: 1467
Flags: W
HStem: -13 44<170.273 359.807> 685 38<352.352 484.576>
VStem: 61 49<90.7929 241.315> 223 46<469.856 599.399> 509 48<534.912 659.67>
Fore
557 615 m 0
 557 545 516 461 329 381 c 1
 448 216 465 192 504 150 c 1
 574 223 609 312 634 376 c 1
 683 376 l 1
 633 251 581 163 527 114 c 1
 575 54 l 2
 591 33 605 15 619 0 c 1
 554 0 l 1
 514 45 526 43 492 81 c 1
 421 30 340 -13 233 -13 c 0
 128 -13 61 57 61 148 c 0
 61 245 125 335 257 395 c 1
 234 436 223 476 223 513 c 0
 223 607 304 723 437 723 c 0
 513 723 557 681 557 615 c 0
423 685 m 256
 344 685 269 604 269 523 c 0
 269 497 278 467 306 412 c 1
 447 474 509 524 509 599 c 0
 509 642 486 685 423 685 c 256
279 364 m 1
 245 347 110 283 110 162 c 0
 110 86 167 31 256 31 c 0
 344 31 420 72 468 113 c 1
 451 139 356 245 279 364 c 1
EndSplineSet
EndChar
StartChar: quotesingle
Encoding: 39 39 8
Width: 190
VWidth: 1467
Flags: W
HStem: 496 236<210 213>
VStem: 174 39<501.881 531.561>
Fore
213 496 m 1
 174 496 l 1
 210 732 l 1
 278 732 l 1
 213 496 l 1
EndSplineSet
EndChar
StartChar: parenleft
Encoding: 40 40 9
Width: 284
VWidth: 1467
Flags: W
VStem: 132 41<55.4876 265.229>
Fore
189 343 m 0
 178 293 173 247 173 202 c 0
 173 100 201 8 261 -85 c 1
 220 -85 l 1
 201 -58 132 36 132 201 c 0
 132 244 137 291 148 343 c 0
 191 544 289 669 402 781 c 1
 446 781 l 1
 298 644 224 506 189 343 c 0
EndSplineSet
EndChar
StartChar: parenright
Encoding: 41 41 10
Width: 284
VWidth: 1467
Flags: W
VStem: 246 42<423.522 637.505>
Fore
201 781 m 1
 248 712 288 616 288 490 c 0
 288 446 283 399 272 348 c 256
 238 189 159 44 17 -85 c 1
 -24 -85 l 1
 84 22 189 150 231 348 c 256
 242 399 246 445 246 488 c 0
 246 610 207 701 160 781 c 1
 201 781 l 1
EndSplineSet
EndChar
StartChar: asterisk
Encoding: 42 42 11
Width: 422
VWidth: 1467
Flags: W
HStem: 512 75<137 174.55 473.45 511 121 527 137 137>
Fore
527 587 m 1
 511 512 l 1
 365 522 l 1
 426 409 l 1
 354 368 l 1
 313 493 l 1
 227 359 l 1
 167 393 l 1
 274 522 l 1
 121 512 l 1
 137 587 l 1
 277 578 l 1
 214 697 l 1
 286 737 l 1
 330 602 l 1
 420 741 l 1
 479 706 l 1
 374 577 l 1
 527 587 l 1
EndSplineSet
EndChar
StartChar: plus
Encoding: 43 43 12
Width: 629
VWidth: 1467
Flags: W
HStem: 332 48<116 353 414 650>
Fore
404 332 m 1
 349 73 l 1
 298 73 l 1
 353 332 l 1
 106 332 l 1
 116 380 l 1
 363 380 l 1
 417 635 l 1
 468 635 l 1
 414 380 l 1
 660 380 l 1
 650 332 l 1
 404 332 l 1
EndSplineSet
EndChar
StartChar: comma
Encoding: 44 44 13
Width: 184
VWidth: 1467
Flags: W
HStem: -109 196<44 122 122 122> -24 20<63 75.5 95 97>
VStem: 11 146<-109 48 -109 -109>
Fore
44 13 m 0x60
 44 49 87 87 122 87 c 0
 144 87 157 68 157 48 c 0
 157 30 141 -18 109 -54 c 0
 86 -78 64 -97 44 -109 c 1
 11 -109 l 1xa0
 48 -86 87 -50 103 -4 c 1
 91 -10 80 -12 71 -12 c 0
 55 -12 44 -3 44 13 c 0x60
EndSplineSet
EndChar
StartChar: hyphen
Encoding: 45 45 14
Width: 316
VWidth: 1467
Flags: W
HStem: 273 51<92 338 81 349 92 92>
Fore
81 273 m 1
 92 324 l 1
 349 324 l 1
 338 273 l 1
 81 273 l 1
EndSplineSet
EndChar
StartChar: period
Encoding: 46 46 15
Width: 193
VWidth: 1467
Flags: W
HStem: -15 115<75.7971 127.88>
VStem: 58 89<3.0537 83.2041>
Fore
58 26 m 0
 58 61 81 100 115 100 c 0
 132 100 147 87 147 61 c 0
 147 25 121 -15 91 -15 c 0
 69 -15 58 3 58 26 c 0
EndSplineSet
EndChar
StartChar: slash
Encoding: 47 47 16
Width: 394
VWidth: 1467
Flags: W
HStem: 703 20G<487.953 547>
Fore
11 -43 m 1
 -36 -43 l 1
 502 723 l 1
 547 723 l 1
 11 -43 l 1
EndSplineSet
EndChar
StartChar: zero
Encoding: 48 48 17
Width: 698
VWidth: 1467
Flags: W
HStem: -3 29<270.962 441.474> 690 29<405.162 580.318>
VStem: 156 39<108.677 369.908> 644 42<445.984 620.275>
Fore
156 221 m 0
 156 336 225 719 499 719 c 0
 647 719 686 621 686 509 c 0
 686 450 676 388 664 334 c 0
 608 72 450 -3 355 -3 c 0
 298 -3 156 21 156 221 c 0
496 690 m 0
 255 690 195 320 195 218 c 0
 195 55 290 26 362 26 c 0
 440 26 571 91 622 328 c 0
 637 399 644 458 644 505 c 0
 644 642 586 690 496 690 c 0
EndSplineSet
EndChar
StartChar: one
Encoding: 49 49 18
Width: 698
VWidth: 1467
Flags: W
HStem: 0 21G<329 382.247>
VStem: 329 197<0 697 1.53064e-18 1.53064e-18>
Fore
469 654 m 1
 396 616 l 1
 404 654 l 1
 488 697 l 1
 526 697 l 1
 378 0 l 1
 329 0 l 1
 469 654 l 1
EndSplineSet
EndChar
StartChar: two
Encoding: 50 50 19
Width: 698
VWidth: 1467
Flags: W
HStem: -1 35<163 557> 681 33<413.706 622.432>
VStem: 658 40<520.633 648.523>
Fore
267 615 m 1
 357 677 431 714 527 714 c 0
 636 714 698 668 698 596 c 0
 698 504 622 409 377 207 c 2
 163 34 l 1
 566 33 l 1
 557 -1 l 1
 104 -1 l 1
 113 35 l 1
 130 50 151 68 179 90 c 2
 381 252 l 2
 587 418 658 524 658 593 c 0
 658 635 634 681 528 681 c 0
 478 681 416 679 258 572 c 1
 267 615 l 1
EndSplineSet
EndChar
StartChar: three
Encoding: 51 51 20
Width: 698
VWidth: 1467
Flags: W
HStem: -4 29<220.637 414.583> 352 31<311 326.592 326.592 331.792 331.792 374.946 374.946 478.842> 673 30<328.158 576.193>
VStem: 578 47<161.146 303.789> 625 48<540.765 628.914>
Fore
303 25 m 0
 413 25 578 93 578 238 c 0
 578 309 529 354 396 354 c 0
 372 354 355 352 355 352 c 2
 324 352 344 349 303 349 c 1
 311 384 l 1
 323 383 334 383 342 383 c 2
 360 383 l 2
 534 385 612 489 621 530 c 0
 624 543 625 556 625 567 c 0
 625 646 557 673 466 673 c 0
 398 673 350 658 288 640 c 1
 299 676 l 1
 386 694 420 703 474 703 c 0
 580 703 673 667 673 578 c 0
 673 568 671 557 669 546 c 0
 655 478 618 405 461 376 c 1
 460 373 l 1
 594 373 625 311 625 253 c 0
 625 92 451 -4 298 -4 c 0
 290 -4 188 4 147 25 c 1
 149 59 l 1
 206 37 238 25 303 25 c 0
EndSplineSet
EndChar
StartChar: four
Encoding: 52 52 21
Width: 698
VWidth: 1467
Flags: W
HStem: 1 21G<447.286 491> 197 30<205 485 536 621> 683 20G<553.827 639>
VStem: 162 477<197 703 197 282>
Fore
639 703 m 1
 617 597 609 570 581 438 c 2
 536 227 l 1
 627 227 l 1
 621 197 l 1
 530 197 l 1
 515 126 l 2
 504 76 501 52 491 3 c 1
 443 1 l 1
 485 197 l 1
 162 197 l 1
 170 236 l 1
 571 703 l 1
 639 703 l 1
491 227 m 1
 585 668 l 1
 205 227 l 1
 491 227 l 1
EndSplineSet
EndChar
StartChar: five
Encoding: 53 53 22
Width: 698
VWidth: 1467
Flags: W
HStem: -9 31<215.067 406.988> 374 31<328.183 522.303> 675 28<364 620.165>
VStem: 593 45<176.595 319.656>
Fore
638 269 m 0
 638 137 502 -9 269 -9 c 0
 223 -9 174 -3 124 9 c 1
 124 45 l 1
 198 25 249 22 281 22 c 0
 480 22 593 153 593 259 c 0
 593 313 557 374 388 374 c 0
 331 374 275 370 219 361 c 1
 329 703 l 1
 724 703 l 1
 717 666 l 1
 637 672 550 675 458 675 c 2
 364 675 l 1
 272 393 l 1
 343 402 387 405 415 405 c 0
 598 405 638 333 638 269 c 0
EndSplineSet
EndChar
StartChar: six
Encoding: 54 54 23
Width: 698
VWidth: 1467
Flags: W
HStem: -4 29<251.869 458.378> 375 36<340.12 556.048> 689 20G<447 579>
VStem: 138 47<88.6378 192.547> 604 43<171.926 329.14>
Fore
647 263 m 0
 647 147 544 -4 351 -4 c 0
 252 -4 138 28 138 148 c 0
 138 163 139 179 143 197 c 0
 183 384 373 562 521 709 c 1
 579 709 l 1
 491 633 363 513 262 361 c 1
 292 378 367 411 451 411 c 0
 538 411 647 380 647 263 c 0
347 25 m 0
 533 25 604 173 604 259 c 0
 604 317 574 375 465 375 c 0
 394 375 297 351 221 289 c 1
 192 230 185 187 185 161 c 0
 185 80 244 25 347 25 c 0
EndSplineSet
EndChar
StartChar: seven
Encoding: 55 55 24
Width: 698
VWidth: 1467
Flags: W
HStem: -1 21G<183 275.5> 665 36<284 324.615 324.615 509.977 509.977 675>
Fore
675 671 m 1
 522 671 490 665 368 665 c 0
 338 665 307 665 277 666 c 1
 284 701 l 1
 720 701 l 1
 710 662 l 1
 415 259 319 131 232 -1 c 1
 183 -1 l 1
 420 320 l 1
 675 671 l 1
EndSplineSet
EndChar
StartChar: eight
Encoding: 56 56 25
Width: 698
VWidth: 1467
Flags: W
HStem: -2 28<246.631 460.573> 348 30<317.7 523.333> 691 28<396.667 591.737>
VStem: 127 48<87.5458 238.047> 224 47<421.927 572.733> 602 43<145.747 291.912> 649 45<491.554 637.683>
Fore
645 230 m 0
 645 64 475 -2 334 -2 c 0
 218 -2 127 45 127 147 c 0
 127 187 139 322 331 364 c 1
 297 371 224 402 224 487 c 0
 224 582 313 719 500 719 c 0
 622 719 694 659 694 577 c 0
 694 493 639 417 522 367 c 1
 626 343 645 276 645 230 c 0
412 378 m 0
 575 378 649 487 649 570 c 0
 649 644 591 691 500 691 c 0
 405 691 271 634 271 490 c 0
 271 425 311 378 412 378 c 0
427 348 m 0
 260 348 175 257 175 158 c 0
 175 54 278 26 348 26 c 0
 478 26 602 109 602 224 c 0
 602 283 567 348 427 348 c 0
EndSplineSet
EndChar
StartChar: nine
Encoding: 57 57 26
Width: 698
VWidth: 1467
Flags: W
HStem: -1 21G<270 349.22> 295 37<292.44 508.487> 681 31<394.039 594.492>
VStem: 200 44<377.783 536.153> 663 48<483.805 618.129>
Fore
200 444 m 0
 200 566 309 712 497 712 c 0
 593 712 711 680 711 558 c 0
 711 371 459 128 421 90 c 2
 329 -1 l 1
 270 -1 l 1
 378 92 466 185 537 276 c 2
 563 312 l 2
 572 323 579 334 586 345 c 1
 551 326 477 295 394 295 c 0
 312 295 200 326 200 444 c 0
501 681 m 0
 332 681 244 547 244 445 c 0
 244 387 276 332 384 332 c 0
 448 332 551 355 626 417 c 1
 656 474 663 519 663 544 c 0
 663 628 599 681 501 681 c 0
EndSplineSet
EndChar
StartChar: colon
Encoding: 58 58 27
Width: 201
VWidth: 1467
Flags: W
HStem: 3 115<83.9844 134.888> 381 115<163.673 214.693>
VStem: 65 89<21.5544 100.263> 145 89<399.877 478.624>
Fore
65 42 m 0xe0
 65 75 88 118 122 118 c 0
 142 118 154 102 154 78 c 0
 154 41 127 3 98 3 c 0
 77 3 65 19 65 42 c 0xe0
145 421 m 0xd0
 145 454 168 496 202 496 c 0
 222 496 234 479 234 456 c 0
 234 420 207 381 178 381 c 0
 157 381 145 397 145 421 c 0xd0
EndSplineSet
EndChar
StartChar: semicolon
Encoding: 59 59 28
Width: 203
VWidth: 1467
Flags: W
HStem: -24 20<63.5 75.5 95 97> 381 115<163.673 214.693>
VStem: 11 223<-109 456 -109 -109> 145 89<399.877 478.624>
Fore
44 13 m 0xe0
 44 46 84 87 122 87 c 0
 143 87 156 71 156 50 c 0
 156 31 141 -19 109 -54 c 0
 86 -78 64 -97 44 -109 c 1
 11 -109 l 1
 48 -86 87 -50 103 -4 c 1
 91 -10 80 -12 71 -12 c 0
 56 -12 44 -3 44 13 c 0xe0
145 421 m 0xd0
 145 454 168 496 202 496 c 0
 222 496 234 479 234 456 c 0xe0
 234 420 207 381 178 381 c 0
 157 381 145 397 145 421 c 0xd0
EndSplineSet
EndChar
StartChar: less
Encoding: 60 60 29
Width: 517
VWidth: 1467
Flags: W
HStem: -7 21G<417.5 464>
VStem: 104 479<280 574 280 280>
Fore
186 283 m 1
 326 238 431 107 471 48 c 1
 460 -7 l 1
 375 146 212 248 104 280 c 1
 260 332 451 441 583 574 c 1
 571 516 l 1
 394 370 265 308 186 283 c 1
EndSplineSet
EndChar
StartChar: equal
Encoding: 61 61 30
Width: 629
VWidth: 1467
Flags: W
HStem: 180 47<83 617> 346 47<119 653>
Fore
109 346 m 1
 119 393 l 1
 663 393 l 1
 653 346 l 1
 109 346 l 1
73 180 m 1
 83 227 l 1
 627 227 l 1
 617 180 l 1
 73 180 l 1
EndSplineSet
EndChar
StartChar: greater
Encoding: 62 62 31
Width: 535
VWidth: 1467
Flags: W
HStem: -10 21G<71.2105 129>
VStem: 67 479<-10 283 -10 -10>
Fore
463 280 m 1
 364 312 243 413 178 515 c 1
 190 571 l 1
 256 439 409 327 546 283 c 1
 391 234 191 118 67 -10 c 1
 79 47 l 1
 214 164 370 252 463 280 c 1
EndSplineSet
EndChar
StartChar: question
Encoding: 63 63 32
Width: 478
VWidth: 1467
Flags: W
HStem: 3 115<198.696 249.341> 441 26<183.103 238.939> 689 37<330.155 459.961>
VStem: 147 35<467.252 575.591> 179 90<21.855 99.5891> 296 33<538.497 634.474> 499 43<528.996 651.401>
Fore
329 608 m 0xf6
 329 531 254 441 199 441 c 0
 162 441 147 471 147 506 c 0
 147 611 268 726 400 726 c 0
 474 726 542 675 542 585 c 0
 542 505 495 435 423 392 c 0
 372 361 297 314 272 196 c 2
 268 180 l 1
 231 182 l 1
 231 206 245 254 273 304 c 0
 305 357 378 405 410 425 c 0
 490 486 499 557 499 585 c 0
 499 643 462 689 390 689 c 0
 356 689 328 679 303 668 c 1
 321 657 329 634 329 608 c 0xf6
275 649 m 0
 244 649 182 566 182 500 c 0
 182 479 190 467 203 467 c 0
 238 467 296 556 296 611 c 0
 296 633 288 649 275 649 c 0
179 43 m 0xee
 179 73 202 118 236 118 c 0
 257 118 269 102 269 78 c 0
 269 41 241 3 212 3 c 0
 191 3 179 20 179 43 c 0xee
EndSplineSet
EndChar
StartChar: at
Encoding: 64 64 33
Width: 886
VWidth: 1467
Flags: W
HStem: -153 37<284.23 486.838> 2 32<335.589 477.254 609 664.014> 393 31<389.321 590.227> 547 35<457.156 690.895>
VStem: 104 40<26.5338 202.318> 283 37<51.6316 132.058> 618 43<287.425 367.276> 825 39<213.987 419.841>
Fore
864 333 m 0
 864 137 701 6 604 6 c 0
 576 6 567 39 568 57 c 1
 539 35 466 2 400 2 c 0
 349 2 283 20 283 87 c 0
 283 96 284 104 286 114 c 0
 310 224 433 217 517 238 c 0
 604 260 618 291 618 317 c 0
 618 350 596 393 508 393 c 0
 459 393 397 377 352 357 c 1
 367 393 l 1
 411 414 461 424 508 424 c 0
 576 424 661 404 661 327 c 0
 661 319 660 310 658 301 c 2
 614 92 l 2
 610 78 608 61 608 49 c 0
 608 45 608 41 609 38 c 1
 694 44 825 154 825 321 c 0
 825 459 726 547 578 547 c 256
 404 547 198 413 151 192 c 0
 146 170 144 149 144 129 c 0
 144 -10 246 -116 390 -116 c 0
 434 -116 509 -111 575 -75 c 1
 590 -104 l 1
 527 -136 460 -153 379 -153 c 0
 224 -153 104 -51 104 111 c 0
 104 317 295 582 593 582 c 0
 773 582 864 474 864 333 c 0
609 251 m 1
 583 234 550 216 511 210 c 2
 453 200 l 2
 381 187 320 158 320 95 c 0
 320 47 364 34 415 34 c 0
 450 34 498 44 540 72 c 2
 577 97 l 1
 609 251 l 1
EndSplineSet
EndChar
StartChar: A
Encoding: 65 65 34
Width: 649
VWidth: 1467
Flags: W
HStem: 0 21G<42 97.5197 546.039 593> 229 39<215 534> 680 44<414.946 498.402>
VStem: 522 50<453.333 519 519 656.727> 547 46<0 72.8636>
Fore
536 229 m 1xe8
 197 229 l 1
 88 0 l 1
 42 0 l 1
 295 544 l 2
 326 608 371 724 471 724 c 0
 574 724 566 595 572 544 c 2xf0
 593 0 l 1
 547 0 l 1
 536 229 l 1xe8
534 268 m 1
 522 519 l 2
 518 627 510 680 461 680 c 0
 405 680 377 605 333 519 c 2
 215 268 l 1
 534 268 l 1
EndSplineSet
EndChar
StartChar: B
Encoding: 66 66 35
Width: 660
VWidth: 1467
Flags: W
HStem: 0 38<150 468.184> 408 41<371 444 491 498.546> 675 37<284 563.915>
VStem: 590 48<162.965 329.862 524.316 650.953>
Fore
634 603 m 0
 634 529 576 451 491 427 c 1
 569 409 638 360 638 264 c 0
 638 154 559 0 352 0 c 2
 97 0 l 1
 248 712 l 1
 521 712 l 2
 587 712 634 670 634 603 c 0
444 449 m 2
 505 449 589 514 589 592 c 0
 589 639 559 675 507 675 c 2
 284 675 l 1
 150 38 l 1
 370 38 l 2
 534 38 590 177 590 254 c 0
 590 346 508 400 436 408 c 2
 363 408 l 1
 371 449 l 1
 444 449 l 2
EndSplineSet
EndChar
StartChar: C
Encoding: 67 67 36
Width: 632
VWidth: 1467
Flags: W
HStem: -9 35<243.592 430.226> 599 21G<647 700> 687 34<376.317 565.977>
VStem: 126 51<82.5054 144.512 134.5 154.523 154.523 161.45> 657 43<604.726 656.743>
Fore
179 164 m 2
 178 158 177 152 177 145 c 0
 177 95 216 26 350 26 c 0
 372 26 498 29 554 114 c 1
 590 98 l 1
 538 25 429 -9 331 -9 c 0
 189 -9 126 60 126 124 c 0
 126 131 127 138 128 145 c 2
 218 568 l 2
 233 640 334 721 489 721 c 0
 587 721 680 687 700 615 c 1
 657 599 l 1
 637 684 512 687 490 687 c 0
 325 687 268 584 261 549 c 2
 179 164 l 2
EndSplineSet
EndChar
StartChar: D
Encoding: 68 68 37
Width: 669
VWidth: 1467
Flags: W
HStem: 0 36<150 175.546 175.546 375.641> 681 36<287 478.91>
VStem: 626 45<414.296 562.538>
Fore
98 0 m 1
 250 717 l 1
 450 717 671 711 671 472 c 0
 671 439 667 402 658 359 c 0
 596 65 435 0 218 0 c 2
 98 0 l 1
614 359 m 0
 622 398 626 433 626 463 c 0
 626 638 495 681 287 681 c 1
 150 37 l 1
 168 36 185 36 201 36 c 0
 477 36 569 144 614 359 c 0
EndSplineSet
EndChar
StartChar: E
Encoding: 69 69 38
Width: 642
VWidth: 1467
Flags: W
HStem: -6 37<252.921 556> 321 40<221 514> 675 38<380.105 700>
VStem: 139 48<91.209 209.419>
Fore
193 450 m 2
 237 660 335 710 510 713 c 2
 709 713 l 1
 700 675 l 1
 498 675 l 2
 336 675 269 586 243 467 c 2
 221 361 l 1
 523 361 l 1
 514 321 l 1
 212 321 l 1
 195 241 l 2
 190 217 187 195 187 174 c 0
 187 89 232 31 362 31 c 2
 564 31 l 1
 556 -6 l 1
 357 -6 l 2
 224 -1 139 23 139 154 c 0
 139 183 143 217 152 257 c 2
 193 450 l 2
EndSplineSet
EndChar
StartChar: F
Encoding: 70 70 39
Width: 627
VWidth: 1467
Flags: W
HStem: -1 21G<98 148.308> 324 40<222 515> 678 38<384.126 703>
Fore
194 453 m 2
 240 667 343 713 510 716 c 2
 711 716 l 1
 703 678 l 1
 500 678 l 2
 331 678 269 584 243 463 c 2
 222 364 l 1
 523 364 l 1
 515 324 l 1
 214 324 l 1
 144 -1 l 1
 98 -1 l 1
 194 453 l 2
EndSplineSet
EndChar
StartChar: G
Encoding: 71 71 40
Width: 689
VWidth: 1467
Flags: W
HStem: -7 39<254.741 490.987> 358 40<507 581.184> 597 21G<655 708> 685 34<375.574 571.51>
VStem: 140 49<90.8142 209.816> 620 50<164.939 323.667> 664 44<603.537 652.056>
Fore
670 271 m 0xfc
 670 152 584 -7 382 -7 c 0
 208 -7 140 42 140 156 c 0
 140 185 145 219 153 257 c 2
 218 566 l 2
 239 665 377 719 502 719 c 0
 599 719 689 686 708 613 c 1
 664 597 l 1xfa
 646 682 513 685 494 685 c 0
 326 685 270 584 261 548 c 2
 199 255 l 2
 193 226 189 199 189 174 c 0
 189 88 233 32 365 32 c 2
 400 32 l 2
 537 32 620 151 620 262 c 0
 620 345 552 352 498 358 c 1
 507 398 l 1
 632 398 670 342 670 271 c 0xfc
EndSplineSet
EndChar
StartChar: H
Encoding: 72 72 41
Width: 658
VWidth: 1467
Flags: W
HStem: -3 21G<96 147.294 511 562.262> 323 39<221 581> 695 20G<244.738 296 659.751 711>
Fore
664 715 m 1
 711 715 l 1
 558 -3 l 1
 511 -3 l 1
 581 323 l 1
 213 323 l 1
 143 -3 l 1
 96 -3 l 1
 249 715 l 1
 296 715 l 1
 221 362 l 1
 589 362 l 1
 664 715 l 1
EndSplineSet
EndChar
StartChar: I
Encoding: 73 73 42
Width: 214
VWidth: 1467
Flags: W
HStem: 0 21G<76 126.268> 697 20G<223.76 275>
VStem: 76 199<0 717 1.53064e-18 1.53064e-18>
Fore
275 717 m 1
 122 0 l 1
 76 0 l 1
 228 717 l 1
 275 717 l 1
EndSplineSet
EndChar
StartChar: J
Encoding: 74 74 43
Width: 491
VWidth: 1467
Flags: W
HStem: -13 38<172.773 299.755> 690 20G<492.762 544>
VStem: 93 49<56.0731 131.945 130.889 133 133 145>
Fore
225 -13 m 0
 158 -13 93 22 93 104 c 0
 93 117 95 130 98 145 c 1
 144 145 l 1
 143 137 142 129 142 121 c 0
 142 61 180 25 233 25 c 0
 280 25 359 62 383 172 c 2
 497 710 l 1
 544 710 l 1
 424 148 l 2
 402 43 307 -13 225 -13 c 0
EndSplineSet
EndChar
StartChar: K
Encoding: 75 75 44
Width: 685
VWidth: 1467
Flags: W
HStem: -1 21G<98 149.261 538 589.211> 696 20G<245.754 297 637.085 726>
VStem: 596 46<254.874 367.8>
Fore
446 486 m 1
 571 473 642 419 642 305 c 0
 642 282 639 256 633 227 c 2
 585 -1 l 1
 538 -1 l 1
 588 224 l 2
 592 249 596 262 596 287 c 0
 596 413 486 443 399 447 c 1
 207 291 l 1
 145 0 l 1
 98 0 l 1
 250 716 l 1
 297 716 l 1
 221 359 l 1
 662 713 l 1
 726 713 l 1
 446 486 l 1
EndSplineSet
EndChar
StartChar: L
Encoding: 76 76 45
Width: 616
VWidth: 1467
Flags: W
HStem: -1 38<254.944 407.077 407.077 559> 696 20G<244.762 296>
VStem: 140 48<95.8546 213.083>
Fore
196 246 m 2
 191 221 188 198 188 178 c 0
 188 67 266 37 363 37 c 2
 567 37 l 1
 559 -1 l 1
 458 -1 l 2
 398 -1 378 0 358 0 c 0
 218 2 140 36 140 161 c 0
 140 190 145 223 153 263 c 2
 249 716 l 1
 296 716 l 1
 196 246 l 2
EndSplineSet
EndChar
StartChar: M
Encoding: 77 77 46
Width: 836
VWidth: 1467
Flags: W
HStem: 0 21G<97 145.192 694 742.252> 695 20G<244.748 320 800.5 890>
Fore
281 668 m 1
 141 0 l 1
 97 0 l 1
 249 715 l 1
 293 715 l 1
 347 686 464 586 517 465 c 1
 621 584 761 677 840 715 c 1
 890 715 l 1
 738 0 l 1
 694 0 l 1
 836 669 l 1
 782 655 542 461 499 387 c 1
 451 528 342 639 281 668 c 1
EndSplineSet
EndChar
StartChar: N
Encoding: 78 78 47
Width: 721
VWidth: 1467
Flags: W
HStem: -7 21G<97 152.312 510.009 539.5> 695 20G<244.748 300.826 723.752 774>
Fore
554 48 m 1
 577 54 590 68 608 150 c 2
 728 715 l 1
 774 715 l 1
 650 134 l 2
 626 18 561 -5 518 -7 c 1
 341 436 l 2
 302 536 282 585 278 603 c 1
 148 0 l 1
 97 0 l 1
 249 715 l 1
 293 715 l 1
 554 48 l 1
EndSplineSet
EndChar
StartChar: O
Encoding: 79 79 48
Width: 705
VWidth: 1467
Flags: W
HStem: -16 37<253.605 461.62> 691 38<389.956 598.029>
VStem: 130 49<85.8761 169.24 159.461 179.02 179.02 188.558> 668 51<524.442 532.98 532.98 553.539 543.26 625.731>
Fore
345 -16 m 0
 240 -16 130 31 130 136 c 0
 130 147 131 159 134 172 c 2
 212 541 l 2
 240 671 386 729 503 729 c 0
 611 729 723 684 723 577 c 0
 723 566 722 554 719 541 c 2
 641 172 l 2
 612 38 463 -16 345 -16 c 0
497 691 m 0
 395 691 277 634 253 521 c 2
 183 191 l 2
 180 179 179 167 179 156 c 0
 179 66 262 21 351 21 c 0
 454 21 573 76 598 191 c 2
 668 521 l 2
 671 533 672 545 672 556 c 0
 672 647 587 691 497 691 c 0
EndSplineSet
EndChar
StartChar: P
Encoding: 80 80 49
Width: 669
VWidth: 1467
Flags: W
HStem: 0 21G<97 145.307> 274 40<209 447.365> 673 39<285 575.71>
VStem: 644 45<430.98 605.766>
Fore
689 536 m 0
 689 364 544 274 407 274 c 2
 200 274 l 1
 141 0 l 1
 97 0 l 1
 248 712 l 1
 504 712 l 2
 569 712 689 677 689 536 c 0
416 314 m 2
 434 314 644 329 644 526 c 0
 644 639 553 673 501 673 c 2
 285 673 l 1
 209 314 l 1
 416 314 l 2
EndSplineSet
EndChar
StartChar: Q
Encoding: 81 81 50
Width: 705
VWidth: 1467
Flags: W
HStem: -101 39<493.185 586> -14 36<257.736 409.577> 693 36<392.745 597.681>
VStem: 131 51<88.8013 170.688 161.356 180.02 180.02 189.603> 671 51<526.397 533.98 533.98 555.539 544.76 627.609>
Fore
582 -62 m 2
 594 -62 l 1
 586 -101 l 1
 497 -101 431 -72 404 -10 c 1
 385 -13 366 -14 348 -14 c 0
 226 -14 131 42 131 139 c 0
 131 150 132 161 135 173 c 2
 213 543 l 2
 241 673 388 729 507 729 c 0
 615 729 726 683 726 579 c 0
 726 568 725 556 722 543 c 2
 644 173 l 2
 622 69 525 20 455 0 c 1
 467 -21 495 -62 582 -62 c 2
499 693 m 0
 399 693 280 635 256 522 c 2
 186 192 l 2
 183 180 182 168 182 157 c 0
 182 67 266 22 355 22 c 0
 458 22 576 77 601 192 c 2
 671 522 l 2
 674 534 675 546 675 557 c 0
 675 652 584 693 499 693 c 0
EndSplineSet
EndChar
StartChar: R
Encoding: 82 82 51
Width: 642
VWidth: 1467
Flags: W
HStem: -3 21G<97 146.244 507 557.286> 343 40<223 439.119> 672 38<287 565.029>
VStem: 542 48<149.078 261.945> 616 45<470.914 627.71>
Fore
507 -3 m 1
 536 125 542 145 542 182 c 0
 542 303 439 339 306 343 c 2
 215 343 l 1
 142 -1 l 1
 97 -1 l 1
 248 710 l 1
 466 710 l 2
 569 710 661 681 661 571 c 0
 661 489 624 389 493 357 c 1
 568 325 590 265 590 203 c 0
 590 176 586 148 580 123 c 2
 553 -3 l 1
 507 -3 l 1
259 540 m 2
 248 488 239 457 223 383 c 1
 393 383 l 2
 476 390 616 390 616 558 c 0
 616 654 536 672 463 672 c 2
 287 672 l 1
 259 540 l 2
EndSplineSet
EndChar
StartChar: S
Encoding: 83 83 52
Width: 695
VWidth: 1467
Flags: W
HStem: -16 35<232.762 456.043> 582 21G<643 693> 701 31<380.177 583.664>
VStem: 107 49<81.1052 144> 205 49<447.203 581.88> 598 46<139.823 282.734> 646 47<582 642.553>
Fore
598 222 m 0
 598 412 205 282 205 494 c 0
 205 637 345 732 496 732 c 0
 584 732 691 697 693 582 c 1
 646 582 l 1
 640 677 554 701 483 701 c 0
 336 701 254 590 254 503 c 0
 254 325 644 451 644 236 c 0
 644 85 503 -16 334 -16 c 0
 211 -16 107 33 107 144 c 1
 156 144 l 1
 157 55 252 19 347 19 c 0
 479 19 598 105 598 222 c 0
EndSplineSet
EndChar
StartChar: T
Encoding: 84 84 53
Width: 689
VWidth: 1467
Flags: W
HStem: 0 21G<314 365.245> 669 46<225 456 503 746>
Fore
756 715 m 1
 746 668 l 1
 503 669 l 1
 361 0 l 1
 314 0 l 1
 456 669 l 1
 215 669 l 1
 225 715 l 1
 756 715 l 1
EndSplineSet
EndChar
StartChar: U
Encoding: 85 85 54
Width: 705
VWidth: 1467
Flags: W
HStem: -15 37<256.678 464.793> 695 20G<245.756 297 707.755 759>
VStem: 131 51<88.166 170.24 160.461 180.02 180.02 189.496>
Fore
355 22 m 0
 458 22 576 77 601 192 c 2
 712 715 l 1
 759 715 l 1
 644 173 l 2
 616 41 464 -15 349 -15 c 0
 242 -15 131 31 131 137 c 0
 131 148 132 160 135 173 c 2
 250 715 l 1
 297 715 l 1
 186 192 l 2
 183 180 182 168 182 157 c 0
 182 67 266 22 355 22 c 0
EndSplineSet
EndChar
StartChar: V
Encoding: 86 86 55
Width: 685
VWidth: 1467
Flags: W
HStem: -10 48<310.25 397.527> 695 20G<216 262.962 711.519 767>
VStem: 216 46<642.2 715> 237 50<106.539 260.833>
Fore
514 170 m 2xd0
 502 142 448 -10 337 -10 c 0
 231 -10 239 121 237 170 c 2xd0
 216 715 l 1
 262 715 l 1xe0
 287 195 l 2
 292 99 297 38 350 38 c 0
 381 38 409 58 447 137 c 2
 721 715 l 1
 767 715 l 1
 514 170 l 2xd0
EndSplineSet
EndChar
StartChar: W
Encoding: 87 87 56
Width: 872
VWidth: 1467
Flags: W
HStem: -1 21G<186 275 585 669.882> 692 20G<217.102 262 872.5 943>
VStem: 218 44<634.016 712>
Fore
521 437 m 1
 474 265 321 37 229 -1 c 1
 186 -1 l 1
 218 712 l 1
 262 712 l 1
 242 60 l 1
 403 193 485 442 545 566 c 1
 570 425 570 97 631 62 c 1
 738 322 847 581 898 712 c 1
 943 712 l 1
 662 -1 l 1
 619 -1 l 1
 551 30 519 236 519 383 c 0
 519 402 520 420 521 437 c 1
EndSplineSet
EndChar
StartChar: X
Encoding: 88 88 57
Width: 786
VWidth: 1467
Flags: W
HStem: -1 21G<98.6111 141 635 685.722> 696 20G<233 305.23 764.315 846>
Fore
697 -1 m 1
 635 0 l 1
 455 320 l 1
 141 0 l 1
 79 -1 l 1
 432 359 l 1
 233 716 l 1
 294 716 l 1
 472 399 l 1
 784 716 l 1
 846 716 l 1
 494 359 l 1
 697 -1 l 1
EndSplineSet
EndChar
StartChar: Y
Encoding: 89 89 58
Width: 679
VWidth: 1467
Flags: W
HStem: -3 21G<306 356.281> 692 20G<207 265.784 691.253 757>
Fore
757 712 m 1
 468 340 l 2
 452 321 435 306 416 296 c 1
 352 -3 l 1
 306 -3 l 1
 370 295 l 1
 349 306 344 316 334 345 c 2
 207 712 l 1
 259 712 l 1
 375 370 l 2
 383 346 389 335 398 335 c 0
 407 335 418 345 433 364 c 2
 707 712 l 1
 757 712 l 1
EndSplineSet
EndChar
StartChar: Z
Encoding: 90 90 59
Width: 752
VWidth: 1467
Flags: W
HStem: -1 49<186.224 648> 668 45<244 717>
Fore
170 106 m 1
 175 58 211 48 250 48 c 2
 658 48 l 1
 648 -1 l 1
 224 -1 l 2
 134 -1 106 51 106 96 c 0
 106 103 107 110 108 117 c 1
 124 130 717 666 717 666 c 1
 234 668 l 1
 244 713 l 1
 800 713 l 1
 790 669 l 1
 170 106 l 1
EndSplineSet
EndChar
StartChar: bracketleft
Encoding: 91 91 60
Width: 286
VWidth: 1467
Flags: W
HStem: -117 30<117 257> 694 29<283 430>
VStem: 72 364<-117 723 -117 -117>
Fore
72 -117 m 1
 251 723 l 1
 436 723 l 1
 430 694 l 1
 283 694 l 1
 117 -87 l 1
 264 -87 l 1
 257 -117 l 1
 72 -117 l 1
EndSplineSet
EndChar
StartChar: backslash
Encoding: 92 92 61
Width: 390
VWidth: 1467
Flags: W
HStem: 702 20G<140 190.535>
VStem: 140 257<-44 722 324.069 709.997>
Fore
140 722 m 1
 185 722 l 1
 397 -44 l 1
 356 -44 l 1
 140 722 l 1
EndSplineSet
EndChar
StartChar: bracketright
Encoding: 93 93 62
Width: 284
VWidth: 1467
Flags: W
HStem: -117 30<-24 123> 694 29<148 289>
VStem: -31 364<-117 723 -117 -117>
Fore
-31 -117 m 1
 -24 -87 l 1
 123 -87 l 1
 289 694 l 1
 142 694 l 1
 148 723 l 1
 333 723 l 1
 154 -117 l 1
 -31 -117 l 1
EndSplineSet
EndChar
StartChar: asciicircum
Encoding: 94 94 63
Width: 629
VWidth: 1467
Flags: W
HStem: 697 20G<434 462>
VStem: 437 24<503.786 588>
Fore
437 588 m 1
 372 429 258 292 178 210 c 1
 124 210 l 1
 270 341 407 578 461 717 c 1
 463 611 483 375 586 210 c 1
 531 210 l 1
 440 397 437 533 437 588 c 1
EndSplineSet
EndChar
StartChar: underscore
Encoding: 95 95 64
Width: 528
VWidth: 1467
Flags: W
HStem: -248 32<-52 469>
Fore
-59 -248 m 1
 -52 -216 l 1
 476 -216 l 1
 469 -248 l 1
 -59 -248 l 1
EndSplineSet
EndChar
StartChar: grave
Encoding: 96 96 65
Width: 316
VWidth: 1467
Flags: W
HStem: 527 207<286 332>
VStem: 257 75<709.017 734> 286 46<527 551.983>
Fore
257 734 m 1xc0
 332 734 l 1xc0
 332 527 l 1
 286 527 l 1xa0
 257 734 l 1xc0
EndSplineSet
EndChar
StartChar: a
Encoding: 97 97 66
Width: 560
VWidth: 1467
Flags: W
HStem: -13 39<144.276 331.704> 478 37<225.273 447.858>
VStem: 71 45<52.3481 147.197> 490 53<364.803 438.557>
Fore
479 299 m 1
 438 274 403 256 355 248 c 2
 283 234 l 2
 152 209 116 160 116 104 c 0
 116 56 152 26 238 26 c 0
 286 26 344 44 392 76 c 2
 438 106 l 1
 479 299 l 1
218 -13 m 0
 155 -13 71 7 71 95 c 0
 71 105 72 117 75 129 c 0
 104 263 251 258 362 283 c 0
 423 296 482 332 488 364 c 0
 489 370 490 376 490 382 c 0
 490 426 458 478 354 478 c 0
 297 478 222 460 156 431 c 1
 175 478 l 1
 225 500 284 515 348 515 c 0
 435 515 543 491 543 394 c 0
 543 384 541 374 539 362 c 2
 483 101 l 2
 480 88 479 77 479 68 c 0
 479 50 485 38 501 23 c 1
 486 10 473 3 461 -6 c 1
 440 2 427 23 427 50 c 0
 427 56 l 1
 381 23 296 -13 218 -13 c 0
EndSplineSet
Substitution2: "Single Substitution lookup 22 subtable" uni0E38
Substitution2: "Single Substitution lookup 22 subtable" uni0E38
EndChar
StartChar: b
Encoding: 98 98 67
Width: 630
VWidth: 1467
Flags: W
HStem: -6 37<296.305 420.347> 479 35<339.741 501.044> 684 20G<259.74 310>
VStem: 573 46<206.094 402.639>
Fore
619 317 m 0
 619 195 528 -6 341 -6 c 0
 304 -6 242 2 201 34 c 2
 172 57 l 1
 162 28 139 3 113 -6 c 1
 102 7 94 11 86 25 c 1
 118 45 126 58 136 103 c 2
 264 704 l 1
 310 704 l 1
 255 446 l 1
 298 495 396 514 432 514 c 0
 537 514 619 440 619 317 c 0
333 31 m 0
 489 31 573 201 573 313 c 0
 573 417 504 479 426 479 c 0
 366 479 284 437 242 386 c 1
 183 107 l 1
 244 35 302 31 333 31 c 0
EndSplineSet
Substitution2: "Single Substitution lookup 22 subtable" uni0E39
Substitution2: "Single Substitution lookup 22 subtable" uni0E39
EndChar
StartChar: c
Encoding: 99 99 68
Width: 619
VWidth: 1467
Flags: W
HStem: -5 34<239.265 376.419> 483 34<327.44 506.274>
VStem: 124 51<85.0254 145 136 154 154 161.532> 586 43<402.827 453.736>
Fore
562 100 m 1
 489 -3 345 -5 322 -5 c 0
 179 -5 124 70 124 127 c 0
 124 133 125 139 126 145 c 2
 173 367 l 2
 189 443 299 517 433 517 c 0
 503 517 604 496 629 412 c 1
 586 396 l 1
 569 477 469 483 435 483 c 0
 302 483 228 403 216 348 c 2
 177 164 l 2
 176 157 175 151 175 144 c 0
 175 87 228 29 338 29 c 0
 372 29 475 35 527 116 c 1
 562 100 l 1
EndSplineSet
Substitution2: "Single Substitution lookup 22 subtable" uni0E3A
Substitution2: "Single Substitution lookup 22 subtable" uni0E3A
EndChar
StartChar: d
Encoding: 100 100 69
Width: 595
VWidth: 1467
Flags: W
HStem: -6 37<222.775 333.689> 479 34<317.749 476.054> 684 20G<609.736 658>
VStem: 111 47<98.04 296.581>
Fore
111 180 m 0
 111 368 260 513 404 513 c 0
 464 513 537 488 559 446 c 1
 614 704 l 1
 658 704 l 1
 530 103 l 2
 527 88 525 76 525 67 c 0
 525 48 531 38 546 25 c 1
 526 9 520 7 505 -6 c 1
 484 3 476 30 476 57 c 1
 437 34 l 2
 382 1 316 -6 279 -6 c 0
 146 -6 111 92 111 180 c 0
401 479 m 0
 283 479 158 350 158 192 c 0
 158 109 196 31 303 31 c 0
 336 31 394 35 487 107 c 1
 546 386 l 1
 524 434 462 479 401 479 c 0
EndSplineSet
EndChar
StartChar: e
Encoding: 101 101 70
Width: 619
VWidth: 1467
Flags: W
HStem: -9 34<241.26 379.651> 220 40<199 540.775> 478 36<327.197 516.334>
VStem: 125 51<81.4969 140.762 131 150.523 150.523 157.457> 574 44<295.438 334 334 347.34 347.34 348.523 347.932 422.88>
Fore
563 95 m 1
 491 -7 350 -9 325 -9 c 0
 193 -9 125 55 125 121 c 0
 125 128 126 134 127 141 c 2
 174 362 l 2
 192 447 320 514 425 514 c 0
 529 514 622 461 622 367 c 0
 622 357 620 346 618 334 c 0
 597 237 542 220 378 220 c 2
 191 220 l 1
 178 160 l 2
 177 154 176 148 176 141 c 0
 176 89 222 25 341 25 c 0
 382 25 477 32 527 112 c 1
 563 95 l 1
574 337 m 0
 576 345 576 353 576 360 c 0
 576 424 522 478 427 478 c 0
 312 478 229 401 217 343 c 2
 199 260 l 1
 436 260 l 2
 501 260 559 267 574 337 c 0
EndSplineSet
EndChar
StartChar: f
Encoding: 102 102 71
Width: 369
VWidth: 1467
Flags: W
HStem: -25 21G<77 105.5> 465 40<251 357> 668 38<326.327 451>
VStem: 64 395<4 706 20.1318 144.491>
Fore
203 499 m 2
 236 653 286 706 435 706 c 2
 459 706 l 1
 451 668 l 1
 425 668 l 2
 327 668 279 633 256 528 c 2
 251 505 l 1
 365 505 l 1
 357 465 l 1
 243 465 l 1
 152 37 l 1
 141 7 119 -16 92 -25 c 1
 77 -12 l 2
 73 -8 68 -3 64 4 c 1
 92 22 104 35 114 82 c 2
 203 499 l 2
EndSplineSet
EndChar
StartChar: g
Encoding: 103 103 72
Width: 595
VWidth: 1467
Flags: W
HStem: -224 36<231 373.111> -7 32<218.015 371.737> 474 37<292.858 446.399>
VStem: 97 45<102.781 296.978>
Fore
97 185 m 0
 97 328 201 511 364 511 c 0
 480 511 511 478 544 447 c 1
 544 449 l 1
 555 477 575 501 603 511 c 1
 630 481 l 1
 597 459 588 444 580 403 c 2
 489 -23 l 2
 456 -181 406 -224 266 -224 c 2
 223 -224 l 1
 231 -188 l 1
 277 -188 l 2
 385 -188 420 -137 436 -60 c 2
 462 59 l 1
 423 21 360 -7 295 -7 c 0
 196 -7 97 49 97 185 c 0
382 474 m 0
 220 474 142 297 142 191 c 0
 142 80 223 25 295 25 c 0
 340 25 428 66 475 120 c 1
 534 399 l 1
 468 474 412 474 382 474 c 0
EndSplineSet
EndChar
StartChar: h
Encoding: 104 104 73
Width: 591
VWidth: 1467
Flags: W
HStem: 1 21G<98 149.279 458 506.235> 470 45<350.582 500.38> 686 20G<241.5 258.5>
VStem: 529 46<327.882 441.551>
Fore
222 361 m 1
 268 456 333 515 452 515 c 0
 541 515 575 454 575 378 c 0
 575 355 572 332 567 308 c 2
 502 1 l 1
 458 1 l 1
 519 286 l 2
 526 318 529 344 529 367 c 0
 529 444 491 470 433 470 c 0
 303 470 225 323 194 229 c 2
 145 0 l 1
 98 0 l 1
 225 599 l 2
 228 612 229 623 229 632 c 0
 229 650 223 662 208 676 c 1
 224 692 235 696 248 706 c 1
 269 697 282 676 282 649 c 2
 282 644 l 1
 222 361 l 1
EndSplineSet
EndChar
StartChar: i
Encoding: 105 105 74
Width: 246
VWidth: 1467
Flags: W
HStem: -26 21G<129 157> 584 115<233.057 282.888>
VStem: 103 54<3.19096 43.5514 31 51.404> 213 89<602.638 679.393>
Fore
138 -26 m 1
 120 -19 103 5 103 27 c 0
 103 30 103 32 104 35 c 2
 203 499 l 1
 251 499 l 1
 162 81 l 2
 159 65 157 53 157 44 c 0
 157 25 163 16 178 3 c 1
 171 -4 164 -9 157 -14 c 2
 138 -26 l 1
213 623 m 0
 213 658 239 699 271 699 c 0
 291 699 302 683 302 660 c 0
 302 622 275 584 246 584 c 0
 225 584 213 602 213 623 c 0
EndSplineSet
EndChar
StartChar: j
Encoding: 106 106 75
Width: 313
VWidth: 1467
Flags: W
HStem: -226 40<-40 85.3995> 584 115<298.874 348.888>
VStem: -48 416<-226 660 -226 -226> 279 89<602.638 679.328>
Fore
-14 -186 m 2xe0
 120 -186 141 -119 162 -19 c 2
 272 499 l 1
 320 499 l 1
 210 -18 l 2
 181 -157 136 -226 -23 -226 c 2
 -48 -226 l 1
 -40 -186 l 1
 -14 -186 l 2xe0
279 622 m 0xd0
 279 654 302 699 337 699 c 0
 357 699 368 683 368 660 c 0xe0
 368 622 341 584 312 584 c 0
 292 584 279 600 279 622 c 0xd0
EndSplineSet
EndChar
StartChar: k
Encoding: 107 107 76
Width: 559
VWidth: 1467
Flags: W
HStem: 1 21G<95 146.216 425 478.25> 482 20G<487.961 572> 687 20G<239 258>
VStem: 227 52<629.417 649.5 633.445 675.799> 461 47<151.764 161 168 181.11 181.11 197.127 189.118 269.285>
Fore
245 707 m 1
 271 697 280 670 280 653 c 0
 280 651 279 648 279 646 c 1
 195 248 l 1
 513 502 l 1
 572 502 l 1
 382 348 l 1
 465 335 515 297 515 217 c 0
 515 200 513 182 508 161 c 2
 474 1 l 1
 425 1 l 1
 461 168 l 2
 463 177 465 190 465 205 c 0
 465 247 446 303 343 314 c 1
 181 185 l 1
 142 0 l 1
 95 0 l 1
 223 600 l 2
 226 613 227 624 227 633 c 0
 227 651 221 663 205 678 c 1
 220 691 233 698 245 707 c 1
EndSplineSet
EndChar
StartChar: l
Encoding: 108 108 77
Width: 240
VWidth: 1467
Flags: W
HStem: -26 21G<127.5 144.5> 684 20G<227 260>
VStem: 102 54<4.40387 53.1466> 227 54<626.638 646.477 634.347 674.844>
Fore
247 704 m 1
 273 694 282 666 282 650 c 0
 282 647 281 645 281 643 c 1
 161 82 l 2
 158 67 156 55 156 46 c 0
 156 27 163 17 177 4 c 1
 162 -9 153 -14 136 -26 c 1
 119 -19 102 6 102 29 c 0
 102 31 102 34 103 37 c 2
 222 597 l 2
 225 613 227 625 227 634 c 0
 227 653 221 662 206 675 c 1
 214 682 221 687 227 692 c 1
 247 704 l 1
EndSplineSet
EndChar
StartChar: m
Encoding: 109 109 78
Width: 724
VWidth: 1467
Flags: W
HStem: -29 21<97 149.277 340 390.276 615 640> 471 40<329.047 404.793 573.536 648.838>
VStem: 186 53<425.75 445 427.269 483.751> 416 45<392 400.954 342.754 461.177> 589 50<-0.146708 44.4281> 660 46<352.517 461.27>
Fore
618 509 m 0
 671 509 706 479 706 401 c 0
 706 375 702 344 694 307 c 2
 644 72 l 2
 641 59 639 48 639 39 c 0
 639 23 645 12 660 -1 c 1
 653 -7 645 -12 640 -16 c 2
 622 -29 l 1
 608 -22 589 -0 589 21 c 0
 589 23 589 26 590 28 c 1
 644 283 l 2
 651 314 660 358 660 396 c 0
 660 437 649 470 611 470 c 0
 579 470 555 451 516 400 c 0
 461 328 433 223 417 144 c 2
 386 -1 l 1
 340 -1 l 1
 400 283 l 2
 407 316 416 360 416 396 c 0
 416 438 404 471 364 471 c 0
 325 471 286 430 237 329 c 0
 214 283 194 229 182 172 c 2
 145 -1 l 1
 97 -1 l 1
 181 395 l 2
 184 409 186 420 186 429 c 0
 186 449 178 460 164 474 c 1
 171 480 178 485 184 490 c 2
 204 503 l 1
 229 493 240 465 240 448 c 0
 240 446 239 444 239 442 c 1
 225 377 l 1
 290 509 346 511 369 511 c 0
 449 511 462 449 462 410 c 0
 462 403 461 397 461 392 c 1
 529 505 592 509 618 509 c 0
EndSplineSet
EndChar
StartChar: n
Encoding: 110 110 79
Width: 600
VWidth: 1467
Flags: W
HStem: -28 21<95 148.255 483.5 514> 468 47<364.777 500.926>
VStem: 184 55<426.515 474.513> 463 50<-0.766434 43.4965 25.5231 45.2909> 529 46<327.529 440.199>
Fore
452 515 m 256
 541 515 575 454 575 378 c 0
 575 355 572 332 567 308 c 2
 519 78 l 2
 515 61 513 49 513 39 c 0
 513 23 518 13 532 0 c 1
 526 -6 520 -11 514 -16 c 2
 496 -28 l 1
 471 -18 463 7 463 22 c 0
 463 25 464 27 464 29 c 1
 519 285 l 2
 526 317 529 344 529 366 c 0
 529 444 490 468 432 468 c 0
 319 468 232 331 184 188 c 2
 144 0 l 1
 95 0 l 1
 179 396 l 2
 183 412 184 424 184 434 c 0
 184 452 178 461 164 475 c 1
 179 487 192 497 204 505 c 1
 222 496 239 474 239 451 c 0
 239 449 239 446 238 443 c 2
 212 318 l 1
 249 401 329 515 452 515 c 256
EndSplineSet
EndChar
StartChar: o
Encoding: 111 111 80
Width: 604
VWidth: 1467
Flags: W
HStem: -13 36<215.503 397.047> 474 35<302.608 486.024>
VStem: 102 50<80.4466 168.336 159.125 177.546 177.546 188.625> 549 49<317.108 414.198>
Fore
562 172 m 2
 535 47 409 -13 297 -13 c 0
 197 -13 102 36 102 135 c 0
 102 146 103 159 106 172 c 2
 138 324 l 2
 165 450 293 509 405 509 c 0
 505 509 598 462 598 363 c 0
 598 351 597 338 594 324 c 2
 562 172 l 2
397 474 m 0
 302 474 204 413 181 307 c 2
 157 191 l 2
 154 177 152 164 152 151 c 0
 152 64 226 23 302 23 c 0
 384 23 496 75 521 191 c 2
 545 305 l 2
 548 319 549 331 549 343 c 0
 549 431 477 474 397 474 c 0
EndSplineSet
EndChar
StartChar: p
Encoding: 112 112 81
Width: 619
VWidth: 1467
Flags: W
HStem: -5 33<239.005 391.225> 477 37<346.958 494.901>
VStem: 186 54<450 483.393> 558 46<207.559 409.223>
Fore
604 331 m 0
 604 143 467 -5 301 -5 c 0
 254 -5 177 19 157 62 c 1
 104 -186 l 1
 55 -186 l 1
 181 406 l 2
 184 420 186 432 186 441 c 0
 186 461 178 471 164 484 c 1
 186 500 l 2
 194 506 200 510 206 514 c 1
 227 504 240 479 240 450 c 1
 297 490 344 514 446 514 c 0
 559 514 604 428 604 331 c 0
309 28 m 0
 426 28 558 153 558 315 c 0
 558 407 510 477 423 477 c 0
 388 477 324 476 229 402 c 1
 170 123 l 1
 192 67 263 28 309 28 c 0
EndSplineSet
EndChar
StartChar: q
Encoding: 113 113 82
Width: 611
VWidth: 1467
Flags: W
HStem: -213 21G<456 472.5> -5 33<232.762 386.687> 477 37<303.701 455.674>
VStem: 111 46<106.815 301.809> 432 53<-160.952 -133.511>
Fore
111 187 m 0
 111 317 208 514 379 514 c 0
 495 514 526 481 560 450 c 1
 562 463 580 497 619 514 c 1
 628 506 636 496 647 484 c 1
 613 462 607 447 598 406 c 2
 490 -104 l 2
 487 -120 485 -132 485 -142 c 0
 485 -160 491 -169 505 -182 c 1
 490 -196 480 -200 465 -213 c 1
 447 -204 432 -181 432 -157 c 2
 432 -150 l 1
 477 62 l 1
 436 18 358 -5 306 -5 c 0
 206 -5 111 55 111 187 c 0
386 477 m 0
 262 477 157 332 157 197 c 0
 157 84 236 28 310 28 c 0
 359 28 447 73 490 123 c 1
 549 402 l 1
 484 476 419 477 386 477 c 0
EndSplineSet
EndChar
StartChar: r
Encoding: 114 114 83
Width: 365
VWidth: 1467
Flags: W
HStem: -26 21G<85.5 108.5> 467 38<315.017 408>
VStem: 64 352<3 505 346.599 434.49>
Fore
385 505 m 2
 416 505 l 1
 408 467 l 1
 382 467 l 2
 268 467 210 312 188 209 c 2
 151 35 l 2
 148 20 126 -14 91 -26 c 1
 80 -18 72 -9 64 3 c 1
 99 26 104 38 113 81 c 2
 203 503 l 1
 247 503 l 1
 227 408 l 1
 279 479 331 505 385 505 c 2
EndSplineSet
EndChar
StartChar: s
Encoding: 115 115 84
Width: 490
VWidth: 1467
Flags: W
HStem: -18 41<149.794 347.705> 475 43<256.849 443.588>
VStem: 72 50<51.4814 97> 148 52<303.494 420.53> 413 49<82.7573 202.389> 462 44<411 455.984>
Fore
462 160 m 0
 462 53 359 -18 239 -18 c 0
 175 -18 72 3 72 97 c 1
 122 97 l 1
 126 38 176 23 253 23 c 0
 389 23 413 111 413 152 c 0
 413 205 367 231 278 244 c 0
 177 258 148 295 148 344 c 0
 148 457 252 518 355 518 c 0
 440 518 506 478 506 411 c 1
 462 411 l 1
 462 466 412 475 343 475 c 0
 230 475 200 401 200 351 c 0
 200 307 231 281 333 268 c 0
 408 258 462 229 462 160 c 0
EndSplineSet
EndChar
StartChar: t
Encoding: 116 116 85
Width: 360
VWidth: 1467
Flags: W
HStem: -3 38<201.196 308> 464 38<251 357>
VStem: 128 47<61.2698 156.215> 226 53<615.278 662.788>
Fore
182 179 m 2
 177 158 175 138 175 121 c 0
 175 67 202 35 290 35 c 2
 316 35 l 1
 308 -3 l 1
 284 -3 l 2
 171 -3 128 27 128 108 c 0
 128 135 133 167 141 205 c 2
 221 585 l 2
 224 599 226 610 226 619 c 0
 226 637 220 649 204 665 c 1
 219 676 232 686 245 694 c 1
 270 684 279 659 279 641 c 0
 279 638 279 635 278 632 c 2
 251 502 l 1
 365 502 l 1
 357 464 l 1
 243 464 l 1
 182 179 l 2
EndSplineSet
EndChar
StartChar: u
Encoding: 117 117 86
Width: 592
VWidth: 1467
Flags: W
HStem: -16 37<226.919 376.586> 482 20G<199.732 251 548.714 600>
VStem: 129 471<130 502 159.632 180.712> 129 51<68.9691 170.172 159.632 180.712 180.712 191.4>
Fore
302 21 m 0xd0
 361 21 461 72 487 194 c 2
 553 502 l 1
 600 502 l 1
 513 92 l 2
 510 77 508 65 508 56 c 0
 508 39 514 29 528 16 c 1
 521 10 514 5 508 0 c 1
 488 -12 l 1
 467 -1 456 22 456 48 c 1
 414 11 356 -16 292 -16 c 0
 206 -16 129 33 129 130 c 0xe0
 129 144 131 159 134 175 c 2
 204 503 l 1
 251 503 l 1
 185 194 l 2
 181 177 180 161 180 146 c 0
 180 70 225 21 302 21 c 0xd0
EndSplineSet
EndChar
StartChar: v
Encoding: 118 118 87
Width: 473
VWidth: 1467
Flags: W
HStem: -10 38<217.294 266.337> 482 20G<158 205.352 460.32 516>
VStem: 164 46<63.6893 133.708 133.708 136 136 319 319 331.5 331.5 502>
Fore
362 153 m 2
 324 76 301 -10 230 -10 c 256
 161 -10 169 52 164 136 c 2
 158 502 l 1
 205 502 l 1
 211 161 l 1
 211 155 l 2
 211 146 210 130 210 112 c 0
 210 74 214 28 238 28 c 0
 273 28 310 137 321 161 c 2
 469 502 l 1
 516 502 l 1
 362 153 l 2
EndSplineSet
EndChar
StartChar: w
Encoding: 119 119 88
Width: 682
VWidth: 1467
Flags: W
HStem: 0 21G<139 208 456 531.873> 483 20G<160.125 208 667.749 722>
VStem: 161 47<422.977 503>
Fore
391 266 m 1
 297 78 234 28 182 0 c 1
 139 0 l 1
 161 503 l 1
 208 503 l 1
 193 54 l 1
 266 96 345 254 417 393 c 1
 435 271 430 100 492 57 c 1
 676 503 l 1
 722 503 l 1
 524 0 l 1
 481 0 l 1
 431 30 407 67 391 266 c 1
EndSplineSet
EndChar
StartChar: x
Encoding: 120 120 89
Width: 536
VWidth: 1467
Flags: W
HStem: 0 21G<35 114.905 410.91 483> 482 20G<142 213.374 509.379 591>
Fore
202 502 m 1
 322 291 l 1
 529 502 l 1
 591 502 l 1
 342 251 l 1
 483 0 l 1
 422 0 l 1
 305 211 l 1
 95 0 l 1
 35 0 l 1
 282 251 l 1
 142 502 l 1
 202 502 l 1
EndSplineSet
EndChar
StartChar: y
Encoding: 121 121 90
Width: 592
VWidth: 1467
Flags: W
HStem: -226 40<237 362.003> -15 37<227.858 378.353> 483 20G<197.719 249>
VStem: 127 51<72.6311 170.625 161.617 179.632 179.632 192.35>
Fore
303 22 m 0
 373 22 461 87 478 166 c 2
 543 472 l 2
 547 487 575 521 604 533 c 1
 618 520 l 1
 631 503 l 1
 598 482 591 469 582 427 c 2
 487 -18 l 2
 459 -149 421 -226 254 -226 c 2
 229 -226 l 1
 237 -186 l 1
 265 -186 l 2
 390 -186 416 -127 435 -38 c 2
 453 48 l 1
 444 40 380 -15 290 -15 c 0
 201 -15 127 39 127 134 c 0
 127 147 129 161 132 176 c 2
 202 503 l 1
 249 503 l 1
 183 195 l 2
 180 179 178 164 178 150 c 0
 178 74 224 22 303 22 c 0
EndSplineSet
EndChar
StartChar: z
Encoding: 122 122 91
Width: 619
VWidth: 1467
Flags: W
HStem: -1 49<215.877 528> 456 47<199 552>
Fore
538 48 m 1
 528 -1 l 1
 224 -1 l 2
 154 -1 107 35 107 92 c 0
 107 99 108 108 110 116 c 1
 116 121 130 132 153 150 c 2
 510 422 l 2
 531 438 546 450 552 456 c 1
 189 456 l 1
 199 503 l 1
 635 503 l 1
 626 459 l 1
 170 104 l 1
 171 91 178 78 188 66 c 0
 199 54 220 48 250 48 c 2
 538 48 l 1
EndSplineSet
EndChar
StartChar: braceleft
Encoding: 123 123 92
Width: 255
VWidth: 1467
Flags: W
HStem: 715 35<323.645 395.359>
VStem: 66 344<310 750 365.669 421.338> 117 43<-31.8522 100.147>
Fore
226 -116 m 1xa0
 202 -110 117 -84 117 42 c 0xa0
 117 73 121 110 130 151 c 2
 153 260 l 1
 127 280 97 297 66 310 c 1
 102 322 141 343 175 362 c 1
 201 484 l 2
 219 568 246 631 283 672 c 0
 320 713 362 739 410 750 c 1xc0
 403 715 l 1
 333 694 272 626 243 490 c 2
 216 364 l 2
 212 342 161 320 139 313 c 1
 187 295 194 275 194 263 c 0
 194 260 193 257 193 255 c 1
 170 144 l 2
 163 111 160 82 160 58 c 0
 160 -40 209 -68 234 -78 c 1
 226 -116 l 1xa0
EndSplineSet
EndChar
StartChar: bar
Encoding: 124 124 93
Width: 231
VWidth: 1467
Flags: W
VStem: 43 258<-261 791 -261 -261>
Fore
43 -261 m 1
 266 791 l 1
 301 791 l 1
 78 -261 l 1
 43 -261 l 1
EndSplineSet
EndChar
StartChar: braceright
Encoding: 125 125 94
Width: 262
VWidth: 1467
Flags: W
HStem: -116 38<-20 52.6277> 715 35<157.394 212.091>
VStem: -28 342<-116 310 -6.33231 175.761> 225 41<532.428 672.136>
Fore
314 310 m 1xe0
 278 297 240 279 206 260 c 1
 183 151 l 2
 165 66 136 2 100 -38 c 0
 61 -80 20 -105 -28 -116 c 1xe0
 -20 -78 l 1
 17 -67 104 -27 141 144 c 2
 166 263 l 2
 170 283 217 304 244 313 c 1
 215 322 183 344 187 364 c 2
 215 492 l 2
 222 526 225 555 225 581 c 0
 225 658 196 700 149 715 c 1
 156 750 l 1
 239 730 266 666 266 587 c 0xd0
 266 555 262 520 254 484 c 2
 228 362 l 1
 268 332 295 317 314 310 c 1xe0
EndSplineSet
EndChar
StartChar: asciitilde
Encoding: 126 126 95
Width: 658
VWidth: 1467
Flags: W
HStem: 227 43<453.897 598.961> 332 42<185.983 313.216>
Fore
541 270 m 0
 588 270 634 311 647 374 c 1
 677 374 l 1
 675 364 l 2
 651 250 572 227 529 227 c 0
 404 227 324 332 245 332 c 0
 201 332 147 294 133 227 c 1
 104 227 l 1
 107 238 l 2
 128 339 206 374 253 374 c 0
 334 374 439 270 541 270 c 0
EndSplineSet
EndChar
StartChar: uni0E33.alt1
Encoding: 65539 -1 96
Width: 422
VWidth: 1467
Flags: W
HStem: 0 21<282 328.275> 547 38<198.233 315.55> 717 25<-166.312 -86.1308> 864 24<-151.6 -71.858>
VStem: -216 38<752.357 837.594> -60 36<768.918 852.764> 364 48<385.208 497.033>
Back
271 593 m 0
 301.667 593 329 588 353 578 c 128
 377 568 396.5 554.5 411.5 537.5 c 128
 426.5 520.5 437.167 500.333 443.5 477 c 128
 449.833 453.667 450.333 428.667 445 402 c 2
 361 12 l 1
 317 12 l 1
 393 373 l 2
 399.667 401 401.667 425.5 399 446.5 c 128
 396.333 467.5 389.667 487 379 505 c 0
 356.333 538.333 320 555 270 555 c 0
 249.333 555 229.333 551.333 210 544 c 1
 229 590 l 1
 237 592 244.167 593 250.5 593 c 128
 260 593 260 593 271 593 c 0
-173 819 m 2
 -149.667 819 -130.833 810.667 -116.5 794 c 128
 -102.167 777.333 -97 757.333 -101 734 c 0
 -106.333 710 -119.5 689.833 -140.5 673.5 c 128
 -161.5 657.167 -184.667 649 -210 649 c 2
 -211 649 l 2
 -236.333 649 -256 657.167 -270 673.5 c 128
 -284 689.833 -289 710 -285 734 c 0
 -279.667 758 -266.333 778.167 -245 794.5 c 128
 -223.667 810.833 -200.333 819 -175 819 c 2
 -173 819 l 2
-202 673 m 2
 -195.333 673 -188.333 675 -181 679 c 128
 -173.667 683 -166.833 688 -160.5 694 c 128
 -154.167 700 -149 706.667 -145 714 c 128
 -141 721.333 -138 728 -136 734 c 1
 -134.667 745.333 -138 757.833 -146 771.5 c 128
 -154 785.167 -164.667 793 -178 795 c 1
 -179 795 l 2
 -187 795 -194.833 792.833 -202.5 788.5 c 128
 -210.167 784.167 -217.167 779 -223.5 773 c 128
 -229.833 767 -235.167 760.333 -239.5 753 c 128
 -243.833 745.667 -246.667 739.333 -248 734 c 2
 -250 728 -250.167 721.5 -248.5 714.5 c 128
 -246.833 707.5 -243.833 701.167 -239.5 695.5 c 128
 -235.167 689.833 -230.167 684.667 -224.5 680 c 128
 -218.833 675.333 -212 673 -204 673 c 2
 -202 673 l 2
EndSplineSet
Refer: 261 3634 N 1 0 0 1 0 0 2
Refer: 284 3661 N 1 0 0 1 -103 0 2
EndChar
StartChar: quotedbl
Encoding: 34 34 97
Width: 318
VWidth: 1467
Flags: W
HStem: 525 207<207 223 339 355>
VStem: 178 45<531.243 556.83> 310 45<531.243 556.83>
Fore
355 525 m 1
 310 525 l 1
 339 732 l 1
 414 734 l 1
 355 525 l 1
223 525 m 1
 178 525 l 1
 207 732 l 1
 282 734 l 1
 223 525 l 1
EndSplineSet
EndChar
StartChar: exclam
Encoding: 33 33 98
Width: 227
VWidth: 1467
Flags: W
HStem: 0 139<100.138 152.285> 705 20G<228.123 301>
VStem: 72 108<28.25 110.312> 131 47<212.945 299.625> 232 69<651.452 725>
Fore
72 48 m 0xe8
 72 94 107 139 141 139 c 0
 166 139 180 119 180 91 c 0
 180 44 146 1 111 0 c 0
 86 1 72 21 72 48 c 0xe8
131 204 m 1xd8
 232 725 l 1
 301 725 l 1
 178 204 l 1
 131 204 l 1xd8
EndSplineSet
EndChar
StartChar: uni0E4E.alt1
Encoding: 65540 -1 99
Width: 0
VWidth: 1467
Flags: W
HStem: 664 44<-187.558 -109.944> 819 44<-114.812 -57> 970 44<-68.4711 85.5077>
VStem: -240 29<717.869 780.323> -150 31<869.044 931.757>
Back
51 967 m 1
 32 933 l 1
 -35.3333 945 -74.3333 925 -85 873 c 0
 -91.6667 843 -75 827.333 -35 826 c 1
 -50 803 l 1
 -126 795.667 -168 767 -176 717 c 0
 -180 686.333 -149.333 674.667 -84 682 c 1
 -100 651 l 1
 -200.667 636.333 -246.667 655.667 -238 709 c 0
 -223.333 775 -177.667 812.667 -101 822 c 1
 -130.333 835.333 -142.667 855.667 -138 883 c 0
 -117.333 959.667 -54.3333 987.667 51 967 c 1
EndSplineSet
Refer: 285 3662 N 1 0 0 1 -77 0 2
EndChar
StartChar: exclamdown
Encoding: 161 161 100
Width: 217
VWidth: 1467
Flags: W
HStem: 373 139<164.099 218>
VStem: 19 69<-196.897 -123.996> 137 108<401 484.068> 141 47<220.996 307>
Fore
19 -210 m 1xd0
 141 307 l 1
 188 307 l 1
 88 -210 l 1
 19 -210 l 1xd0
245 465 m 0xe0
 245 417 211 373 176 373 c 0
 151 373 137 393 137 421 c 0
 137 476 178 512 206 512 c 0
 220 512 245 502 245 465 c 0xe0
EndSplineSet
EndChar
StartChar: cent
Encoding: 162 162 101
Width: 626
VWidth: 1467
Flags: W
HStem: -18 21G<294 333.299> 91 35<253.329 317 359 401.275> 578 34<350.432 420 463 496.577> 700 20G<446.818 486>
VStem: 144 51<177.411 239.012 228.977 249.046 249.046 255.532> 606 43<497.364 548.457>
Fore
582 194 m 1
 532 122 433 91 352 89 c 1
 329 -18 l 1
 294 -18 l 1
 317 91 l 1
 211 97 144 154 144 219 c 0
 144 225 144 232 146 239 c 2
 193 461 l 2
 206 523 295 601 428 610 c 1
 451 720 l 1
 486 720 l 1
 463 612 l 1
 554 610 631 573 649 506 c 1
 606 490 l 1
 590 571 489 578 456 578 c 1
 359 123 l 1
 392 123 498 130 547 210 c 1
 582 194 l 1
420 575 m 1
 277 555 242 469 236 442 c 2
 197 258 l 2
 196 253 195 247 195 240 c 0
 195 197 224 136 325 126 c 1
 420 575 l 1
EndSplineSet
EndChar
StartChar: sterling
Encoding: 163 163 102
Width: 560
VWidth: 1467
Flags: W
HStem: -1 44<175 535> 321 41<168 288 328 498> 662 35<442.131 592.704>
VStem: 288 40<207.902 321 362 444.165>
Fore
527 662 m 0
 447 662 328 610 328 375 c 2
 328 362 l 1
 505 362 l 1
 498 321 l 1
 326 321 l 1
 324 268 315 126 175 43 c 1
 544 43 l 1
 535 -1 l 1
 91 -1 l 1
 98 31 l 1
 182 72 282 144 288 321 c 1
 160 321 l 1
 168 362 l 1
 288 362 l 1
 288 379 l 2
 288 407 290 451 299 494 c 0
 323 607 419 697 535 697 c 0
 584 697 611 689 652 669 c 1
 628 637 l 1
 593 654 559 662 527 662 c 0
EndSplineSet
EndChar
StartChar: currency
Encoding: 164 164 103
Width: 664
VWidth: 1467
Flags: W
HStem: 31 36<250.116 432.86> 518 36<337.027 521.177>
VStem: 141 48<136.279 212.395 203.461 221.328 221.328 232.625> 585 51<364.918 444.4>
Fore
599 216 m 2
 591 178 572 148 553 123 c 1
 601 60 l 1
 569 34 l 1
 523 94 l 1
 465 48 395 31 338 31 c 0
 286 31 219 45 176 89 c 1
 107 31 l 1
 85 57 l 1
 155 119 l 1
 146 137 141 158 141 180 c 0
 141 191 142 203 145 216 c 2
 177 368 l 2
 186 410 204 446 234 475 c 1
 194 528 l 1
 229 558 l 1
 270 503 l 1
 326 543 394 554 441 554 c 0
 493 554 559 541 600 497 c 1
 671 556 l 1
 693 528 l 1
 621 468 l 1
 631 448 636 428 636 408 c 0
 636 395 634 382 631 368 c 2
 599 216 l 2
219 351 m 2
 194 235 l 2
 191 221 189 207 189 195 c 0
 189 107 263 67 339 67 c 0
 421 67 529 119 558 235 c 2
 582 349 l 2
 584 361 585 373 585 384 c 0
 585 473 515 518 434 518 c 0
 338 518 241 458 219 351 c 2
EndSplineSet
EndChar
StartChar: yen
Encoding: 165 165 104
Width: 693
VWidth: 1467
Flags: W
HStem: -1 21G<318 369.186> 85 47<95 336 393 630> 251 47<130 371 428 665>
Fore
481 342 m 2
 465 323 447 308 428 298 c 1
 675 298 l 1
 665 251 l 1
 418 251 l 1
 393 132 l 1
 640 132 l 1
 630 85 l 1
 383 85 l 1
 365 -1 l 1
 318 -1 l 1
 336 85 l 1
 85 85 l 1
 95 132 l 1
 346 132 l 1
 371 251 l 1
 120 251 l 1
 130 298 l 1
 378 298 l 1
 357 311 356 331 347 346 c 0
 331 379 310 431 278 519 c 2
 216 700 l 1
 269 700 l 1
 310 567 331 536 387 371 c 0
 395 348 401 336 411 336 c 0
 419 336 429 346 446 365 c 0
 455 376 682 654 717 700 c 1
 767 700 l 1
 624 518 l 1
 481 342 l 2
EndSplineSet
EndChar
StartChar: brokenbar
Encoding: 166 166 105
Width: 224
VWidth: 1467
Flags: W
HStem: 695 20G<235.753 282>
VStem: 50 232<-180 715 -551.571 -180>
Fore
161 343 m 1
 240 715 l 1
 282 715 l 1
 203 343 l 1
 161 343 l 1
50 -180 m 1
 129 192 l 1
 171 192 l 1
 92 -180 l 1
 50 -180 l 1
EndSplineSet
EndChar
StartChar: section
Encoding: 167 167 106
Width: 544
VWidth: 1467
Flags: W
HStem: -63 41<160.281 359.807> 430 42<348.235 437.077> 672 41<319.158 501.743>
VStem: 86 50<1.97461 51> 162 51<258.942 376.318> 209 51<499.529 615.526> 426 50<34.8587 158.543> 474 48<277.5 397.909>
Fore
209 541 m 0xf4
 209 654 315 713 416 713 c 0
 494 713 568 677 568 606 c 1
 524 606 l 1
 523 624 520 672 412 672 c 0
 290 672 260 596 260 546 c 0
 260 513 279 486 348 471 c 1
 353 472 359 472 368 472 c 0
 436 472 522 447 522 355 c 0xf5
 522 311 505 242 418 202 c 1
 464 182 476 148 476 114 c 0
 476 1 364 -63 254 -63 c 0
 171 -63 84 -30 86 51 c 1
 136 51 l 1
 139 -8 184 -22 266 -22 c 0
 396 -22 426 55 426 105 c 0
 426 243 162 151 162 301 c 0xfa
 162 387 228 437 276 455 c 1
 235 470 209 493 209 541 c 0xf4
352 222 m 1
 460 235 474 316 474 349 c 0
 474 386 453 412 383 430 c 1
 356 430 l 2
 245 430 213 357 213 308 c 0xf9
 213 240 287 231 352 222 c 1
EndSplineSet
EndChar
StartChar: dieresis
Encoding: 168 168 107
Width: 316
VWidth: 1467
Flags: W
HStem: 587 109<167.978 219.125 356.606 406.552>
VStem: 151 85<602.33 679.414> 339 85<603.368 679.173>
Fore
339 624 m 0
 339 659 365 696 393 696 c 0
 413 696 424 678 424 657 c 0
 424 623 398 587 370 587 c 256
 356 587 339 596 339 624 c 0
151 624 m 0
 151 656 173 696 206 696 c 0
 226 696 236 679 236 657 c 0
 236 627 214 587 182 587 c 256
 168 587 151 596 151 624 c 0
EndSplineSet
EndChar
StartChar: copyright
Encoding: 169 169 108
Width: 831
VWidth: 1467
Flags: W
HStem: -20 37<283.017 552.742> 104 31<357.495 492.245> 566 32<440.678 613.572> 687 37<419.622 688.511>
VStem: 129 50<91.9121 176.055> 249 48<188.401 254.241> 687 41<489.892 539.024> 789 51<520.608 530.523 530.523 551.023 540.773 609.119>
Fore
211 537 m 2
 235 649 388 724 558 724 c 0
 713 724 843 668 843 565 c 0
 843 556 842 547 840 537 c 2
 761 167 l 2
 737 53 581 -20 400 -20 c 0
 253 -20 129 39 129 140 c 0
 129 149 130 158 132 167 c 2
 211 537 l 2
182 186 m 2
 180 176 179 166 179 157 c 0
 179 55 308 17 408 17 c 0
 570 17 697 85 719 186 c 2
 789 516 l 2
 791 526 792 536 792 545 c 0
 792 651 659 687 557 687 c 0
 407 687 274 619 252 516 c 2
 182 186 l 2
544 566 m 0
 430 566 349 498 336 437 c 2
 299 264 l 2
 298 258 297 251 297 245 c 0
 297 184 361 135 453 135 c 0
 481 135 583 142 631 219 c 1
 665 202 l 1
 597 106 466 104 441 104 c 0
 304 104 249 174 249 229 c 0
 249 234 250 240 251 245 c 2
 296 456 l 2
 312 532 423 598 546 598 c 0
 569 598 700 595 728 499 c 1
 687 483 l 1
 675 538 615 566 544 566 c 0
EndSplineSet
EndChar
StartChar: ordfeminine
Encoding: 170 170 109
Width: 369
VWidth: 1467
Flags: W
HStem: 276 33<153.223 269.429> 591 30<251.68 367.399>
VStem: 114 32<318.501 369.791> 385 35<518.532 572.197>
Fore
218 309 m 0
 291 309 332 347 350 359 c 1
 375 474 l 1
 294 421 281 447 190 415 c 0
 155 403 146 365 146 352 c 0
 146 332 160 309 218 309 c 0
393 301 m 1
 382 290 377 289 367 282 c 1
 352 287 344 303 344 321 c 1
 296 289 238 276 206 276 c 0
 170 276 114 290 114 349 c 0
 114 355 114 362 116 370 c 0
 140 486 300 438 372 503 c 0
 378 509 385 517 385 531 c 0
 385 553 370 591 296 591 c 0
 259 591 210 580 167 562 c 1
 180 597 l 1
 214 613 251 621 290 621 c 0
 347 621 420 604 420 541 c 0
 420 535 420 528 418 521 c 2
 382 351 l 2
 380 341 379 334 379 328 c 0
 379 315 384 309 393 301 c 1
EndSplineSet
EndChar
StartChar: guillemotleft
Encoding: 171 171 110
Width: 648
VWidth: 1467
Flags: W
HStem: 32 464<355 453 453 453>
Fore
158 266 m 1
 260 232 332 141 367 88 c 1
 355 32 l 1
 291 155 158 235 72 263 c 1
 201 305 348 391 453 496 c 1
 441 439 l 1
 299 319 216 284 158 266 c 1
383 266 m 1
 473 236 545 160 591 88 c 1
 579 32 l 1
 517 156 381 236 298 263 c 1
 396 295 549 368 677 496 c 1
 665 439 l 1
 529 323 441 284 383 266 c 1
EndSplineSet
EndChar
StartChar: logicalnot
Encoding: 172 172 111
Width: 629
VWidth: 1467
Flags: W
HStem: 370 38<122 620>
Fore
570 136 m 1
 620 370 l 1
 114 370 l 1
 122 408 l 1
 666 408 l 1
 608 136 l 1
 570 136 l 1
EndSplineSet
EndChar
StartChar: registered
Encoding: 174 174 112
Width: 538
VWidth: 1467
Flags: W
HStem: 204 36<227.251 423.724> 453 39<375 412.281> 599 29<404 454.805> 695 31<312.71 508.574>
VStem: 117 43<299.325 381.289 376.109 386.469 386.469 389 398 405.625> 424 33<344.375 359 361 371.331 371.331 374.287 372.809 435.625> 460 32<508.342 591.875> 567 42<524.375 536 541 547.867 547.867 554.547 551.207 637.79>
Fore
313 204 m 0
 194 204 117 270 117 356 c 0
 117 367 119 378 121 389 c 2
 153 541 l 2
 180 666 308 726 420 726 c 0
 521 726 613 678 613 580 c 0
 613 568 612 555 609 541 c 2
 577 389 l 2
 550 264 425 204 313 204 c 0
414 695 m 0
 315 695 219 639 193 534 c 2
 164 398 l 2
 161 386 160 375 160 365 c 0
 160 282 237 240 321 240 c 0
 413 240 515 290 536 392 c 2
 567 536 l 2
 570 548 571 560 571 570 c 0
 571 653 500 695 414 695 c 0
416 467 m 1
 479 483 492 530 492 563 c 0
 492 593 477 628 404 628 c 2
 305 628 l 1
 237 304 l 1
 270 304 l 1
 301 453 l 1
 329 453 l 2
 405 453 428 428 428 390 c 0
 428 380 426 370 424 359 c 2
 413 304 l 1
 445 304 l 1
 457 361 l 2
 459 372 461 384 461 395 c 0
 461 423 451 451 416 467 c 1
460 558 m 0
 460 504 424 496 375 492 c 2
 310 492 l 1
 332 599 l 1
 400 599 l 2
 447 599 460 580 460 558 c 0
EndSplineSet
EndChar
StartChar: macron
Encoding: 175 175 113
Width: 316
VWidth: 1467
Flags: W
HStem: 625 41<177 401 168 410 177 177>
Fore
168 625 m 1
 177 666 l 1
 410 666 l 1
 401 625 l 1
 168 625 l 1
EndSplineSet
EndChar
StartChar: degree
Encoding: 176 176 114
Width: 267
VWidth: 1467
Flags: W
HStem: 549 25<219.726 301.048> 695 24<235.048 315.133>
VStem: 171 38<583.458 668.985> 327 36<598.6 684.77>
Fore
171 618 m 0
 171 667 221 719 285 719 c 0
 331 719 363 689 363 650 c 0
 363 601 311 549 250 549 c 0
 204 549 171 579 171 618 c 0
279 695 m 0
 248 695 209 654 209 627 c 0
 209 603 229 574 256 574 c 0
 289 574 327 614 327 641 c 0
 327 664 306 695 279 695 c 0
EndSplineSet
EndChar
StartChar: plusminus
Encoding: 177 177 115
Width: 629
VWidth: 1467
Flags: W
HStem: 0 48<45 579> 335 46<116 353 407 650> 579 20G<404.78 453>
Fore
397 335 m 1
 349 110 l 1
 305 110 l 1
 353 335 l 1
 106 335 l 1
 116 381 l 1
 363 381 l 1
 409 599 l 1
 453 599 l 1
 407 381 l 1
 660 381 l 1
 650 335 l 1
 397 335 l 1
35 0 m 1
 45 48 l 1
 589 48 l 1
 579 0 l 1
 35 0 l 1
EndSplineSet
EndChar
StartChar: twosuperior
Encoding: 178 178 116
Width: 380
VWidth: 1467
Flags: W
HStem: 274 37<163 370> 662 39<257.82 401.949>
VStem: 410 41<563.36 653.437>
Fore
163 311 m 1
 378 311 l 1
 370 274 l 1
 99 274 l 1
 107 311 l 1
 259 438 l 2
 385 548 410 580 410 615 c 0
 410 644 387 662 355 662 c 2
 327 662 l 2
 281 662 208 614 188 600 c 1
 197 643 l 1
 227 665 282 701 340 701 c 0
 396 701 451 685 451 627 c 0
 451 547 370 486 254 386 c 2
 192 334 l 2
 174 319 164 311 163 311 c 1
EndSplineSet
EndChar
StartChar: threesuperior
Encoding: 179 179 117
Width: 377
VWidth: 1467
Flags: W
HStem: 273 427<278 328 226 316 402 427.302> 273 33<176.927 304.456> 483 39<217 231.754 231.754 246 303 328.302> 663 37<265.273 384.868>
VStem: 365 39<356.1 453.05> 393 39<571.193 651.461>
Fore
432 620 m 0x84
 432 544 363 515 303 503 c 1
 303 502 l 1
 388 502 404 455 404 421 c 0
 404 351 328 273 226 273 c 0x88
 209 273 142 276 115 292 c 1
 121 332 l 1
 159 314 181 306 212 306 c 0
 284 306 365 346 365 407 c 0x48
 365 436 344 483 228 483 c 2
 214 483 l 1
 217 522 l 1
 234 522 240 524 246 524 c 0
 293 524 393 551 393 619 c 0
 393 654 356 663 293 663 c 0x74
 274 663 264 663 196 643 c 1
 206 684 l 1
 251 693 278 700 316 700 c 0
 367 700 432 683 432 620 c 0x84
EndSplineSet
EndChar
StartChar: acute
Encoding: 180 180 118
Width: 311
VWidth: 1467
Flags: W
HStem: 518 207<251 293 293 293>
Fore
251 518 m 1
 205 518 l 1
 293 725 l 1
 368 725 l 1
 251 518 l 1
EndSplineSet
EndChar
StartChar: mu
Encoding: 181 181 119
AltUni2: 0003bc.ffffffff.0
Width: 619
VWidth: 1467
Flags: W
HStem: -4 36<220.067 375.024> 489 20G<200.762 244 565.793 611>
Fore
296 32 m 0
 375 32 485 110 505 200 c 2
 570 509 l 1
 611 509 l 1
 530 125 l 2
 525 104 521 84 517 62 c 2
 506 0 l 1
 469 0 l 1
 487 98 l 1
 466 74 389 -4 275 -4 c 0
 206 -4 172 28 151 72 c 1
 84 -246 l 1
 45 -246 l 1
 205 509 l 1
 244 509 l 1
 183 219 l 2
 178 198 176 177 176 158 c 0
 176 86 210 32 296 32 c 0
EndSplineSet
EndChar
StartChar: paragraph
Encoding: 182 182 120
Width: 560
VWidth: 1467
Flags: W
HStem: 663 50<461 574>
VStem: 140 484<416 713 416 416>
Fore
140 416 m 0
 140 561 300 713 431 713 c 2
 624 713 l 1
 461 -51 l 1
 422 -51 l 1
 574 663 l 1
 461 663 l 1
 309 -51 l 1
 268 -51 l 1
 350 335 l 1
 323 320 284 305 244 305 c 0
 173 305 140 354 140 416 c 0
EndSplineSet
EndChar
StartChar: periodcentered
Encoding: 183 183 121
Width: 337
VWidth: 1467
Flags: W
HStem: 252 190<192.246 282.654>
VStem: 139 195<303.906 388.315>
Fore
139 327 m 0
 139 389 200 442 257 442 c 0
 302 442 334 411 334 366 c 0
 334 312 284 252 217 252 c 0
 174 252 139 283 139 327 c 0
EndSplineSet
EndChar
StartChar: cedilla
Encoding: 184 184 122
Width: 313
VWidth: 1467
Flags: W
HStem: -203 32<34.7328 135.801> -79 26<127 133.5 105.963 167.622> -19 20G<141 159.741>
VStem: 177 27<-136.653 -82.0322>
Fore
57 -171 m 0
 100 -171 177 -141 177 -103 c 0
 177 -84 153 -79 133 -79 c 0
 92 -79 84 -86 60 -97 c 1
 64 -90 62 -93 67 -88 c 2
 141 0 l 1
 179 1 l 1
 127 -53 l 1
 131 -53 136 -52 140 -52 c 0
 175 -52 204 -68 204 -100 c 0
 204 -159 122 -203 62 -203 c 0
 44 -203 28 -200 15 -192 c 1
 28 -164 l 1
 36 -168 46 -171 57 -171 c 0
EndSplineSet
EndChar
StartChar: onesuperior
Encoding: 185 185 123
Width: 242
VWidth: 1467
Flags: W
HStem: 280 411<214 276 276 276>
Fore
261 663 m 1
 215 638 l 1
 220 663 l 1
 276 691 l 1
 301 691 l 1
 214 280 l 1
 180 280 l 1
 261 663 l 1
EndSplineSet
EndChar
StartChar: ordmasculine
Encoding: 186 186 124
Width: 369
VWidth: 1467
Flags: W
HStem: 267 31<167.666 315.367> 594 28<222.208 369.582>
VStem: 102 36<326.323 399.079> 398 38<480.455 481 481 494.023 494.023 509.523 501.773 563.259>
Fore
105 393 m 2
 127 497 l 2
 144 581 231 622 308 622 c 0
 376 622 439 589 439 522 c 0
 439 514 438 506 436 497 c 2
 414 393 l 2
 395 308 308 267 235 267 c 0
 167 267 102 301 102 368 c 0
 102 376 103 384 105 393 c 2
300 594 m 0
 247 594 175 563 157 481 c 2
 141 406 l 2
 139 397 138 389 138 381 c 0
 138 327 182 298 237 298 c 0
 284 298 365 325 382 406 c 2
 398 481 l 2
 400 490 401 499 401 507 c 0
 401 568 349 594 300 594 c 0
EndSplineSet
EndChar
StartChar: guillemotright
Encoding: 187 187 125
Width: 432
VWidth: 1467
Flags: W
HStem: 72 390<245 265 265 265>
VStem: 27 427<72 266 72 72>
Fore
245 72 m 1
 184 72 l 1
 390 266 l 1
 265 462 l 1
 328 462 l 1
 454 266 l 1
 245 72 l 1
88 72 m 1
 27 72 l 1
 233 266 l 1
 108 462 l 1
 171 462 l 1
 297 266 l 1
 88 72 l 1
EndSplineSet
EndChar
StartChar: onequarter
Encoding: 188 188 126
Width: 802
VWidth: 1467
Flags: W
HStem: -15 21G<120 173.236> 117 31<525 669 707 750>
Fore
271 662 m 1
 224 637 l 1
 230 662 l 1
 285 690 l 1
 311 690 l 1
 223 279 l 1
 189 279 l 1
 271 662 l 1
735 697 m 1
 157 -15 l 1
 120 -15 l 1
 697 697 l 1
 735 697 l 1
764 414 m 1
 707 148 l 1
 756 148 l 1
 750 117 l 1
 701 117 l 1
 677 3 l 1
 645 3 l 1
 669 117 l 1
 480 117 l 1
 485 139 l 1
 722 414 l 1
 764 414 l 1
675 148 m 1
 725 380 l 1
 525 148 l 1
 675 148 l 1
EndSplineSet
LCarets2: 2 0 0 
Ligature2: "'frac' Diagonal Fractions in Latin lookup 0 subtable" one fraction four
Ligature2: "'frac' Diagonal Fractions in Latin lookup 0 subtable" one slash four
EndChar
StartChar: onehalf
Encoding: 189 189 127
Width: 884
VWidth: 1467
Flags: W
HStem: 3 37<566 774> 391 39<685.514 803.427>
VStem: 811 42<293.654 381.825>
Fore
279 646 m 1
 233 621 l 1
 238 646 l 1
 293 673 l 1
 319 673 l 1
 232 263 l 1
 198 263 l 1
 279 646 l 1
743 681 m 1
 165 -31 l 1
 128 -31 l 1
 705 681 l 1
 743 681 l 1
566 40 m 1
 782 40 l 1
 774 3 l 1
 503 3 l 1
 511 40 l 1
 662 168 l 2
 701 202 811 287 811 344 c 0
 811 366 799 391 744 391 c 0
 716 391 672 385 591 329 c 1
 600 371 l 1
 629 392 685 430 742 430 c 0
 822 430 853 402 853 356 c 0
 853 291 807 239 656 114 c 2
 595 62 l 2
 576 48 567 40 566 40 c 1
EndSplineSet
LCarets2: 2 0 0 
Ligature2: "'frac' Diagonal Fractions in Latin lookup 0 subtable" one fraction two
Ligature2: "'frac' Diagonal Fractions in Latin lookup 0 subtable" one slash two
EndChar
StartChar: threequarters
Encoding: 190 190 128
Width: 802
VWidth: 1467
Flags: W
HStem: -15 21G<191 243.236> 117 31<525 669 707 750> 273 31<178.263 317.676> 480 42<224 238.754 238.754 311 311 336.556> 663 37<272.784 395.116>
VStem: 376 36<355.982 454.511> 402 37<568.998 652.368>
Fore
805 697 m 1xf8
 227 -15 l 1
 191 -15 l 1
 767 697 l 1
 805 697 l 1xf8
764 414 m 1
 707 148 l 1
 756 148 l 1
 750 117 l 1
 701 117 l 1
 677 3 l 1
 645 3 l 1
 669 117 l 1
 480 117 l 1
 485 139 l 1
 722 414 l 1
 764 414 l 1
675 148 m 1
 725 380 l 1
 525 148 l 1
 675 148 l 1
222 304 m 0
 355 304 376 388 376 415 c 0xfc
 376 445 351 480 231 480 c 2
 215 480 l 1
 224 522 l 1
 241 522 247 524 253 524 c 0
 371 524 402 586 402 620 c 0
 402 654 364 663 307 663 c 0
 267 663 255 657 203 643 c 1
 214 684 l 1
 276 696 288 700 318 700 c 0
 374 700 439 686 439 621 c 0xfa
 439 544 372 515 311 503 c 1
 311 502 l 1
 400 502 412 449 412 421 c 0xfc
 412 358 343 273 231 273 c 0
 209 273 153 277 122 292 c 1
 126 323 l 1
 168 304 192 304 222 304 c 0
EndSplineSet
LCarets2: 2 0 0 
Ligature2: "'frac' Diagonal Fractions in Latin lookup 0 subtable" three fraction four
Ligature2: "'frac' Diagonal Fractions in Latin lookup 0 subtable" three slash four
EndChar
StartChar: questiondown
Encoding: 191 191 129
Width: 544
VWidth: 1467
Flags: W
HStem: -223 37<144.942 275.598> 36 26<369.944 423.971> 385 115<356.673 408.897>
VStem: 65 43<-148.977 -0.803123> 278 33<-131.219 -37.1442> 338 89<402.283 482.624> 425 35<-72.5073 35.7482>
Fore
278 -104 m 0xfa
 278 -34 348 62 408 62 c 0
 445 62 460 32 460 -3 c 0
 460 -98 348 -223 208 -223 c 0
 128 -223 65 -167 65 -82 c 0
 65 55 193 116 223 138 c 0
 311 199 327 261 339 323 c 1
 376 321 l 1
 376 297 358 245 335 200 c 0
 318 170 281 139 254 119 c 0
 228 99 108 36 108 -81 c 0
 108 -141 145 -186 215 -186 c 0
 249 -186 275 -178 304 -164 c 1
 286 -154 278 -130 278 -104 c 0xfa
333 -146 m 0
 365 -146 425 -61 425 3 c 0
 425 25 417 36 405 36 c 0
 373 36 311 -48 311 -109 c 0
 311 -130 318 -146 333 -146 c 0
427 463 m 0xfc
 427 426 405 385 371 385 c 0
 350 385 338 401 338 425 c 0
 338 458 361 500 395 500 c 0
 409 500 427 492 427 463 c 0xfc
EndSplineSet
EndChar
StartChar: Aring
Encoding: 197 197 134
Width: 676
VWidth: 1467
Flags: W
HStem: 1 21G<60 115.52 564.039 610> 230 40<233 551> 678 48<457.245 516.339> 907 26<489.821 540.648>
VStem: 412 40<727.898 862.548> 554 36<770.999 903.191> 565 45<1 73.8636>
Fore
593 856 m 0xfc
 593 792 564 745 525 717 c 1
 581 697 590 634 590 546 c 2xfc
 610 1 l 1
 565 1 l 1xfa
 554 230 l 1
 215 230 l 1
 106 1 l 1
 60 1 l 1
 312 546 l 2
 370 681 410 701 441 715 c 1
 431 723 412 744 412 784 c 0
 412 856 469 933 530 933 c 0
 557 933 593 915 593 856 c 0xfc
482 726 m 0
 511 726 555 786 555 853 c 0
 555 898 529 907 522 907 c 0
 493 907 452 842 452 781 c 0
 452 750 463 726 482 726 c 0
551 270 m 1
 541 521 l 2
 535 603 538 678 482 678 c 0
 415 678 377 565 351 521 c 2
 233 270 l 1
 551 270 l 1
EndSplineSet
EndChar
StartChar: AE
Encoding: 198 198 135
Width: 1115
VWidth: 1467
Flags: W
HStem: -10 36<721.58 1022> 219 39<297 607> 317 40<686 979> 671 38<602.709 681.353 846.096 1167>
VStem: 687 50<626 664.954>
Fore
737 626 m 1
 766 658 816 704 975 709 c 2
 1175 709 l 1
 1167 671 l 1
 965 671 l 2
 873 671 760 646 716 489 c 2
 686 357 l 1
 988 357 l 1
 979 317 l 1
 677 317 l 1
 658 226 l 2
 653 204 651 184 651 167 c 0
 651 57 737 30 828 26 c 2
 1030 26 l 1
 1022 -10 l 1
 822 -10 l 2
 673 -8 640 30 621 67 c 1
 605 -10 l 1
 558 -10 l 1
 607 219 l 1
 268 219 l 1
 101 -10 l 1
 55 -10 l 1
 496 601 l 2
 549 672 605 715 661 715 c 0
 717 715 738 676 737 626 c 1
680 566 m 2
 685 589 687 607 687 621 c 0
 687 656 673 667 652 667 c 0
 602 667 564 615 523 564 c 2
 297 258 l 1
 615 258 l 1
 680 566 l 2
EndSplineSet
EndChar
StartChar: Eth
Encoding: 208 208 145
Width: 683
VWidth: 1467
Flags: W
HStem: -4 35<149 171.023 171.023 376.022> 327 40<76 168 220 422> 676 37<286 479.672>
VStem: 625 46<410.932 558.283>
Fore
250 713 m 1
 492 713 671 686 671 469 c 0
 671 435 666 396 657 351 c 0
 596 67 439 -4 217 -4 c 2
 97 -4 l 1
 168 327 l 1
 68 327 l 1
 76 367 l 1
 176 367 l 1
 250 713 l 1
613 355 m 0
 621 393 625 427 625 458 c 0
 625 617 515 676 307 676 c 2
 286 676 l 1
 220 367 l 1
 430 367 l 1
 422 327 l 1
 212 327 l 1
 149 32 l 1
 164 31 179 31 193 31 c 0
 466 31 565 126 613 355 c 0
EndSplineSet
EndChar
StartChar: multiply
Encoding: 215 215 152
Width: 629
VWidth: 1467
Flags: W
HStem: 0 21G<56.8571 128 533.066 569.571>
Fore
549 0 m 1
 357 241 l 1
 357 241 178 93 78 0 c 1
 41 35 l 1
 329 277 l 1
 145 521 l 1
 189 556 l 1
 373 314 l 1
 659 556 l 1
 688 521 l 1
 401 277 l 1
 585 35 l 1
 549 0 l 1
EndSplineSet
EndChar
StartChar: Oslash
Encoding: 216 216 153
Width: 696
VWidth: 1467
Flags: W
HStem: -7 29<275.011 446.255> 686 29<407.239 565.743>
VStem: 156 39<106.014 365.925> 646 41<439.85 576.711>
Fore
156 213 m 0
 156 319 225 715 500 715 c 0
 536 715 596 709 628 676 c 1
 668 735 l 1
 713 735 l 1
 650 646 l 1
 664 620 687 586 687 500 c 0
 687 458 682 402 666 329 c 0
 611 70 454 -7 360 -7 c 0
 309 -7 262 12 227 40 c 1
 178 -31 l 1
 131 -31 l 1
 200 67 l 1
 166 112 156 163 156 213 c 0
501 686 m 0
 256 686 195 313 195 209 c 0
 195 152 208 119 222 97 c 1
 605 646 l 1
 584 672 552 686 501 686 c 0
363 22 m 0
 441 22 571 80 622 322 c 0
 639 402 646 457 646 499 c 0
 646 546 637 577 625 609 c 1
 246 66 l 1
 274 37 319 22 363 22 c 0
EndSplineSet
EndChar
StartChar: Thorn
Encoding: 222 222 159
Width: 622
VWidth: 1467
Flags: W
HStem: 1 21G<97 149.342> 89 38<276.161 428.616> 575 34<346.128 505.193>
VStem: 578 47<299.661 500.769>
Fore
625 414 m 0
 625 262 507 89 356 89 c 0
 255 89 224 115 178 153 c 1
 145 1 l 1
 97 1 l 1
 245 697 l 1
 293 697 l 1
 260 541 l 1
 304 590 401 609 438 609 c 0
 528 609 625 547 625 414 c 0
341 127 m 0
 497 127 578 297 578 410 c 0
 578 521 502 575 429 575 c 0
 375 575 292 534 247 481 c 1
 188 202 l 1
 249 130 308 127 341 127 c 0
EndSplineSet
EndChar
StartChar: uni00DF
Encoding: 223 223 160
Width: 715
VWidth: 1467
Flags: W
HStem: -141 38<-28 89.5281> -19 38<296 521.221> 389 41<421 494 542 548.739> 656 37<370.791 614.107>
VStem: 640 48<144.356 310.488 505.273 630.585>
Fore
684 585 m 0
 684 491 604 425 542 408 c 1
 627 388 688 337 688 246 c 0
 688 158 631 -19 402 -19 c 2
 288 -19 l 1
 296 19 l 1
 421 19 l 2
 578 19 640 151 640 235 c 0
 640 329 555 381 486 389 c 2
 413 389 l 1
 421 430 l 1
 494 430 l 2
 555 430 640 494 640 573 c 0
 640 620 609 656 556 656 c 2
 440 656 l 2
 379 656 329 625 304 508 c 2
 210 67 l 2
 174 -104 129 -141 -11 -141 c 2
 -36 -141 l 1
 -28 -103 l 1
 -3 -103 l 2
 120 -103 144 -36 166 65 c 2
 261 512 l 2
 289 644 352 693 437 693 c 2
 565 693 l 2
 644 693 684 647 684 585 c 0
EndSplineSet
EndChar
StartChar: ae
Encoding: 230 230 167
Width: 962
VWidth: 1467
Flags: W
HStem: 3 40<167.489 360.108 581.799 751.931> 238 39<543 880.569> 494 38<247.183 472.325 666.907 860.781>
VStem: 97 45<68.2114 183.508> 916 44<312.016 353 353 365.891 365.891 366 365.945 442.479>
Fore
377 532 m 0
 447 532 537 511 561 452 c 1
 610 498 689 531 768 531 c 0
 881 531 964 474 964 386 c 0
 964 375 962 364 960 353 c 0
 938 251 879 238 721 238 c 2
 535 238 l 1
 517 156 l 1
 518 140 531 43 684 43 c 0
 763 43 833 71 869 129 c 1
 906 113 l 1
 833 11 690 8 667 8 c 0
 522 8 487 88 486 92 c 1
 486 92 367 3 244 3 c 0
 189 3 97 22 97 112 c 0
 97 215 174 265 301 284 c 0
 432 304 516 330 516 398 c 0
 516 440 486 494 377 494 c 0
 302 494 226 468 181 447 c 1
 200 494 l 1
 252 517 312 532 377 532 c 0
769 496 m 0
 668 496 590 435 565 383 c 1
 543 277 l 1
 768 277 l 2
 843 277 901 282 916 355 c 0
 918 362 918 370 918 377 c 0
 918 435 871 496 769 496 c 0
262 43 m 0
 359 43 416 93 462 122 c 1
 503 313 l 1
 434 269 399 267 308 251 c 0
 172 226 142 171 142 118 c 0
 142 58 196 43 262 43 c 0
EndSplineSet
EndChar
StartChar: eth
Encoding: 240 240 177
Width: 664
VWidth: 1467
Flags: W
HStem: -9 30<238.97 443.084> 370 36<276.115 488.681> 684 20G<399 469>
VStem: 122 44<89.7132 260.83> 580 45<154.253 339.737>
Fore
625 272 m 0
 625 42 448 -9 324 -9 c 0
 187 -9 122 70 122 164 c 0
 122 243 172 406 403 406 c 0
 474 406 532 381 569 357 c 1
 560 398 526 490 506 530 c 1
 354 468 l 1
 346 509 l 1
 487 565 l 1
 463 614 432 660 399 704 c 1
 458 704 l 1
 480 668 502 632 529 582 c 1
 665 637 l 1
 674 597 l 1
 547 546 l 1
 558 515 625 408 625 272 c 0
373 370 m 0
 208 370 166 243 166 171 c 0
 166 101 202 21 340 21 c 0
 460 21 580 99 580 262 c 0
 580 270 580 277 579 285 c 1
 530 347 439 370 373 370 c 0
EndSplineSet
EndChar
StartChar: divide
Encoding: 247 247 184
Width: 629
VWidth: 1467
Flags: W
HStem: 51 115<309.715 361.016> 261 44<100 636> 403 115<384.715 435.304>
VStem: 291 89<69.8774 148.764> 366 89<421.562 500.764>
Fore
90 261 m 1xe0
 100 305 l 1
 646 305 l 1
 636 261 l 1
 90 261 l 1xe0
291 89 m 0xf0
 291 129 317 166 347 166 c 0
 368 166 380 149 380 126 c 0
 380 90 354 51 323 51 c 0
 311 51 291 57 291 89 c 0xf0
366 441 m 0xe8
 366 481 392 518 422 518 c 0
 443 518 455 501 455 478 c 0
 455 448 432 403 398 403 c 0
 386 403 366 409 366 441 c 0xe8
EndSplineSet
EndChar
StartChar: oslash
Encoding: 248 248 185
Width: 625
VWidth: 1467
Flags: W
HStem: -10 37<273.368 415.382> 477 36<319.009 458.449>
VStem: 120 49<83.5733 169.533 158.5 180.567 180.567 191.121> 561 50<310.879 320.652 320.652 340.547 330.599 418.608>
Fore
184 25 m 1
 151 45 120 86 120 142 c 0
 120 153 121 164 123 175 c 2
 156 327 l 2
 182 450 307 513 421 513 c 0
 454 513 486 508 515 497 c 1
 561 565 l 1
 596 544 l 1
 549 480 l 1
 576 465 615 432 615 366 c 0
 615 354 614 341 611 327 c 2
 578 175 l 2
 552 51 422 -10 311 -10 c 0
 277 -10 245 -5 217 7 c 1
 173 -56 l 1
 139 -40 l 1
 184 25 l 1
198 310 m 2
 173 194 l 2
 170 180 169 167 169 156 c 0
 169 102 197 73 209 62 c 1
 490 462 l 1
 466 472 440 477 414 477 c 0
 320 477 221 417 198 310 c 2
319 27 m 0
 419 27 516 94 537 194 c 2
 561 308 l 2
 564 321 565 333 565 345 c 0
 565 384 550 419 522 442 c 1
 241 43 l 1
 260 33 288 27 319 27 c 0
EndSplineSet
EndChar
StartChar: thorn
Encoding: 254 254 191
Width: 638
VWidth: 1467
Flags: W
HStem: -213 21G<53 106.259> -13 37<256.303 408.689> 472 34<355.427 485.154>
VStem: 558 46<202.501 396.219>
Fore
604 309 m 0
 604 192 515 -13 326 -13 c 0
 219 -13 182 31 158 50 c 1
 102 -213 l 1
 53 -213 l 1
 246 694 l 1
 295 694 l 1
 240 439 l 1
 284 488 387 506 417 506 c 0
 530 506 604 424 604 309 c 0
320 24 m 0
 472 24 558 193 558 306 c 0
 558 405 495 472 410 472 c 0
 362 472 276 439 228 379 c 1
 168 100 l 1
 226 27 289 24 320 24 c 0
EndSplineSet
EndChar
StartChar: Lslash
Encoding: 321 321 193
Width: 517
VWidth: 1467
Flags: W
HStem: 0 50<153 491> 482 20G<368.346 397.636> 690 20G<229.747 293>
VStem: 38 464<50 241 343.313 649.932>
Fore
83 0 m 1
 149 310 l 1
 38 241 l 1
 49 293 l 1
 160 362 l 1
 234 710 l 1
 293 710 l 1
 227 398 l 1
 402 502 l 1
 390 447 l 1
 215 345 l 1
 153 50 l 1
 502 50 l 1
 491 0 l 1
 83 0 l 1
EndSplineSet
EndChar
StartChar: lslash
Encoding: 322 322 194
Width: 237
VWidth: 1467
Flags: W
HStem: 0 21G<83 145.23> 482 20G<314.5 318.714>
VStem: 69 254<280 502 743.885 1052.95>
Fore
222 383 m 1
 141 0 l 1
 83 0 l 1
 156 343 l 1
 69 280 l 1
 80 336 l 1
 167 396 l 1
 244 756 l 1
 302 756 l 1
 235 442 l 1
 305 490 306 489 323 502 c 1
 311 446 l 1
 222 383 l 1
EndSplineSet
EndChar
StartChar: OE
Encoding: 338 338 195
Width: 1016
VWidth: 1467
Flags: W
HStem: -12 37<215.687 446.971 630.023 934> 315 40<599 893> 669 38<758.263 1079> 679 34<350.916 577.608>
VStem: 105 51<76.2952 137.75 128 147.5 147.5 154.411> 518 48<98.656 205.876>
Fore
664 638 m 1xdc
 696 670 743 705 888 707 c 2
 1087 707 l 1
 1079 669 l 1
 877 669 l 2xec
 708 669 646 572 622 460 c 2
 599 355 l 1
 901 355 l 1
 893 315 l 1
 591 315 l 1
 574 235 l 2
 569 212 566 189 566 167 c 0
 566 87 607 25 740 25 c 2
 942 25 l 1
 934 -12 l 1
 735 -12 l 2
 591 -8 560 27 541 59 c 1
 475 1 384 -16 315 -16 c 0
 170 -16 105 53 105 118 c 0
 105 125 106 131 107 138 c 2
 197 560 l 2
 216 647 334 713 471 713 c 0
 558 713 630 686 664 638 c 1xdc
633 602 m 1
 613 657 538 679 466 679 c 0xdc
 300 679 247 574 240 541 c 2
 158 157 l 2
 157 151 156 144 156 138 c 0
 156 85 198 19 329 19 c 0
 401 19 479 41 525 95 c 1
 520 112 518 131 518 151 c 0
 518 181 522 214 530 251 c 2
 572 445 l 2
 585 509 604 561 633 602 c 1
EndSplineSet
EndChar
StartChar: oe
Encoding: 339 339 196
Width: 1009
VWidth: 1467
Flags: W
HStem: -14 36<214.862 397.652 622.32 762.262> 216 39<582 923.532> 472 36<300.749 484.856 706.776 902.147>
VStem: 104 49<79.7248 165.267 154.523 176.012 176.012 186.227> 960 45<332.861 420.058>
Fore
1001 329 m 0
 980 231 924 216 762 216 c 2
 574 216 l 1
 561 156 l 2
 560 150 559 143 559 137 c 0
 559 84 603 21 724 21 c 0
 761 21 858 26 911 107 c 1
 946 91 l 1
 874 -11 730 -14 707 -14 c 0
 583 -14 531 46 517 78 c 1
 464 16 375 -14 298 -14 c 0
 163 -14 104 64 104 139 c 0
 104 150 105 160 107 170 c 2
 140 323 l 2
 167 451 298 508 407 508 c 0
 485 508 560 478 588 415 c 1
 611 440 688 509 808 509 c 0
 922 509 1005 452 1005 362 c 0
 1005 352 1003 341 1001 329 c 0
810 474 m 0
 697 474 612 397 600 339 c 2
 582 255 l 1
 796 255 l 2
 885 255 942 258 958 333 c 0
 960 341 960 348 960 356 c 0
 960 418 907 474 810 474 c 0
396 472 m 0
 315 472 207 425 182 305 c 2
 157 189 l 2
 154 176 153 163 153 151 c 0
 153 69 217 22 301 22 c 0
 395 22 496 81 521 186 c 2
 546 307 l 2
 548 319 550 331 550 342 c 0
 550 426 481 472 396 472 c 0
EndSplineSet
EndChar
StartChar: florin
Encoding: 402 402 202
Width: 431
VWidth: 1467
Flags: W
HStem: 377 35<125 212 271 398> 662 38<391.785 521>
Fore
533 700 m 1
 521 662 l 1
 494 662 l 2
 372 662 334 605 300 499 c 2
 271 412 l 1
 406 412 l 1
 398 377 l 1
 259 377 l 1
 120 -28 l 2
 113 -45 84 -79 51 -89 c 1
 38 -77 l 2
 33 -72 29 -67 25 -60 c 1
 56 -40 76 -22 90 18 c 2
 212 377 l 1
 117 377 l 1
 125 412 l 1
 224 412 l 1
 252 493 l 2
 302 645 357 700 508 700 c 2
 533 700 l 1
EndSplineSet
EndChar
StartChar: circumflex
Encoding: 710 710 203
Width: 490
VWidth: 1467
Flags: W
HStem: 697 160<308 420 420 420>
VStem: 245 283<697 697 697 697>
Fore
407 789 m 1
 393 768 346 722 308 697 c 1
 245 697 l 1
 282 718 384 793 420 857 c 1
 433 800 486 736 528 697 c 1
 465 697 l 1
 458 704 429 727 407 789 c 1
EndSplineSet
EndChar
StartChar: caron
Encoding: 711 711 204
Width: 490
VWidth: 1467
Flags: W
HStem: 698 160<387 513 513 513>
VStem: 279 283<858 858 858 858>
Fore
398 753 m 1
 405 768 473 836 513 858 c 1
 562 858 l 1
 524 838 420 759 387 698 c 1
 374 756 322 819 279 858 c 1
 326 858 l 1
 362 829 394 778 398 753 c 1
EndSplineSet
EndChar
StartChar: breve
Encoding: 728 728 205
Width: 440
VWidth: 1467
Flags: W
HStem: 616 41<292.83 424.114>
VStem: 218 47<683.775 761.916 760.477 763.356 763.356 775> 491 45<696.925 775>
Fore
354 657 m 256
 417 657 476 707 491 775 c 1
 536 775 l 1
 519 696 441 616 345 616 c 0
 269 616 218 671 218 741 c 0
 218 752 219 763 222 775 c 1
 268 775 l 1
 266 765 265 755 265 746 c 0
 265 695 297 657 354 657 c 256
EndSplineSet
EndChar
StartChar: dotaccent
Encoding: 729 729 206
Width: 231
VWidth: 1467
Flags: W
HStem: 621 115<227.673 279.897>
VStem: 209 89<638.082 717.962>
Fore
209 660 m 0
 209 693 232 736 266 736 c 0
 287 736 298 719 298 696 c 0
 298 662 276 621 242 621 c 0
 228 621 209 631 209 660 c 0
EndSplineSet
EndChar
StartChar: ring
Encoding: 730 730 207
Width: 403
VWidth: 1467
Flags: W
HStem: 612 25<298.227 378.489> 759 23<312.932 392.563>
VStem: 249 37<647.485 732.95> 404 36<661.732 748.745>
Fore
249 681 m 0
 249 736 305 782 363 782 c 0
 409 782 440 753 440 714 c 0
 440 664 390 612 327 612 c 0
 280 612 249 641 249 681 c 0
356 759 m 0
 320 759 286 712 286 691 c 0
 286 670 306 637 333 637 c 0
 366 637 404 677 404 704 c 0
 404 729 383 759 356 759 c 0
EndSplineSet
EndChar
StartChar: tilde
Encoding: 732 732 209
Width: 316
VWidth: 1467
Flags: W
HStem: 594 96<158 168 284 289 139 415 239 239> 597 37<304.427 394.971> 653 37<188.739 272.637>
VStem: 139 29<599.63 616.878>
Fore
139 594 m 1x90
 139 594 158 690 239 690 c 0x90
 289 690 305 634 351 634 c 0
 385 635 404 660 415 693 c 1
 446 693 l 1
 444 684 l 2
 431 621 375 597 340 597 c 0
 284 597 270 653 233 653 c 0x70
 191 653 172 608 168 594 c 1
 139 594 l 1x90
EndSplineSet
EndChar
StartChar: uni0E01
Encoding: 3585 3585 212
Width: 625
VWidth: 1467
Flags: W
HStem: 0 21G<95 140.221 475 525.242> 546 39<251 307.304 307.304 491.14>
VStem: 551 52<372.926 481.794>
Fore
251 546 m 1
 254 542 306 489 305 486 c 2
 296 442 l 1
 290 438 223 407 201 308 c 2
 136 0 l 1
 95 0 l 1
 152 267 l 2
 173 366 203 431 269 471 c 1
 205 544 l 1
 213 585 l 1
 326 585 l 2
 477 585 567 584 596 481 c 0
 601 466 603 448 603 427 c 0
 603 400 599 367 591 330 c 2
 521 0 l 1
 475 0 l 1
 542 333 l 2
 548 363 551 390 551 412 c 0
 551 522 484 551 371 551 c 0
 324 551 323 548 251 546 c 1
EndSplineSet
EndChar
StartChar: uni0E02
Encoding: 3586 3586 213
Width: 492
VWidth: 1467
Flags: W
HStem: -8 36<177.174 302.457> 360 26<209.87 259.086> 562 24<259.061 307.121>
VStem: 102 48<55.4353 177.243> 171 34<386.11 490.238> 314 35<454.845 561.771>
Fore
171 422 m 0
 171 498 243 586 300 586 c 0
 340 586 349 541 349 502 c 0
 349 322 187 314 154 161 c 0
 151 148 150 135 150 123 c 0
 150 66 181 28 237 28 c 0
 283 28 360 65 382 170 c 2
 470 584 l 1
 516 584 l 1
 423 148 l 2
 400 37 297 -8 226 -8 c 0
 157 -8 102 33 102 107 c 0
 102 176 149 249 181 279 c 2
 227 323 l 2
 252 348 275 370 293 402 c 1
 269 374 239 360 221 360 c 0
 185 360 171 388 171 422 c 0
291 562 m 0
 261 562 205 473 205 416 c 0
 205 393 215 386 224 386 c 0
 255 386 314 468 314 529 c 0
 314 555 301 562 291 562 c 0
EndSplineSet
EndChar
StartChar: uni0E03
Encoding: 3587 3587 214
Width: 569
VWidth: 1467
Flags: W
HStem: -7 37<255.782 382.863> 365 27<203.117 258.281> 571 26<259.683 313.076>
VStem: 170 32<399.576 499.941> 177 48<60.7684 201.745> 315 33<462.068 515> 383 45<414.718 490.632>
Fore
428 509 m 0xf6
 428 324 225 306 225 127 c 0
 225 57 273 30 312 30 c 0
 361 30 441 66 464 175 c 2
 492 312 l 1
 552 590 l 1
 597 590 l 1
 505 153 l 2
 481 44 383 -7 307 -7 c 0
 254 -7 177 18 177 109 c 0xee
 177 171 204 235 269 298 c 2
 327 355 l 1
 327 355 383 401 383 447 c 0
 383 463 376 479 355 500 c 1
 348 515 l 1
 348 471 285 365 218 365 c 0
 183 365 170 396 170 430 c 0
 170 508 239 597 301 597 c 0
 343 597 372 537 374 528 c 1
 399 593 l 1
 427 593 l 1
 427 533 l 2
 428 524 428 516 428 509 c 0xf6
225 392 m 0
 254 392 315 472 315 535 c 0
 315 557 307 571 292 571 c 0
 261 571 202 483 202 427 c 0xf6
 202 409 207 392 225 392 c 0
EndSplineSet
EndChar
StartChar: uni0E04
Encoding: 3588 3588 215
Width: 670
VWidth: 1467
Flags: W
HStem: 0 21G<98 146.217 528 576.252> 213 35<297.433 444.231> 333 35<298.235 429.255> 558 32<335.609 562.594>
VStem: 260 25<264.325 290.213> 463 26<265.128 317.17> 616 47<411.538 415 415 427.944 427.944 440.202 434.073 509.338>
Fore
489 299 m 0
 489 251 426 213 369 213 c 0
 314 213 260 239 260 284 c 2
 260 291 l 1
 225 260 190 226 177 166 c 2
 142 0 l 1
 98 0 l 1
 190 431 l 2
 219 569 376 590 460 590 c 0
 554 590 667 566 667 463 c 0
 667 452 666 441 663 428 c 2
 572 0 l 1
 528 0 l 1
 616 415 l 2
 618 427 620 437 620 447 c 0
 620 535 530 558 455 558 c 0
 370 558 255 530 230 415 c 2
 206 299 l 1
 261 349 330 368 383 368 c 0
 448 368 489 335 489 299 c 0
380 333 m 0
 331 333 285 315 285 289 c 0
 285 266 332 248 371 248 c 0
 412 248 463 266 463 292 c 0
 463 318 406 333 380 333 c 0
EndSplineSet
EndChar
StartChar: uni0E05
Encoding: 3589 3589 216
Width: 674
VWidth: 1467
Flags: W
HStem: 0 21G<98 146.229 532 580.235> 224 36<304.45 454.983> 342 35<306.295 460.083> 568 20G<321 424.5 506.5 565.5>
VStem: 268 26<274.184 304.679> 473 25<275.34 326.204> 619 47<408.472 421.433 421.433 438.547 429.99 507.672>
Fore
498 307 m 0
 498 258 432 224 373 224 c 0
 315 224 268 252 268 292 c 0
 268 296 269 300 270 305 c 1
 245 289 194 243 179 175 c 2
 142 0 l 1
 98 0 l 1
 190 431 l 2
 196 462 231 567 411 588 c 1
 438 517 434 526 445 500 c 1
 465 527 499 571 514 588 c 1
 617 576 670 537 670 464 c 0
 670 452 669 439 666 425 c 2
 576 0 l 1
 532 0 l 1
 619 408 l 2
 622 422 623 435 623 446 c 0
 623 529 551 538 524 544 c 1
 434 445 l 1
 386 543 l 1
 374 540 253 522 230 415 c 2
 207 308 l 1
 251 346 319 377 388 377 c 0
 462 377 498 341 498 307 c 0
385 342 m 0
 343 342 294 325 294 300 c 0
 294 277 340 260 373 260 c 0
 446 260 473 285 473 302 c 0
 473 325 419 342 385 342 c 0
EndSplineSet
EndChar
StartChar: uni0E06
Encoding: 3590 3590 217
Width: 720
VWidth: 1467
Flags: W
HStem: -4 38<179.142 237.475 376.875 524.931> 235 38<212.681 268.091> 360 26<200.26 253.831> 566 26<255.026 309.983>
VStem: 126 47<51.547 184.479> 166 33<392.918 493.751> 273 47<136 232.95> 380 45<397.419 482.976>
Fore
166 425 m 0xf7
 166 508 242 592 295 592 c 0
 334 592 365 542 371 524 c 1
 395 587 l 1
 423 587 l 1
 423 528 l 1
 425 515 425 504 425 494 c 0
 425 437 399 385 389 370 c 2
 353 318 l 258
 323 281 320 222 320 191 c 2
 320 174 l 1
 322 136 l 1
 364 47 409 38 436 38 c 0
 495 38 595 68 621 188 c 2
 706 588 l 1
 750 588 l 1
 663 180 l 2
 641 74 552 -1 446 -1 c 0
 404 -1 346 6 298 87 c 1
 281 48 243 -4 197 -4 c 0
 156 -4 126 40 126 98 c 0xfb
 126 186 196 273 256 273 c 0
 269 273 278 270 286 264 c 1
 309 343 380 387 380 443 c 0
 380 458 374 476 354 497 c 1
 345 511 l 1
 344 506 344 502 343 497 c 0
 331 440 271 360 214 360 c 0
 179 360 166 391 166 425 c 0xf7
220 386 m 0
 248 386 312 467 312 531 c 0
 312 553 303 566 289 566 c 0
 259 566 199 483 199 421 c 0xf7
 199 399 206 386 220 386 c 0
205 34 m 256
 242 34 273 123 273 177 c 0
 273 209 265 235 245 235 c 256
 212 235 173 164 173 100 c 0xfb
 173 69 180 34 205 34 c 256
EndSplineSet
EndChar
StartChar: uni0E07
Encoding: 3591 3591 218
Width: 507
VWidth: 1467
Flags: W
HStem: -4 21G<246.174 299> 362 24<381.412 431.876> 562 24<430.503 480.125>
VStem: 344 32<386.258 491.81> 486 35<477.56 561.779>
Fore
344 421 m 0
 344 500 415 586 472 586 c 0
 508 586 521 560 521 528 c 0
 521 518 519 507 517 496 c 2
 447 163 l 2
 428 73 347 10 251 -4 c 1
 154 398 l 1
 196 417 l 1
 289 43 l 1
 339 62 389 97 406 179 c 2
 450 387 l 1
 436 375 413 362 392 362 c 0
 361 362 344 385 344 421 c 0
464 562 m 0
 434 562 376 479 376 416 c 0
 376 391 388 386 397 386 c 0
 429 386 486 471 486 532 c 0
 486 557 473 562 464 562 c 0
EndSplineSet
EndChar
StartChar: uni0E08
Encoding: 3592 3592 219
Width: 607
VWidth: 1467
Flags: W
HStem: -6 21G<323 427> 160 25<288.789 342.999> 360 25<291.954 345.828> 550 34<271.868 499.384>
VStem: 238 37<195.041 340.995> 361 43<140.946 348.913> 550 52<419.611 429.523 429.523 450.523 440.023 503.486>
Fore
238 262 m 0
 238 319 272 385 328 385 c 0
 348 385 404 368 404 266 c 0
 404 183 389 115 376 51 c 2
 372 31 l 1
 471 65 486 114 492 141 c 2
 550 415 l 2
 552 425 553 435 553 444 c 0
 553 532 453 550 397 550 c 0
 280 550 232 508 212 493 c 1
 168 508 l 1
 197 547 291 584 395 584 c 0
 492 584 605 559 605 465 c 0
 605 456 604 446 602 436 c 2
 539 141 l 2
 529 94 493 26 361 -6 c 1
 323 -6 l 1
 364 188 l 1
 364 187 345 160 316 160 c 0
 292 160 238 193 238 262 c 0
321 360 m 0
 293 360 275 314 275 267 c 0
 275 220 294 185 316 185 c 0
 337 185 361 226 361 275 c 0
 361 320 341 360 321 360 c 0
EndSplineSet
EndChar
StartChar: uni0E09
Encoding: 3593 3593 220
Width: 738
VWidth: 1467
Flags: W
HStem: -4 45<318.47 447.169> -1 33<580.514 632.572> 149 26<175.077 221.748> 195 34<619.676 656.269> 356 26<230.852 284.854> 549 50<276.057 551.324>
VStem: 139 35<181.507 282.781> 239 48<73.4902 166.433> 286 35<265.491 350.187> 538 37<46.1939 135.875> 611 52<428.914 503.335> 661 39<65.4678 181.199>
Fore
139 214 m 0xbf50
 139 289 214 382 270 382 c 0
 307 382 321 353 321 319 c 0xbec0
 321 306 319 278 308 255 c 1
 292 178 l 2
 289 163 287 150 287 137 c 0
 287 65 339 41 381 41 c 0
 435 41 541 107 566 227 c 2
 608 424 l 2
 610 433 611 441 611 449 c 0
 611 535 497 549 421 549 c 0
 308 549 242 519 216 493 c 1
 174 521 l 1
 200 554 288 599 431 599 c 0
 604 599 663 548 663 468 c 0xbf60
 663 453 661 438 657 421 c 2
 639 334 l 2
 631 296 622 257 613 220 c 1
 623 226 634 229 645 229 c 0
 675 229 700 198 700 150 c 0
 700 72 644 -1 596 -1 c 0x7e50
 558 -1 538 34 538 78 c 0
 538 89 539 101 542 113 c 1
 500 25 417 -4 365 -4 c 0
 251 -4 239 89 239 146 c 2
 239 167 l 1
 223 155 207 149 191 149 c 0
 154 149 139 179 139 214 c 0xbf50
603 32 m 0x7e50
 626 32 661 86 661 142 c 0
 661 167 654 194 635 195 c 0
 611 195 575 140 575 88 c 0
 575 63 581 34 603 32 c 0x7e50
196 175 m 0
 229 175 286 260 286 324 c 0x3ec0
 286 341 282 356 266 356 c 0
 229 356 174 265 174 208 c 0
 174 191 179 175 196 175 c 0
EndSplineSet
EndChar
StartChar: uni0E0A
Encoding: 3594 3594 221
Width: 517
VWidth: 1467
Flags: W
HStem: -5 35<188.819 314.878> 362 24<214.792 269.374> 563 25<269.497 323.535>
VStem: 111 48<60.2813 176.25> 181 33<391.33 492.913> 325 31<471.545 562.48> 426 47<320.011 390.267> 500 55<522.682 625>
Fore
181 422 m 0
 181 503 256 588 311 588 c 0
 331 588 356 577 356 523 c 0
 356 507 354 487 349 463 c 0
 316 308 192 296 164 163 c 0
 161 149 159 135 159 124 c 0
 159 54 210 30 249 30 c 0
 294 30 369 66 392 172 c 2
 419 299 l 2
 423 320 426 337 426 351 c 0
 426 374 419 392 402 412 c 2
 370 450 l 1
 432 474 475 525 500 625 c 1
 555 625 l 1
 533 542 489 476 421 446 c 1
 458 393 473 385 473 352 c 0
 473 344 472 334 470 321 c 2
 434 150 l 2
 410 39 310 -5 237 -5 c 0
 187 -5 111 18 111 107 c 0
 111 253 256 316 304 403 c 1
 280 378 254 362 230 362 c 0
 199 362 181 385 181 422 c 0
302 563 m 0
 273 563 214 479 214 415 c 0
 214 400 218 386 233 386 c 0
 267 386 325 473 325 527 c 0
 325 548 317 563 302 563 c 0
EndSplineSet
EndChar
StartChar: uni0E0B
Encoding: 3595 3595 222
Width: 597
VWidth: 1467
Flags: W
HStem: -2 38<253.868 381.03> 368 24<204.109 257.418> 572 25<258.873 307.756>
VStem: 168 35<398.279 502.657> 176 48<64.9998 174.882> 314 111<515.861 564> 381 46<415.937 492.064> 494 45<335 348.023 336.88 403.452>
Fore
427 505 m 0xe3
 427 330 224 305 224 130 c 0
 224 50 287 36 313 36 c 0
 353 36 436 65 460 179 c 2
 486 302 l 2
 491 326 494 344 494 360 c 0
 494 384 487 402 470 424 c 2
 440 462 l 1
 479 473 557 530 578 632 c 1
 634 632 l 1
 629 607 599 511 493 459 c 1
 528 424 540 403 540 361 c 0
 540 353 540 344 539 335 c 1
 540 335 538 320 532 290 c 2
 501 156 l 2
 478 46 376 -2 303 -2 c 0
 241 -2 176 34 176 114 c 0
 176 125 177 137 180 150 c 256
 213 308 381 359 381 450 c 0xeb
 381 465 376 482 356 502 c 2
 345 515 l 1
 343 502 l 2
 324 415 258 368 220 368 c 0
 183 368 168 396 168 431 c 0
 168 511 244 597 300 597 c 0
 340 597 371 535 373 528 c 1
 396 593 l 1
 424 593 l 1
 425 533 l 2xf5
 426 523 427 514 427 505 c 0xe3
222 392 m 0
 246 392 314 461 314 537 c 0
 314 564 302 572 293 572 c 0
 268 572 203 497 203 428 c 0xf5
 203 410 207 392 222 392 c 0
EndSplineSet
EndChar
StartChar: uni0E0C
Encoding: 3596 3596 223
Width: 928
VWidth: 1467
Flags: W
HStem: -3 47<609.429 762.377> -1 25<144.448 199.082 434.55 486.565> 199 25<211.118 251.16 466.031 516.109> 541 40<253.934 314.219 314.219 488.275>
VStem: 109 35<28.7931 105.616> 253 34<91.4279 192.336> 396 35<35.6912 160.889> 523 35<93.7559 177.671> 553 50<325.163 489.372>
Fore
287 163 m 0xbe80
 287 82 211 -1 160 -1 c 0
 124 -1 109 28 109 60 c 0
 109 68 110 75 111 82 c 2
 150 263 l 2
 172 368 202 427 269 467 c 1
 204 540 l 1
 212 581 l 1
 318 581 l 2
 475 581 505 573 540 552 c 0
 590 524 603 469 603 420 c 0x7e80
 603 385 597 352 593 334 c 2
 560 178 l 2
 558 171 558 163 558 156 c 0x7f
 558 95 612 44 682 44 c 0
 751 44 799 64 826 195 c 2
 908 581 l 1
 950 581 l 1
 861 161 l 2
 833 30 750 -3 671 -3 c 0
 613 -3 567 45 546 88 c 1
 523 28 484 0 452 0 c 0
 416 0 396 33 396 78 c 0
 396 153 445 229 501 229 c 0
 510 229 516 227 522 223 c 1
 522 223 553 373 553 411 c 0
 553 517 476 546 369 546 c 0
 322 546 310 541 251 541 c 1
 253 537 306 487 304 481 c 2
 295 436 l 1
 248 415 215 363 203 304 c 2
 180 198 l 1
 209 222 226 224 239 224 c 0
 274 224 287 196 287 163 c 0xbe80
163 24 m 0
 194 24 253 102 253 167 c 0
 253 183 248 199 233 199 c 0
 196 199 144 109 144 52 c 0
 144 37 148 24 163 24 c 0
498 204 m 0
 468 204 431 137 431 72 c 0
 431 47 437 25 457 25 c 0
 483 25 523 90 523 153 c 0x3f
 523 182 515 204 498 204 c 0
EndSplineSet
EndChar
StartChar: uni0E0D
Encoding: 3597 3597 224
Width: 908
VWidth: 1467
Flags: W
HStem: -194 33<497.031 608.983> -98 31<490.386 601.02> -1 35<529 660.716> -1 25<146.126 198.271> 200 25<199.269 254.165> 546 39<252 289.793 289.793 317.719 303.756 491.121>
VStem: 111 34<29.7522 110.505> 255 32<92.4321 194.428> 456 26<-155.197 -110.211> 553 51<374.311 458.11> 617 28<-130.892 -103.737>
Fore
287 163 m 0xdfe0
 287 81 213 -1 161 -1 c 0xdfe0
 124 -1 111 34 111 67 c 0
 111 75 111 84 113 91 c 2
 152 267 l 2
 171 359 204 434 270 471 c 1
 207 544 l 1
 215 585 l 1
 306 587 317 587 328 587 c 0
 470 587 567 586 598 482 c 0
 602 467 604 450 604 429 c 0
 604 402 600 369 593 332 c 2
 529 34 l 1xefe0
 661 34 772 78 809 253 c 2
 880 587 l 1
 930 587 l 1
 862 268 l 2
 812 33 683 -1 522 -1 c 1
 521 -3 l 1
 476 -3 l 1
 543 333 l 2
 548 357 553 385 553 413 c 0
 553 446 546 479 523 504 c 0
 488 544 431 551 375 551 c 0
 326 551 313 546 252 546 c 1
 254 540 283 516 306 487 c 1
 296 442 l 1
 284 434 225 407 203 308 c 2
 180 198 l 1
 197 213 219 225 241 225 c 0
 275 225 287 196 287 163 c 0xdfe0
165 24 m 0
 191 24 255 101 255 167 c 0
 255 184 251 200 237 200 c 0
 196 200 145 109 145 54 c 0
 145 38 150 24 165 24 c 0
456 -139 m 0
 456 -102 503 -67 563 -67 c 0
 597 -67 645 -82 645 -120 c 0
 645 -124 645 -127 644 -131 c 1
 688 -108 715 -87 744 -48 c 1
 795 -48 l 1
 750 -104 658 -194 555 -194 c 0
 470 -194 456 -159 456 -139 c 0
544 -161 m 0
 577 -161 617 -147 617 -125 c 0
 617 -103 576 -98 557 -98 c 0
 507 -98 482 -121 482 -135 c 0
 482 -156 523 -161 544 -161 c 0
EndSplineSet
Substitution2: "Single Substitution lookup 22 subtable" uni0E0D.alt1
Substitution2: "Single Substitution lookup 22 subtable" uni0E0D.alt1
EndChar
StartChar: uni0E0E
Encoding: 3598 3598 225
Width: 657
VWidth: 1467
Flags: W
HStem: -233 28<164.549 264.901> -130 27<156.89 279.229> -1 25<156.924 211.024> 201 24<158.49 212.947> 544 41<290 383.285 383.285 525.448>
VStem: 104 37<35.799 181.064> 114 32<-197.653 -144.191> 375 41<-87.2643 -54> 591 51<372.253 493.109>
Fore
104 102 m 0xfd80
 104 155 136 225 192 225 c 0
 214 225 231 212 241 200 c 1
 301 480 l 1
 243 543 l 1
 252 584 l 1
 357 585 l 2
 510 585 541 580 580 556 c 0
 630 527 642 473 642 424 c 0
 642 389 636 357 632 339 c 2
 507 -248 l 1
 460 -248 l 1
 461 -244 l 1
 451 -222 418 -189 358 -163 c 1
 304 -225 235 -233 210 -233 c 0
 156 -233 114 -211 114 -177 c 0xfb80
 114 -139 167 -103 236 -103 c 0
 272 -103 311 -104 350 -117 c 1
 356 -105 361 -98 375 -54 c 1
 416 -54 l 1
 407 -81 395 -106 382 -129 c 1
 418 -145 449 -165 472 -192 c 1
 581 332 l 2
 588 364 591 393 591 417 c 0
 591 470 567 550 422 550 c 0
 396 550 382 548 290 544 c 1
 293 536 309 529 343 486 c 1
 343 486 263 98 262 94 c 0
 256 67 229 -1 175 -1 c 0
 137 -1 104 44 104 102 c 0xfd80
189 201 m 0
 164 201 141 162 141 113 c 0xfd80
 141 68 160 24 182 24 c 0
 209 24 227 67 227 115 c 0
 227 163 208 201 189 201 c 0
230 -130 m 0
 194 -130 146 -143 146 -173 c 0xfb80
 146 -199 188 -205 212 -205 c 0
 283 -205 325 -153 325 -153 c 1
 326 -152 325 -150 324 -148 c 1
 281 -133 250 -130 230 -130 c 0
EndSplineSet
Substitution2: "Single Substitution lookup 22 subtable" uni0E0E.alt1
Substitution2: "Single Substitution lookup 22 subtable" uni0E0E.alt1
EndChar
StartChar: uni0E0F
Encoding: 3599 3599 226
Width: 658
VWidth: 1467
Flags: W
HStem: -233 25<100.652 214.35> -128 25<109.056 231.195> -1 25<150.53 204.808> 199 25<152.292 207.721> 543 41<289 329.687 329.687 363.578 346.633 532.188>
VStem: 67 30<-201.482 -142.105> 100 36<34.1999 180.493> 297 42<-112.439 -56> 590 51<374.615 477.729>
Fore
100 101 m 0
 100 170 142 224 187 224 c 0
 198 224 219 221 235 194 c 1
 296 478 l 1
 243 541 l 1
 252 582 l 1
 341 584 350 584 369 584 c 0
 508 584 603 583 634 480 c 0
 639 465 641 447 641 427 c 0
 641 399 637 367 629 330 c 2
 506 -248 l 1
 460 -248 l 1
 402 -134 l 1
 296 -248 l 1
 287 -226 278 -210 263 -183 c 1
 227 -215 189 -233 146 -233 c 0
 104 -233 67 -213 67 -178 c 0
 67 -129 131 -103 180 -103 c 0
 224 -103 242 -126 261 -138 c 1
 271 -123 281 -106 297 -56 c 1
 339 -56 l 1
 324 -95 307 -131 284 -160 c 1
 289 -166 308 -191 308 -195 c 1
 412 -84 l 1
 472 -195 l 1
 580 332 l 2
 586 363 590 390 590 413 c 0
 590 468 568 549 425 549 c 0
 398 549 370 545 289 543 c 1
 335 484 l 1
 256 110 l 1
 256 74 230 -1 169 -1 c 0
 129 -1 100 45 100 101 c 0
182 199 m 0
 155 199 136 155 136 108 c 0
 136 61 156 24 176 24 c 0
 203 24 221 68 221 117 c 0
 221 165 201 199 182 199 c 0
166 -128 m 0
 140 -128 97 -144 97 -174 c 0
 97 -194 122 -208 147 -208 c 0
 175 -208 218 -191 245 -161 c 1
 245 -161 213 -128 166 -128 c 0
EndSplineSet
Substitution2: "Single Substitution lookup 22 subtable" uni0E0F.alt1
Substitution2: "Single Substitution lookup 22 subtable" uni0E0F.alt1
EndChar
StartChar: uni0E10
Encoding: 3600 3600 227
Width: 591
VWidth: 1467
Flags: W
HStem: -235 22<68.322 151.912> -139 22<74.3584 188.568 358.042 418.768> -67 24<364.395 439.121> 1 21G<307 370.5> 96 24<270.269 317.474> 296 24<272.742 327.545> 550 36<290.401 541.284>
VStem: 38 28<-208.675 -149.782> 206 44<464.262 520.455> 218 38<131.1 276.299> 326 23<-110.678 -72.6017> 342 41<152.13 284.761> 508 48<306.286 338.301>
Fore
218 198 m 0xff48
 218 257 254 320 308 320 c 0
 346 320 383 275 383 202 c 0
 383 168 380 135 373 104 c 2
 362 50 l 1
 397 60 464 92 477 156 c 2
 508 299 l 1
 508 301 509 303 509 306 c 0
 509 383 206 394 206 479 c 0
 206 500 233 586 434 586 c 0
 513 586 589 574 625 565 c 1
 623 521 l 1
 575 540 472 550 413 550 c 0
 299 550 250 517 250 491 c 0xff98
 250 431 556 399 556 317 c 0
 556 315 556 312 555 310 c 1
 522 156 l 2
 515 120 494 88 476 66 c 0
 446 26 390 15 351 1 c 1
 307 1 l 1
 312 24 323 69 335 114 c 1
 314 96 299 96 290 96 c 0
 250 96 218 142 218 198 c 0xff48
303 296 m 0
 275 296 256 253 256 205 c 0xff58
 256 156 277 120 296 120 c 0
 323 120 342 176 342 216 c 0
 342 263 319 296 303 296 c 0
38 -185 m 0
 38 -144 91 -117 139 -117 c 0
 178 -117 209 -142 215 -148 c 1
 229 -132 234 -120 241 -100 c 1
 277 -100 l 1
 267 -127 260 -136 234 -169 c 1
 240 -176 259 -205 260 -210 c 1
 335 -170 l 1
 408 -220 l 1
 427 -132 l 1
 417 -136 404 -138 389 -138 c 0
 354 -138 326 -122 326 -98 c 0xff28
 326 -72 359 -43 409 -43 c 0
 450 -43 471 -63 470 -84 c 1
 435 -248 l 1
 394 -248 l 1
 328 -200 l 1
 245 -248 l 1
 238 -225 226 -208 215 -189 c 1
 184 -219 147 -235 107 -235 c 0
 69 -235 38 -215 38 -185 c 0
128 -139 m 0
 99 -139 66 -156 66 -181 c 0
 66 -201 88 -213 110 -213 c 0
 128 -213 168 -202 199 -170 c 1
 187 -155 151 -139 128 -139 c 0
394 -113 m 0
 405 -113 449 -108 449 -86 c 0
 449 -70 414 -67 404 -67 c 0
 394 -67 349 -71 349 -94 c 0
 349 -109 375 -113 394 -113 c 0
EndSplineSet
Substitution2: "Single Substitution lookup 22 subtable" uni0E10.alt1
Substitution2: "Single Substitution lookup 22 subtable" uni0E10.alt1
EndChar
StartChar: uni0E11
Encoding: 3601 3601 228
Width: 839
VWidth: 1467
Flags: W
HStem: 0 21G<295 341.265 694 742.272> 355 26<201.672 255.723> 540 44<597.67 750.919> 558 26<257.954 310.835>
VStem: 167 34<386.157 485.364> 376 55<361 393.304 393.304 438.424 415.864 506.005> 383 48<503 528.517> 776 50<395.614 412 412 421.756 421.756 442.718 432.237 508.755>
Fore
167 415 m 0xed
 167 491 235 584 295 584 c 0
 337 584 383 503 383 503 c 1
 386 584 l 1
 414 584 l 1xdb
 425 561 431 515 431 475 c 0
 431 456 430 438 427 425 c 2
 408 333 l 1
 464 451 551 585 687 585 c 0
 754 585 832 559 832 461 c 0
 832 446 830 430 826 412 c 2
 738 0 l 1
 694 0 l 1
 776 386 l 2
 780 406 782 424 782 441 c 0
 782 507 746 540 674 540 c 0
 496 540 394 267 366 136 c 2
 337 0 l 1
 295 0 l 1
 372 361 l 2
 375 374 376 386 376 397 c 0
 376 458 344 500 344 500 c 1
 325 408 259 355 215 355 c 0
 177 355 167 386 167 415 c 0xed
219 381 m 0
 253 381 312 462 312 523 c 0
 312 540 307 558 291 558 c 0
 259 558 201 471 201 409 c 0
 201 395 205 381 219 381 c 0
EndSplineSet
EndChar
StartChar: uni0E12
Encoding: 3602 3602 229
Width: 953
VWidth: 1467
Flags: W
HStem: -4 30<505.895 553.502> -1 45<147 236.199 673.21 788.642> 132 26<310.081 340.089> 173 31<525.924 571.761> 335 25<360.534 415.054> 565 20G<362 409 497 556 932.742 979>
VStem: 271 33<158.064 261.42> 416 34<227.554 329.519> 467 36<35.6593 148.175> 577 36<84.4121 155.385> 619 49<381.832 498.789>
Fore
450 296 m 0x7fe0
 450 217 354 32 172 -1 c 1
 95 -1 l 1x7fe0
 188 437 l 2
 211 545 318 575 406 585 c 1
 412 562 437 500 439 496 c 1
 464 533 487 559 507 585 c 1
 605 574 646 545 661 496 c 0
 666 483 668 470 668 457 c 0
 668 423 638 318 624 256 c 2
 620 234 l 2
 615 210 613 189 613 170 c 0
 613 71 675 37 720 37 c 0
 781 37 832 88 848 164 c 2
 937 582 l 1
 979 582 l 1
 883 131 l 2
 874 88 818 -4 718 -4 c 0
 702 -4 634 -3 599 67 c 1
 584 33 556 -4 518 -4 c 0xbfe0
 493 -4 467 23 467 70 c 0
 467 131 513 204 557 204 c 0
 561 204 566 203 571 202 c 1
 614 406 l 2
 617 422 619 436 619 449 c 0
 619 543 533 543 516 546 c 1
 427 436 l 1
 374 547 l 1
 336 541 246 509 226 415 c 2
 147 44 l 1
 217 44 290 86 341 135 c 1
 333 133 327 132 321 132 c 0
 289 132 271 157 271 194 c 0
 271 267 337 360 399 360 c 0
 432 360 450 335 450 296 c 0x7fe0
325 158 m 0
 356 158 416 238 416 304 c 0
 416 320 412 335 396 335 c 0
 358 335 304 242 304 189 c 0
 304 165 316 158 325 158 c 0
525 26 m 0xbfe0
 550 26 577 81 577 130 c 0
 577 151 572 173 553 173 c 0
 531 173 503 125 503 73 c 0
 503 49 508 26 525 26 c 0xbfe0
EndSplineSet
EndChar
StartChar: uni0E13
Encoding: 3603 3603 230
Width: 921
VWidth: 1467
Flags: W
HStem: -5 23<149.941 204.014> -4 32<764.501 824.003> 175 36<678.229 762 782.98 802> 195 25<215.56 252.259> 548 34<259.316 317.367 317.367 495.069>
VStem: 116 33<24.407 106.401> 258 34<86.6647 194.883> 559 49<370.196 490.548> 722 37<31.3705 147.4> 849 36<77.9038 170.57>
Fore
292 159 m 0x1fc0
 292 81 222 -5 166 -5 c 0x9fc0
 144 -5 116 8 116 57 c 0
 116 68 118 82 121 97 c 2
 156 264 l 2
 177 361 207 429 275 468 c 1
 210 541 l 1
 219 582 l 1
 372 582 l 2
 493 582 608 576 608 423 c 0
 608 396 605 364 597 327 c 2
 550 110 l 1
 581 140 662 209 802 211 c 1
 881 582 l 1
 926 582 l 1
 846 208 l 1
 860 201 885 181 885 137 c 0
 885 54 830 -4 784 -4 c 0
 751 -4 722 25 722 71 c 0
 722 118 744 152 762 175 c 1x6fc0
 683 175 576 133 527 1 c 1
 483 1 l 1
 548 330 l 2
 554 357 559 384 559 411 c 0
 559 521 479 548 370 548 c 0
 325 548 313 543 257 543 c 1
 259 539 311 488 310 483 c 2
 300 437 l 1
 252 412 220 359 209 305 c 2
 185 192 l 1
 202 210 229 220 246 220 c 0
 280 220 292 191 292 159 c 0x1fc0
170 18 m 0
 201 18 258 101 258 163 c 0
 258 187 247 195 239 195 c 0
 206 195 149 107 149 51 c 0
 149 34 154 18 170 18 c 0
821 172 m 0
 796 172 759 137 759 81 c 0
 759 55 768 28 794 28 c 0x4fc0
 834 33 849 105 849 131 c 0
 849 167 828 172 821 172 c 0
EndSplineSet
EndChar
StartChar: uni0E14
Encoding: 3604 3604 231
Width: 688
VWidth: 1467
Flags: W
HStem: 0 45<149 234.604> 136 26<315.734 346.5> 344 25<367.214 422.409> 556 38<335.176 574.174>
VStem: 276 34<162.455 269.1> 424 36<235.499 337.033> 629 48<416.565 418 433 433.046 433.046 446.34 439.693 508.384>
Fore
460 305 m 0
 460 244 373 34 173 0 c 1
 94 0 l 1
 184 425 l 2
 213 560 361 594 470 594 c 0
 567 594 681 568 681 466 c 0
 681 456 679 445 677 433 c 2
 585 1 l 1
 540 1 l 1
 629 418 l 2
 631 429 632 439 632 448 c 0
 632 533 541 556 460 556 c 0
 372 556 251 528 228 418 c 2
 149 45 l 1
 222 45 301 93 347 138 c 1
 341 137 335 136 329 136 c 0
 287 136 276 165 276 194 c 0
 276 265 341 369 407 369 c 0
 441 369 460 342 460 305 c 0
331 162 m 0
 364 162 424 245 424 310 c 0
 424 331 417 344 403 344 c 0
 366 344 310 249 310 193 c 0
 310 169 321 162 331 162 c 0
EndSplineSet
EndChar
StartChar: uni0E15
Encoding: 3605 3605 232
Width: 680
VWidth: 1467
Flags: MW
HStem: 0 45<149 240.701> 136 26<315.695 347.604> 344 26<366.439 423.311> 446 62<434 447> 582 20G<391.5 419.5 503.5 547.5>
VStem: 275 35<162.256 271.814> 425 34<236.708 343.535> 627 50<419.629 431.328 431.328 449.097 440.213 522.189>
Fore
459 308 m 0
 459 233 366 34 173 0 c 1
 95 0 l 1
 190 447 l 2
 217 576 369 595 414 602 c 1
 425 565 447 508 447 508 c 1
 473 546 490 564 517 602 c 1
 578 592 681 574 681 473 c 0
 681 462 680 450 677 436 c 2
 584 1 l 1
 538 1 l 1
 627 417 l 2
 630 432 632 446 632 458 c 0
 632 557 536 558 525 559 c 1
 434 446 l 1
 381 560 l 1
 360 558 252 533 229 425 c 2
 149 45 l 1
 221 45 299 92 348 139 c 1
 340 137 333 136 327 136 c 0
 286 136 275 167 275 199 c 0
 275 288 355 370 407 370 c 0
 440 370 459 346 459 308 c 0
331 162 m 0
 368 162 425 253 425 309 c 0
 425 331 417 344 403 344 c 0
 363 344 310 252 310 193 c 0
 310 169 321 162 331 162 c 0
EndSplineSet
EndChar
StartChar: uni0E16
Encoding: 3606 3606 233
Width: 629
VWidth: 1467
Flags: W
HStem: -1 26<153.546 205.414> 199 26<212.581 258.008> 543 41<259.361 331.578 331.578 494.686>
VStem: 116 32<25.0645 111.22> 259 33<93.1989 193.142> 560 50<377.042 477.362>
Fore
560 416 m 0
 560 477 527 549 393 549 c 0
 366 549 338 545 257 543 c 1
 258 540 305 494 311 486 c 1
 302 440 l 1
 288 432 l 2
 266 418 224 378 209 305 c 2
 187 200 l 1
 207 217 225 225 244 225 c 0
 275 225 292 199 292 163 c 0
 292 85 220 -1 165 -1 c 0
 134 -1 116 24 116 61 c 0
 116 80 122 105 124 110 c 1
 123 109 l 1
 159 278 l 2
 183 389 222 438 276 471 c 1
 210 541 l 1
 219 584 l 1
 325 584 l 2
 485 584 574 581 604 480 c 0
 608 466 610 449 610 429 c 0
 610 401 606 368 598 330 c 2
 529 3 l 1
 484 3 l 1
 549 333 l 2
 556 365 560 393 560 416 c 0
168 25 m 0
 205 25 259 112 259 169 c 0
 259 185 254 199 237 199 c 0
 201 199 148 110 148 56 c 0
 148 33 159 25 168 25 c 0
EndSplineSet
EndChar
StartChar: uni0E17
Encoding: 3607 3607 234
Width: 707
VWidth: 1467
Flags: W
HStem: 0 21G<188 234.248 562 610.271> 363 26<193.378 235.58> 541 44<502.639 623.81> 564 25<248.529 302.16>
VStem: 160 33<394.464 493.961> 303 32<480.123 558.292> 649 46<400.532 515.124>
Fore
160 426 m 0xee
 160 500 231 589 287 589 c 0xde
 319 589 335 563 335 528 c 0
 335 520 334 510 332 501 c 2
 285 279 l 1
 348 422 465 585 573 585 c 0
 661 585 695 525 695 449 c 0
 695 428 693 406 688 384 c 2
 606 0 l 1
 562 0 l 1
 639 362 l 2
 646 394 649 421 649 443 c 0
 649 519 611 541 554 541 c 0
 420 541 282 243 254 113 c 2
 230 0 l 1
 188 0 l 1
 272 393 l 1
 240 366 210 363 205 363 c 0
 179 363 160 388 160 426 c 0xee
283 564 m 0
 247 564 193 474 193 418 c 0
 193 402 198 389 213 389 c 0
 243 389 303 469 303 531 c 0
 303 548 299 564 283 564 c 0
EndSplineSet
EndChar
StartChar: uni0E18
Encoding: 3608 3608 235
Width: 581
VWidth: 1467
Flags: W
HStem: -6 39<196.103 412.581> 516 21G<590 605.149> 543 42<267.707 475.011>
VStem: 121 50<57.1764 85.7385 77.5 93.9769 93.9769 98 98 100.36> 173 37<465.565 501.339> 485 54<278.571 280 280 283 283 298.5 290.75 318.59>
Fore
379 543 m 0
 251 543 210 507 210 485 c 0
 210 445 539 388 539 302 c 0
 539 300 538 297 538 295 c 1
 489 65 l 2
 480 24 390 -6 287 -6 c 0
 223 -6 121 10 121 71 c 0
 121 75 121 80 122 84 c 2
 165 285 l 1
 212 285 l 1
 172 98 l 2
 171 95 171 92 171 90 c 0
 171 45 255 33 305 33 c 0
 374 33 436 54 443 87 c 2
 485 280 l 1
 485 282 486 284 486 286 c 0
 486 363 173 399 173 473 c 0
 173 482 187 585 416 585 c 0
 482 585 557 576 604 563 c 1
 606 516 l 1
 574 530 460 543 379 543 c 0
EndSplineSet
EndChar
StartChar: uni0E19
Encoding: 3609 3609 236
Width: 704
VWidth: 1467
Flags: W
HStem: -10 32<562.276 610.906> -3 38<291.094 430.719> 188 34<596.99 638.853> 353 26<194.201 237.242> 556 24<250.014 297.447>
VStem: 160 33<385.094 485.568> 214 48<63.4232 160.375> 303 34<467.858 555.776> 518 40<33.5493 127.379> 642 41<57.8493 177.748>
Fore
160 416 m 0x7fc0
 160 487 227 580 287 580 c 0
 323 580 337 549 337 515 c 0
 337 498 333 484 329 471 c 2
 268 183 l 2
 264 166 262 149 262 133 c 0
 262 80 285 35 359 35 c 0x7fc0
 441 35 526 125 542 202 c 2
 622 578 l 1
 666 578 l 1
 588 210 l 1
 600 218 612 222 625 222 c 0
 659 222 683 189 683 141 c 0
 683 74 635 -10 576 -10 c 0xbfc0
 539 -10 518 20 518 68 c 0
 518 81 520 96 523 112 c 1
 473 45 434 -3 347 -3 c 0
 279 -3 214 43 214 120 c 0
 214 130 215 140 217 151 c 2
 266 379 l 1
 241 359 216 353 205 353 c 0
 176 353 160 381 160 416 c 0x7fc0
282 556 m 0
 256 556 193 477 193 410 c 0
 193 394 198 379 213 379 c 0
 256 379 303 476 303 525 c 0
 303 549 291 556 282 556 c 0
620 188 m 0
 597 188 558 134 558 75 c 0
 558 47 565 22 582 22 c 0xbfc0
 606 22 642 79 642 139 c 0
 642 167 635 188 620 188 c 0
EndSplineSet
EndChar
StartChar: uni0E1A
Encoding: 3610 3610 237
Width: 711
VWidth: 1467
Flags: W
HStem: -7 34<324.078 508.476> 360 26<194.857 235.97> 561 25<247.594 298.606>
VStem: 160 34<391.708 494.092> 223 46<73.3058 148.079> 304 40<470.983 560.388>
Fore
160 424 m 0
 160 500 233 586 288 586 c 0
 315 586 344 562 344 510 c 0
 344 500 343 488 340 475 c 2
 272 156 l 2
 270 147 269 139 269 131 c 0
 269 46 372 27 415 27 c 0
 459 27 577 51 599 156 c 2
 690 582 l 1
 736 582 l 1
 642 141 l 2
 629 79 540 -7 409 -7 c 0
 326 -7 223 30 223 116 c 0
 223 124 224 132 226 141 c 2
 281 402 l 1
 248 364 215 360 206 360 c 0
 185 360 160 381 160 424 c 0
283 561 m 0
 254 561 194 485 194 419 c 0
 194 402 198 386 213 386 c 0
 242 386 304 464 304 531 c 0
 304 556 291 561 283 561 c 0
EndSplineSet
EndChar
StartChar: uni0E1B
Encoding: 3611 3611 238
Width: 713
VWidth: 1467
Flags: W
HStem: -9 34<323.357 504.975> 359 26<195.347 237.833> 560 24<249.149 297.844>
VStem: 160 34<391.198 493.059> 223 47<72.5409 149.555> 303 41<470.297 559.596>
Fore
160 422 m 0
 160 500 234 584 287 584 c 0
 306 584 344 566 344 509 c 0
 344 499 343 487 340 474 c 2
 273 161 l 2
 271 151 270 141 270 132 c 0
 270 42 372 25 412 25 c 0
 463 25 577 51 599 154 c 2
 743 833 l 1
 789 833 l 1
 642 139 l 2
 627 72 532 -9 407 -9 c 0
 315 -9 223 34 223 114 c 0
 223 122 224 130 226 139 c 2
 281 401 l 1
 251 365 221 359 206 359 c 0
 177 359 160 386 160 422 c 0
283 560 m 0
 255 560 194 483 194 420 c 0
 194 403 198 385 214 385 c 0
 245 385 303 468 303 531 c 0
 303 555 292 560 283 560 c 0
EndSplineSet
EndChar
StartChar: uni0E1C
Encoding: 3612 3612 239
Width: 671
VWidth: 1467
Flags: MW
HStem: 0 21G<98 193.5 504 575.263> 195 81<380 398> 359 26<236.031 289.541> 560 24<289.916 342.983>
VStem: 344 32<452.284 554.01>
Fore
376 523 m 0
 376 451 306 359 248 359 c 0
 238 359 225 362 220 371 c 1
 150 41 l 1
 205 63 267 106 398 276 c 1
 413 203 485 53 539 40 c 1
 653 577 l 1
 694 577 l 1
 571 0 l 1
 524 0 l 1
 484 23 437 57 380 195 c 1
 316 114 246 46 141 0 c 1
 98 0 l 1
 188 423 l 2
 212 538 293 584 328 584 c 0
 359 584 376 559 376 523 c 0
324 560 m 0
 298 560 235 484 235 420 c 0
 235 403 239 385 255 385 c 0
 286 385 344 464 344 527 c 0
 344 544 340 560 324 560 c 0
EndSplineSet
EndChar
StartChar: uni0E1D
Encoding: 3613 3613 240
Width: 671
VWidth: 1467
Flags: MW
HStem: -1 21G<97 190.5 484.5 575.25> 189 81<377 394> 362 26<236.937 288.87> 563 24<289.95 342.639>
VStem: 344 33<456.012 556.26>
Fore
377 526 m 0
 377 447 304 362 247 362 c 0
 241 362 226 365 218 373 c 1
 148 40 l 1
 202 61 268 102 394 270 c 1
 414 180 491 52 536 38 c 1
 705 832 l 1
 748 832 l 1
 571 -1 l 1
 522 -1 l 1
 447 43 415 100 377 189 c 1
 311 103 242 44 139 -1 c 1
 97 -1 l 1
 187 424 l 2
 204 504 274 587 327 587 c 0
 363 587 377 560 377 526 c 0
253 388 m 0
 287 388 344 470 344 529 c 0
 344 546 339 563 324 563 c 0
 293 563 234 479 234 420 c 0
 234 404 238 388 253 388 c 0
EndSplineSet
EndChar
StartChar: uni0E1E
Encoding: 3614 3614 241
Width: 736
VWidth: 1467
Flags: W
HStem: 0 21G<182 268 560.5 641.241> 358 25<215.619 258.452> 558 25<218.558 273.493>
VStem: 167 34<395.162 515.152> 287 36<425.061 547.969>
Fore
167 462 m 0
 167 523 203 583 253 583 c 0
 300 583 323 529 323 481 c 0
 323 471 322 462 320 453 c 2
 232 39 l 1
 308 103 413 295 505 485 c 1
 555 166 581 59 604 41 c 1
 718 580 l 1
 760 580 l 1
 637 0 l 1
 596 0 l 1
 525 31 490 264 490 386 c 2
 490 400 l 1
 454 285 312 35 224 0 c 1
 182 0 l 1
 259 362 l 1
 257 360 253 358 240 358 c 0
 187 358 167 413 167 462 c 0
246 558 m 0
 210 558 201 474 201 461 c 0
 201 409 229 383 241 383 c 0
 268 383 287 426 287 474 c 0
 287 520 269 558 246 558 c 0
EndSplineSet
EndChar
StartChar: uni0E1F
Encoding: 3615 3615 242
Width: 736
VWidth: 1467
Flags: W
HStem: 0 21G<182 268 560.5 641.248> 358 25<215.619 258.452> 558 25<218.558 273.493>
VStem: 167 34<395.162 515.152> 287 36<425.061 547.969>
Fore
167 462 m 0
 167 523 203 583 253 583 c 0
 300 583 323 529 323 481 c 0
 323 471 322 462 320 453 c 2
 232 39 l 1
 308 103 413 295 505 485 c 1
 555 166 581 59 604 41 c 1
 773 838 l 1
 815 838 l 1
 637 0 l 1
 596 0 l 1
 525 31 490 264 490 386 c 2
 490 400 l 1
 454 285 312 35 224 0 c 1
 182 0 l 1
 259 362 l 1
 257 360 253 358 240 358 c 0
 187 358 167 413 167 462 c 0
246 558 m 0
 210 558 201 474 201 461 c 0
 201 409 229 383 241 383 c 0
 268 383 287 426 287 474 c 0
 287 520 269 558 246 558 c 0
EndSplineSet
EndChar
StartChar: uni0E20
Encoding: 3616 3616 243
Width: 664
VWidth: 1467
Flags: W
HStem: -3 26<138.202 194.003> 198 24<144.242 195.099> 541 41<272 368.926 368.926 522.859>
VStem: 89 36<32.691 177.999> 595 51<368.269 470.414>
Fore
89 94 m 0
 89 139 113 222 176 222 c 0
 187 222 204 219 224 197 c 1
 283 477 l 1
 225 540 l 1
 234 582 l 1
 364 582 l 2
 501 582 600 579 637 479 c 0
 643 462 646 442 646 418 c 0
 646 392 642 363 635 329 c 2
 565 0 l 1
 518 0 l 1
 586 332 l 2
 592 361 595 386 595 408 c 0
 595 519 501 547 409 547 c 0
 382 547 368 545 272 541 c 1
 277 535 314 499 327 483 c 1
 247 107 l 2
 246 103 245 95 243 87 c 0
 229 19 185 -3 159 -3 c 0
 125 -3 89 34 89 94 c 0
171 198 m 0
 153 198 125 162 125 106 c 0
 125 66 138 23 168 23 c 0
 193 23 210 72 210 112 c 0
 210 160 189 198 171 198 c 0
EndSplineSet
EndChar
StartChar: uni0E21
Encoding: 3617 3617 244
Width: 679
VWidth: 1467
Flags: W
HStem: -9 29<171.375 230.867> 1 40<358.15 498.283> 215 28<175.717 232.854> 356 24<230.112 282.704> 556 24<284.11 332.261>
VStem: 114 41<32.9307 188.258> 194 35<385.739 488.107> 250 55<99.3232 201.121> 338 33<468.575 555.928>
Fore
194 417 m 0xbf80
 194 493 269 580 321 580 c 0
 353 580 371 555 371 516 c 0
 371 506 369 495 367 483 c 2
 308 207 l 2
 306 198 305 188 305 178 c 0
 305 110 352 41 418 41 c 0
 521 41 564 122 578 188 c 2
 661 577 l 1
 704 577 l 1
 614 156 l 2
 596 69 499 1 415 1 c 0x7f80
 359 1 301 25 289 114 c 1
 289 69 251 -9 194 -9 c 0
 148 -9 114 43 114 106 c 0
 114 168 152 243 213 243 c 0
 225 243 246 240 266 211 c 1
 302 382 l 1
 288 370 265 356 244 356 c 0
 205 356 194 388 194 417 c 0xbf80
318 556 m 0
 287 556 229 474 229 412 c 0
 229 395 233 380 250 380 c 0
 277 380 338 460 338 526 c 0
 338 549 327 556 318 556 c 0
206 215 m 0
 179 215 155 170 155 116 c 0
 155 69 171 20 200 20 c 0xbf80
 228 20 250 65 250 117 c 0
 250 167 231 215 206 215 c 0
EndSplineSet
EndChar
StartChar: uni0E22
Encoding: 3618 3618 245
Width: 638
VWidth: 1467
Flags: W
HStem: -1 38<170.86 504> 285 38<287.172 310> 409 29<349.445 457.163> 548 31<309.054 414.726>
VStem: 93 54<80.4398 175.468> 184 46<353.577 465.227> 279 27<477.512 515> 459 27<440.369 508.948>
Fore
279 515 m 1
 238 488 230 435 230 419 c 0
 230 380 255 340 278 330 c 0
 288 325 301 323 318 323 c 1
 310 285 l 1
 253 279 236 276 205 249 c 0
 167 218 147 160 147 126 c 0
 147 104 153 84 166 65 c 0
 183 40 202 37 254 37 c 2
 504 37 l 1
 619 577 l 1
 663 577 l 1
 540 -1 l 1
 235 -1 l 2
 179 -1 143 16 120 47 c 0
 104 73 93 100 93 128 c 0
 93 151 103 196 152 246 c 0
 177 274 214 293 263 302 c 1
 210 321 184 368 184 414 c 0
 184 498 263 579 366 579 c 0
 438 579 486 527 486 479 c 0
 486 448 462 409 396 409 c 0
 324 409 279 461 279 509 c 0
 279 515 l 1
423 438 m 0
 444 438 459 451 459 470 c 0
 459 504 402 548 341 548 c 0
 313 548 306 530 306 518 c 0
 306 485 359 438 423 438 c 0
EndSplineSet
EndChar
StartChar: uni0E23
Encoding: 3619 3619 246
Width: 595
VWidth: 1467
Flags: W
HStem: -6 32<249.402 356.511> 135 31<207.366 316.626> 512 21G<588.5 607.574> 542 39<260.942 579.081>
VStem: 164 50<461.645 507.068> 178 28<64.2824 125.166> 359 28<52.2477 97.3552> 455 57<271.468 273 273 276 276 292.023 284.012 312.161>
Fore
388 542 m 0xfb
 247 542 214 490 214 482 c 0xfb
 214 440 512 384 512 296 c 0
 512 294 512 291 511 288 c 2
 464 66 l 2
 454 19 359 -6 300 -6 c 0
 244 -6 178 34 178 92 c 0xf7
 178 151 235 166 270 166 c 0
 337 166 387 114 387 70 c 0
 387 67 387 63 386 60 c 2
 382 44 l 1
 401 56 412 70 415 87 c 2
 455 273 l 1
 455 275 456 277 456 279 c 0
 456 355 164 394 164 469 c 0
 164 491 198 581 414 581 c 0
 493 581 570 567 607 559 c 1
 608 512 l 1
 569 526 479 542 388 542 c 0xfb
243 135 m 0
 216 135 206 118 206 105 c 0xf7
 206 74 255 26 323 26 c 0
 348 26 359 44 359 56 c 0
 359 86 312 135 243 135 c 0
EndSplineSet
EndChar
StartChar: uni0E24
Encoding: 3620 3620 247
Width: 625
VWidth: 1467
Flags: W
HStem: 2 26<148.242 202.899> 202 26<200.891 255.791> 546 39<257.154 315.367 315.367 489.187>
VStem: 114 33<34.7871 115.928> 257 32<95.1405 195.365> 427 45<-239 138.486> 556 51<375.762 481.717>
Fore
289 170 m 0
 289 87 218 2 162 2 c 0
 131 2 114 26 114 65 c 0
 114 75 115 87 118 99 c 2
 154 267 l 2
 174 364 205 432 273 471 c 1
 208 544 l 1
 216 585 l 1
 357 585 l 2
 481 585 570 581 600 482 c 0
 605 467 607 448 607 427 c 0
 607 400 603 369 596 332 c 2
 472 -248 l 1
 427 -248 l 1
 546 335 l 2
 552 365 556 392 556 417 c 0
 556 498 513 551 368 551 c 0
 323 551 311 546 255 546 c 1
 256 541 312 492 310 486 c 2
 299 440 l 1
 286 431 281 432 272 423 c 0
 238 392 216 354 206 308 c 2
 184 202 l 1
 195 214 217 228 241 228 c 0
 275 228 289 202 289 170 c 0
166 28 m 0
 202 28 257 111 257 169 c 0
 257 186 252 202 235 202 c 0
 209 202 147 127 147 63 c 0
 147 46 151 28 166 28 c 0
EndSplineSet
EndChar
StartChar: uni0E25
Encoding: 3621 3621 248
Width: 651
VWidth: 1467
Flags: MW
HStem: -5 35<174.117 322.542> 117 34<208.204 340.423> 276 44<279 292> 549 33<359.256 554.935>
VStem: 106 47<82.8116 193.543> 357 25<58.6423 110.815> 600 51<414.463 508.403>
Fore
382 92 m 0
 382 49 320 -5 237 -5 c 0
 151 -5 106 62 106 130 c 0
 106 236 220 310 292 320 c 0
 419 338 483 306 573 391 c 0
 587 403 600 422 600 451 c 0
 600 496 568 549 458 549 c 0
 408 549 325 540 247 500 c 1
 264 547 l 1
 300 562 373 582 456 582 c 0
 552 582 651 552 651 461 c 0
 651 452 649 441 647 430 c 2
 556 0 l 1
 509 0 l 1
 584 352 l 1
 458 267 415 311 279 276 c 0
 226 263 153 209 153 108 c 0
 153 99 154 91 155 82 c 1
 179 122 238 151 294 151 c 0
 343 151 382 128 382 92 c 0
237 30 m 0
 306 30 357 65 357 89 c 0
 357 112 315 117 295 117 c 0
 227 117 173 81 173 57 c 0
 173 41 201 30 237 30 c 0
EndSplineSet
EndChar
StartChar: uni0E26
Encoding: 3622 3622 249
Width: 663
VWidth: 1467
Flags: W
HStem: -3 26<139.559 195.831> 198 24<144.242 193.123> 541 41<273 369.926 369.926 522.406>
VStem: 90 37<32.1138 178.302> 466 47<-238.401 344.487> 596 51<368.468 471.004>
Fore
90 97 m 0
 90 160 126 222 178 222 c 0
 188 222 206 220 225 197 c 1
 284 477 l 1
 226 540 l 1
 235 582 l 1
 366 582 l 2
 505 582 601 579 638 479 c 0
 644 462 647 442 647 418 c 0
 647 392 643 363 636 329 c 2
 513 -248 l 1
 466 -248 l 1
 587 332 l 2
 593 361 596 387 596 410 c 0
 596 520 499 547 410 547 c 0
 383 547 369 545 273 541 c 1
 278 535 318 496 329 483 c 1
 244 87 l 2
 228 11 180 -3 160 -3 c 0
 123 -3 90 39 90 97 c 0
172 198 m 0
 145 198 127 146 127 105 c 0
 127 65 140 23 170 23 c 0
 195 23 212 73 212 114 c 0
 212 161 192 198 172 198 c 0
EndSplineSet
EndChar
StartChar: uni0E27
Encoding: 3623 3623 250
Width: 603
VWidth: 1467
Flags: W
HStem: -1 30<296.366 403.557> 138 31<255.5 363.997> 502 21G<178.571 179> 540 40<238.43 468.412>
VStem: 226 28<67.8913 128.497> 405 28<67 71.5 51.3673 99.3137> 526 55<378.91 488.922>
Fore
226 95 m 0
 226 149 275 169 316 169 c 0
 374 169 434 127 434 76 c 0
 434 73 433 70 433 67 c 1
 457 91 468 113 471 125 c 2
 516 341 l 2
 521 362 526 389 526 416 c 0
 526 477 497 540 359 540 c 0
 289 540 188 503 170 502 c 1
 188 544 l 1
 229 557 318 580 392 580 c 0
 535 580 581 515 581 428 c 0
 581 405 578 380 572 354 c 2
 522 119 l 2
 513 76 437 -1 337 -1 c 0
 286 -1 226 40 226 95 c 0
367 29 m 0
 390 29 405 40 405 57 c 0
 405 84 366 138 289 138 c 0
 263 138 254 120 254 108 c 0
 254 77 304 29 367 29 c 0
EndSplineSet
EndChar
StartChar: uni0E28
Encoding: 3624 3624 251
Width: 693
VWidth: 1467
Flags: W
HStem: 0 21G<100 146.224 528 575.242> 209 36<293.334 443.725> 329 34<297.237 449.539> 555 32<331.475 561.939> 619 28<730.616 772>
VStem: 257 27<259.223 285.948> 462 25<260.668 312.568>
Fore
487 296 m 0
 487 257 440 209 364 209 c 0
 309 209 257 237 257 280 c 0
 257 286 l 1
 247 277 l 2
 189 223 180 178 176 161 c 2
 142 0 l 1
 100 0 l 1
 190 424 l 2
 220 566 370 587 460 587 c 0
 596 587 634 544 650 515 c 1
 650 544 694 635 772 647 c 1
 788 619 l 1
 767 617 697 593 669 462 c 2
 571 0 l 1
 528 0 l 1
 615 408 l 2
 618 421 619 432 619 443 c 0
 619 532 532 555 454 555 c 0
 357 555 254 526 229 408 c 2
 205 295 l 1
 264 348 341 363 380 363 c 0
 438 363 487 337 487 296 c 0
375 329 m 0
 302 329 284 297 284 284 c 0
 284 262 326 245 366 245 c 0
 423 245 462 265 462 288 c 0
 462 313 407 329 375 329 c 0
EndSplineSet
EndChar
StartChar: uni0E29
Encoding: 3625 3625 252
Width: 758
VWidth: 1467
Flags: W
HStem: 2 37<326.87 510.462> 227 55<420.924 560.433> 349 35<418.079 538.129> 359 26<195.413 250.927> 561 25<248.402 302.663>
VStem: 161 34<390.157 491.127> 229 46<85.163 160.958 150.056 171.859 171.859 179.52> 304 40<467.171 554.373> 380 30<290.405 336.394> 555 31<296.587 342.694>
Fore
380 308 m 0xdfc0
 380 340 426 384 497 384 c 256xefc0
 546 384 586 362 586 327 c 0
 586 286 539 263 524 258 c 1
 568 266 612 292 633 304 c 1
 691 578 l 1
 736 578 l 1
 687 346 l 1
 708 366 723 385 734 403 c 1
 789 403 l 1
 754 359 716 322 675 293 c 1
 648 163 l 2
 627 65 513 2 407 2 c 0
 343 2 229 30 229 131 c 0
 229 141 231 151 233 163 c 2
 283 399 l 1
 264 379 235 359 209 359 c 0
 178 359 161 385 161 422 c 0
 161 494 228 586 288 586 c 0
 324 586 344 551 344 507 c 0
 344 497 343 486 341 475 c 2
 279 185 l 2
 276 172 275 160 275 149 c 0
 275 57 367 39 419 39 c 0
 475 39 582 67 606 179 c 2
 623 261 l 1
 576 237 532 227 496 227 c 0
 436 227 380 266 380 308 c 0xdfc0
489 349 m 256
 454 349 410 334 410 312 c 0
 410 294 446 282 475 282 c 256
 507 282 555 298 555 322 c 0
 555 344 512 349 489 349 c 256
283 561 m 0
 251 561 195 475 195 414 c 0
 195 398 199 385 214 385 c 0xdfc0
 250 385 304 468 304 528 c 0
 304 545 299 561 283 561 c 0
EndSplineSet
EndChar
StartChar: uni0E2A
Encoding: 3626 3626 253
Width: 679
VWidth: 1467
Flags: MW
HStem: -5 36<187.742 320.689> 117 35<205.514 340.769> 276 44<278 290> 505 21G<254.085 274.5> 557 30<327.791 548.275> 626 30<710.167 754>
VStem: 105 48<85.028 166.534> 355 25<59.9054 111.914>
Fore
380 93 m 0
 380 36 299 -5 234 -5 c 0
 156 -5 105 59 105 132 c 0
 105 240 224 310 290 320 c 0
 392 335 457 314 532 361 c 0
 582 391 599 416 599 452 c 0
 599 508 549 557 461 557 c 0
 380 557 303 530 246 505 c 1
 265 552 l 1
 298 569 379 587 449 587 c 0
 560 587 630 546 634 516 c 1
 647 577 696 640 754 656 c 1
 773 626 l 1
 690 614 660 489 650 441 c 2
 556 0 l 1
 509 0 l 1
 584 352 l 1
 551 332 l 2
 454 277 391 306 278 276 c 0
 218 261 169 204 161 167 c 0
 159 158 153 114 153 93 c 0
 153 89 153 86 154 84 c 1
 176 124 237 152 291 152 c 0
 342 152 380 129 380 93 c 0
301 117 m 0
 233 117 173 89 173 56 c 0
 173 36 213 31 227 31 c 0
 307 31 355 66 355 89 c 0
 355 111 322 117 301 117 c 0
EndSplineSet
EndChar
StartChar: uni0E2B
Encoding: 3627 3627 254
Width: 717
VWidth: 1467
Flags: W
HStem: 0 21G<183 231.189 574 622.244> 357 26<198.652 237.536> 422 37<547.804 614.066> 547 38<538.898 679.71> 560 24<247.742 297.133>
VStem: 161 33<383.041 491.402> 303 33<471.962 559.657> 459 28<474.021 525.717> 634 50<294.508 311 311 319.108 319.108 324.599 321.854 395.922> 686 28<480.792 535.137>
Fore
714 515 m 0xf7c0
 714 468 654 442 643 437 c 1
 649 429 689 423 689 357 c 0
 689 344 688 329 684 311 c 2
 618 0 l 1
 574 0 l 1
 634 283 l 2
 637 299 641 318 641 337 c 0
 641 380 622 422 534 422 c 0
 431 422 294 317 258 148 c 2
 227 0 l 1
 183 0 l 1
 264 381 l 1
 247 367 227 357 208 357 c 0
 174 357 161 387 161 420 c 0
 161 501 234 584 286 584 c 0xefc0
 318 584 336 559 336 523 c 0
 336 513 335 498 328 474 c 2
 290 298 l 1
 377 413 441 439 482 450 c 1
 466 463 459 478 459 494 c 0
 459 538 519 585 604 585 c 0
 659 585 714 560 714 515 c 0xf7c0
282 560 m 0
 252 560 194 481 194 413 c 0
 194 389 204 383 212 383 c 0
 244 383 303 465 303 529 c 0
 303 555 291 560 282 560 c 0
578 459 m 0
 624 459 686 479 686 510 c 0
 686 534 646 547 596 547 c 256xf7c0
 579 547 487 537 487 498 c 0
 487 467 566 459 578 459 c 0
EndSplineSet
EndChar
StartChar: uni0E2C
Encoding: 3628 3628 255
Width: 765
VWidth: 1467
Flags: W
HStem: 0 21G<185 257.5 562 642.246> 360 25<220.011 256.935 251.537 262.333> 431 41<567.376 646.855> 518 21G<748 762.5> 550 41<556.968 687.943> 562 24<222.623 276.28>
VStem: 168 38<395.279 541.776> 291 36<426.312 551.627> 506 36<482.737 533.13> 801 47<529.616 615>
Fore
506 498 m 0xf7c0
 506 547 568 591 645 591 c 0xfbc0
 711 591 749 554 747 518 c 1
 778 540 791 567 801 615 c 1
 848 615 l 1
 827 528 778 490 738 471 c 1
 638 0 l 1
 597 0 l 1
 527 36 483 158 465 270 c 1
 393 123 288 33 227 0 c 1
 185 0 l 1
 263 365 l 1
 260 364 259 364 257 364 c 0
 256 364 254 360 238 360 c 0
 204 360 168 402 168 463 c 0
 168 525 205 586 256 586 c 0
 297 586 327 545 327 488 c 0
 327 477 326 465 323 452 c 2
 235 38 l 1
 306 98 409 212 480 355 c 1
 497 245 564 77 605 41 c 1
 691 449 l 1
 660 438 642 431 611 431 c 0
 553 431 506 457 506 498 c 0xf7c0
252 562 m 0xf7c0
 224 562 206 517 206 468 c 0
 206 421 225 385 246 385 c 0
 273 385 291 431 291 476 c 0
 291 524 271 562 252 562 c 0xf7c0
636 550 m 256xfbc0
 592 550 542 532 542 506 c 0
 542 479 597 472 619 472 c 0
 649 472 710 486 710 518 c 0
 710 544 658 550 636 550 c 256xfbc0
EndSplineSet
Substitution2: "Single Substitution lookup 22 subtable" uni0E2C.alt1
Substitution2: "Single Substitution lookup 22 subtable" uni0E2C.alt1
EndChar
StartChar: uni0E2D
Encoding: 3629 3629 256
Width: 644
VWidth: 1467
Flags: W
HStem: -4 37<223.507 433.745> 224 33<237.587 359.017> 356 33<296.14 412.348> 554 34<302.784 531.24>
VStem: 113 48<89.4371 211.785> 210 27<262.975 282.787> 418 26<302.548 355.222> 590 50<432.945 506.238>
Fore
211 283 m 1
 169 233 161 180 161 153 c 0
 161 70 238 33 323 33 c 0
 408 33 512 72 529 151 c 2
 587 423 l 2
 589 432 590 441 590 449 c 0
 590 536 484 554 420 554 c 0
 366 554 293 542 245 497 c 1
 209 514 l 1
 234 543 313 588 433 588 c 0
 515 588 640 565 640 469 c 0
 640 460 639 452 637 442 c 2
 577 162 l 2
 551 39 404 -4 313 -4 c 0
 229 -4 113 28 113 150 c 0
 113 329 298 389 373 389 c 0
 417 389 444 368 444 338 c 0
 444 284 362 224 283 224 c 0
 240 224 210 246 210 274 c 0
 210 277 210 280 211 283 c 1
271 257 m 0
 353 257 418 309 418 337 c 0
 418 353 402 356 384 356 c 0
 318 356 237 311 237 278 c 0
 237 268 243 257 271 257 c 0
EndSplineSet
EndChar
StartChar: uni0E2E
Encoding: 3630 3630 257
Width: 666
VWidth: 1467
Flags: W
HStem: -2 38<208.302 422.203> 173 33<212.839 323.762> 305 32<258.889 380.798> 392 32<294.95 545.782> 551 34<312.787 535.018>
VStem: 114 49<76.3607 182.398> 199 49<457.623 507.132> 381 26<249.818 299.368>
Fore
199 475 m 0
 199 504 264 585 428 585 c 0
 512 585 590 563 622 525 c 1
 643 550 681 589 727 609 c 1
 749 578 l 1
 724 564 l 2
 710 557 654 519 633 417 c 2
 577 153 l 2
 554 47 425 -2 306 -2 c 0
 188 -2 114 49 114 128 c 0
 114 229 232 337 331 337 c 0
 376 337 407 317 407 286 c 0
 407 236 324 173 244 173 c 0
 218 173 189 181 178 202 c 1
 171 189 163 160 163 135 c 0
 163 57 240 36 308 36 c 0
 387 36 515 75 532 153 c 2
 588 421 l 1
 555 405 503 392 406 392 c 0
 266 392 199 440 199 475 c 0
235 206 m 0
 305 206 381 251 381 285 c 0
 381 294 375 305 348 305 c 0
 264 305 198 251 198 226 c 0
 198 210 214 206 235 206 c 0
416 424 m 0
 487 424 601 456 601 476 c 0
 601 504 519 551 423 551 c 0
 338 551 248 507 248 482 c 0
 248 454 338 424 416 424 c 0
EndSplineSet
EndChar
StartChar: uni0E2F
Encoding: 3631 3631 258
Width: 523
VWidth: 1467
Flags: W
HStem: -1 21G<373 426.241> 389 36<266.993 358.155> 552 30<248.911 301.366>
VStem: 207 34<452.907 551.126> 329 33<448.553 521.978>
Fore
207 500 m 0
 207 556 245 582 275 582 c 0
 309 582 362 545 362 481 c 0
 362 460 356 442 349 427 c 1
 407 441 463 512 489 546 c 1
 538 546 l 1
 422 -1 l 1
 373 -1 l 1
 472 468 l 1
 428 424 380 389 303 389 c 0
 254 389 207 441 207 500 c 0
266 552 m 0
 256 552 241 544 241 516 c 0
 241 478 271 425 302 425 c 0
 321 425 329 444 329 464 c 0
 329 511 287 552 266 552 c 0
EndSplineSet
EndChar
StartChar: uni0E30
Encoding: 3632 3632 259
Width: 528
VWidth: 1467
Flags: W
HStem: 64 36<167.875 285.257> 169 33<183.708 274.47> 373 36<234.735 349.675> 477 35<245.767 340.598>
VStem: 118 32<107.464 154.475> 184 32<416.177 463.608> 296 29<135.473 160.026> 362 29<442.464 467.87>
Fore
184 432 m 0
 184 472 234 512 303 512 c 256
 351 512 391 489 391 453 c 0
 391 449 391 446 390 442 c 1
 437 463 465 489 500 531 c 1
 556 531 l 1
 531 501 427 373 284 373 c 0
 226 373 184 396 184 432 c 0
295 477 m 256
 286 477 216 471 216 438 c 0
 216 414 264 409 281 409 c 256
 310 409 362 425 362 448 c 0
 362 471 306 477 295 477 c 256
118 124 m 0
 118 172 181 202 237 202 c 256
 279 202 325 184 325 144 c 0
 325 140 325 136 324 132 c 1
 372 156 400 180 434 223 c 1
 490 223 l 1
 421 137 327 64 220 64 c 0
 158 64 118 88 118 124 c 0
215 100 m 256
 248 100 296 115 296 138 c 0
 296 163 244 169 230 169 c 256
 219 169 150 159 150 130 c 0
 150 106 192 100 215 100 c 256
EndSplineSet
EndChar
StartChar: uni0E31
Encoding: 3633 3633 260
Width: 0
VWidth: 1467
Flags: W
HStem: 697 35<-84.9058 26.1832> 801 35<-75.1659 18.9774>
VStem: -136 32<739.932 788.161> 38 32<766.2 793.713>
Fore
-136 757 m 0
 -136 794 -90 836 -19 836 c 256
 33 836 70 813 70 778 c 0
 70 774 70 770 69 766 c 1
 93 777 125 793 180 855 c 1
 236 855 l 1
 184 793 81 697 -32 697 c 0
 -106 697 -136 726 -136 757 c 0
-27 801 m 0
 -41 801 -104 793 -104 762 c 0
 -104 737 -52 732 -41 732 c 256
 -9 732 38 748 38 773 c 0
 38 796 -13 801 -27 801 c 0
EndSplineSet
Substitution2: "Single Substitution lookup 22 subtable" uni0E31.alt1
Substitution2: "Single Substitution lookup 22 subtable" uni0E31.alt1
EndChar
StartChar: uni0E32
Encoding: 3634 3634 261
Width: 422
VWidth: 1467
Flags: W
HStem: 0 21G<282 328.275> 547 38<198.233 315.55>
VStem: 364 48<385.208 497.033>
Fore
359 364 m 2
 362 379 364 397 364 414 c 0
 364 478 337 547 235 547 c 0
 214 547 194 544 173 537 c 1
 193 582 l 1
 200 584 207 585 214 585 c 2
 237 585 l 2
 350 585 412 514 412 431 c 0
 412 418 411 406 408 393 c 2
 324 0 l 1
 282 0 l 1
 359 364 l 2
EndSplineSet
EndChar
StartChar: uni0E33
Encoding: 3635 3635 262
Width: 422
VWidth: 1467
Flags: W
HStem: 0 21<282 328.275> 547 38<198.233 315.55> 717 25<-63.3123 16.8692> 864 24<-48.5999 31.142>
VStem: -113 38<752.357 837.594> 43 36<768.918 852.764> 364 48<385.208 497.033>
Back
280 582 m 0
 310.667 582 338 577.167 362 567.5 c 128
 386 557.833 405.5 544.5 420.5 527.5 c 128
 435.5 510.5 446 490.167 452 466.5 c 128
 458 442.833 458 418 452 392 c 2
 370 1 l 1
 326 1 l 1
 402 362 l 2
 408 390.667 409.5 415.5 406.5 436.5 c 128
 403.5 457.5 396.667 476.667 386 494 c 0
 364.667 527.333 328.333 544 277 544 c 0
 257.667 544 238.333 540.667 219 534 c 1
 236 580 l 1
 244 581.333 251.333 582 258 582 c 128
 268 582 268 582 280 582 c 0
-37 817 m 2
 -14.3333 817 4.66667 808.667 20 792 c 128
 35.3333 775.333 40 755.333 34 732 c 0
 28.6667 708.667 15.8333 688.667 -4.5 672 c 128
 -24.8333 655.333 -47.6667 647 -73 647 c 2
 -75 647 l 2
 -100.333 647 -119.833 655.333 -133.5 672 c 128
 -147.167 688.667 -152.667 708.667 -150 732 c 0
 -144.667 756.667 -131 777 -109 793 c 128
 -87 809 -63.3333 817 -38 817 c 2
 -37 817 l 2
-66 672 m 2
 -51.3333 671.333 -36.8333 676.833 -22.5 688.5 c 128
 -8.16667 700.167 -0.333333 714.667 1 732 c 0
 3 750.667 0.166667 765.167 -7.5 775.5 c 128
 -15.1667 785.833 -26 792 -40 794 c 1
 -41 794 l 2
 -57.6667 794 -72.6667 787.833 -86 775.5 c 128
 -99.3333 763.167 -108.333 748.667 -113 732 c 0
 -117 714.667 -114.333 699.833 -105 687.5 c 128
 -95.6667 675.167 -83 670 -67 672 c 2
 -66 672 l 2
EndSplineSet
Refer: 284 3661 N 1 0 0 1 0 0 2
Refer: 261 3634 N 1 0 0 1 0 0 2
Substitution2: "Single Substitution lookup 22 subtable" uni0E33.alt1
Substitution2: "Single Substitution lookup 22 subtable" uni0E33.alt1
EndChar
StartChar: uni0E34
Encoding: 3636 3636 263
Width: 0
VWidth: 1467
Flags: W
HStem: 697 29<-327 10> 796 40<-248.215 -32.1126>
VStem: -369 423<697 708 697 697 697 697>
Fore
-367 708 m 2
 -356 759 -263 836 -133 836 c 0
 -62 836 30 813 48 726 c 2
 54 697 l 1
 -369 697 l 1
 -367 708 l 2
10 726 m 1
 -3 774 -66 796 -132 796 c 0
 -200 796 -285 778 -327 726 c 1
 10 726 l 1
EndSplineSet
Substitution2: "Single Substitution lookup 22 subtable" uni0E34.alt1
Substitution2: "Single Substitution lookup 22 subtable" uni0E34.alt1
EndChar
StartChar: uni0E35
Encoding: 3637 3637 264
Width: 0
VWidth: 1467
Flags: W
HStem: 697 29<-327 9> 697 167<39 51 -369 87 39 39> 796 39<-249.457 -31.7273>
Fore
-367 708 m 2x40
 -356 758 -266 835 -134 835 c 0x20
 -65 835 -12 815 21 781 c 1
 39 864 l 1
 87 864 l 1
 51 697 l 1
 -369 697 l 1
 -367 708 l 2x40
10 729 m 1
 -5 777 -71 796 -136 796 c 0
 -199 796 -287 777 -327 726 c 1
 9 726 l 1xa0
 10 729 l 1
EndSplineSet
Substitution2: "Single Substitution lookup 22 subtable" uni0E35.alt1
Substitution2: "Single Substitution lookup 22 subtable" uni0E35.alt1
EndChar
StartChar: uni0E36
Encoding: 3638 3638 265
Width: 0
VWidth: 1467
Flags: W
HStem: 697 29<-310 28> 796 40<-227.047 -41.7626> 855 35<-22.7809 96.162>
VStem: 109 21<779.517 839.993>
Fore
130 820 m 0
 130 787 106 754 64 738 c 1
 64 735 72 701 72 697 c 1
 -351 697 l 1
 -349 708 l 2
 -337 762 -240 836 -113 836 c 0
 -93 836 -74 834 -56 830 c 1
 -40 864 0 890 44 890 c 0
 99 890 130 856 130 820 c 0
28 726 m 1
 15 774 -48 796 -114 796 c 0
 -235 796 -291 750 -310 726 c 1
 28 726 l 1
50 767 m 1
 90 774 109 792 109 809 c 0
 109 837 65 855 38 855 c 0
 11 855 -19 845 -35 825 c 1
 -6 816 29 800 50 767 c 1
EndSplineSet
Substitution2: "Single Substitution lookup 22 subtable" uni0E36.alt1
Substitution2: "Single Substitution lookup 22 subtable" uni0E36.alt1
EndChar
StartChar: uni0E37
Encoding: 3639 3639 266
Width: 0
VWidth: 1467
Flags: W
HStem: 697 29<-327 9> 697 167<39 51 -369 87 39 39> 796 38<-246.048 -67.7321>
Fore
-128 834 m 0x20
 -105 834 -83 832 -63 828 c 1
 -55 864 l 1
 -7 864 l 1
 -19 810 l 1
 -2 800 11 790 21 781 c 1
 39 864 l 1
 87 864 l 1
 51 697 l 1
 -369 697 l 1x40
 -367 708 l 2
 -356 757 -262 834 -128 834 c 0x20
10 729 m 1
 -5 777 -71 796 -136 796 c 0
 -199 796 -287 777 -327 726 c 1
 9 726 l 1xa0
 10 729 l 1
EndSplineSet
Substitution2: "Single Substitution lookup 22 subtable" uni0E37.alt1
Substitution2: "Single Substitution lookup 22 subtable" uni0E37.alt1
EndChar
StartChar: uni0E38
Encoding: 3640 3640 267
Width: 0
VWidth: 1467
Flags: W
HStem: -228 25<-235.183 -185.346> -101 26<-196.163 -147.256>
VStem: -265 28<-201.201 -143.243> -145 22<-148.277 -103.036>
Fore
-265 -195 m 0
 -265 -140 -206 -75 -156 -75 c 0
 -132 -75 -123 -89 -123 -113 c 0
 -123 -130 -128 -152 -133 -177 c 2
 -158 -295 l 1
 -195 -295 l 1
 -175 -204 l 1
 -192 -218 -208 -228 -232 -228 c 0
 -257 -228 -265 -214 -265 -195 c 0
-159 -101 m 0
 -183 -101 -237 -157 -237 -190 c 0
 -237 -198 -233 -203 -224 -203 c 0
 -193 -203 -145 -139 -145 -113 c 0
 -145 -107 -149 -101 -159 -101 c 0
EndSplineSet
Substitution2: "Single Substitution lookup 21 subtable" a
Substitution2: "Single Substitution lookup 22 subtable" uni0E38.alt1
Substitution2: "Single Substitution lookup 21 subtable" a
Substitution2: "Single Substitution lookup 22 subtable" uni0E38.alt1
EndChar
StartChar: uni0E39
Encoding: 3641 3641 268
Width: 0
VWidth: 1467
Flags: W
HStem: -293 36<-271 -187.365> -238 31<-377.652 -312.589> -96 26<-321.312 -268.965>
VStem: -397 30<-206.948 -144.138> -267 26<-135.1 -98.8007>
Fore
-397 -199 m 0
 -397 -142 -331 -70 -278 -70 c 0
 -245 -70 -241 -94 -241 -111 c 2
 -241 -119 l 1
 -271 -257 l 1
 -221 -257 l 2
 -200 -257 -181 -237 -175 -208 c 2
 -146 -69 l 1
 -109 -69 l 1
 -137 -202 l 2
 -156 -292 -208 -293 -254 -293 c 2
 -316 -293 l 1
 -298 -208 l 1
 -318 -227 -343 -238 -368 -238 c 0
 -393 -238 -397 -215 -397 -199 c 0
-280 -96 m 0
 -315 -96 -367 -162 -367 -192 c 0
 -367 -204 -358 -207 -352 -207 c 0
 -319 -207 -267 -137 -267 -108 c 0
 -267 -101 -270 -96 -280 -96 c 0
EndSplineSet
Substitution2: "Single Substitution lookup 21 subtable" b
Substitution2: "Single Substitution lookup 22 subtable" uni0E39.alt1
Substitution2: "Single Substitution lookup 21 subtable" b
Substitution2: "Single Substitution lookup 22 subtable" uni0E39.alt1
EndChar
StartChar: uni0E3A
Encoding: 3642 3642 269
Width: 0
VWidth: 1467
Flags: W
HStem: -195 115<-190.016 -139.112>
VStem: -209 89<-176.446 -97.7365>
Fore
-209 -156 m 0
 -209 -123 -186 -80 -152 -80 c 0
 -132 -80 -120 -96 -120 -120 c 0
 -120 -157 -147 -195 -176 -195 c 0
 -197 -195 -209 -179 -209 -156 c 0
EndSplineSet
Substitution2: "Single Substitution lookup 21 subtable" c
Substitution2: "Single Substitution lookup 22 subtable" uni0E3A.alt1
Substitution2: "Single Substitution lookup 21 subtable" c
Substitution2: "Single Substitution lookup 22 subtable" uni0E3A.alt1
EndChar
StartChar: uni0E3F
Encoding: 3647 3647 270
Width: 658
VWidth: 1467
Flags: W
HStem: 4 39<138 241 296 457.221> 412 41<383 433 481 487.739> 679 37<273 384 439 553.439>
VStem: 579 48<199.93 333.277 528.313 655.156>
Fore
623 608 m 0
 623 521 550 450 481 431 c 1
 605 401 627 323 627 268 c 0
 627 245 623 227 621 217 c 0
 585 47 443 4 341 4 c 2
 287 4 l 1
 259 -125 l 1
 213 -125 l 1
 241 4 l 1
 86 4 l 1
 237 716 l 1
 392 716 l 1
 420 845 l 1
 467 845 l 1
 439 716 l 1
 504 716 l 2
 591 716 623 664 623 608 c 0
433 453 m 2
 494 453 579 517 579 596 c 0
 579 642 550 679 500 679 c 2
 431 679 l 1
 383 453 l 1
 433 453 l 2
249 43 m 1
 384 679 l 1
 273 679 l 1
 138 43 l 1
 249 43 l 1
360 43 m 2
 522 43 579 181 579 259 c 0
 579 351 498 404 425 412 c 2
 375 412 l 1
 296 43 l 1
 360 43 l 2
EndSplineSet
EndChar
StartChar: uni0E40
Encoding: 3648 3648 271
Width: 315
VWidth: 1467
Flags: W
HStem: -4 27<144.881 200.226> 198 24<208.637 252.826> 562 20G<216.747 266>
VStem: 111 33<29.2705 107.698> 254 34<88.8253 191.673>
Fore
288 163 m 0
 288 81 217 -4 158 -4 c 0
 135 -4 111 18 111 60 c 0
 111 79 116 98 120 107 c 1
 221 582 l 1
 266 582 l 1
 185 201 l 1
 205 215 221 222 238 222 c 0
 276 222 288 193 288 163 c 0
234 198 m 0
 204 198 144 115 144 55 c 0
 144 36 150 23 163 23 c 0
 199 23 254 103 254 164 c 0
 254 181 250 198 234 198 c 0
EndSplineSet
EndChar
StartChar: uni0E41
Encoding: 3649 3649 272
Width: 573
VWidth: 1467
Flags: W
HStem: -1 26<149.631 198.589 412.177 460.846> 200 25<208.541 252.126 471.611 516.425> 561 20G<213.787 264 476.781 526>
VStem: 112 32<25.4059 111.245> 253 33<93.4349 194.544> 374 33<25.2838 109.731> 518 31<93.1376 192.576>
Fore
286 163 m 0
 286 91 221 -1 157 -1 c 0
 128 -1 112 25 112 62 c 0
 112 71 113 81 115 92 c 2
 218 581 l 1
 264 581 l 1
 184 202 l 1
 201 217 220 225 238 225 c 0
 274 225 286 195 286 163 c 0
235 200 m 0
 207 200 144 123 144 56 c 0
 144 32 155 25 164 25 c 0
 200 25 253 115 253 169 c 0
 253 185 249 200 235 200 c 0
549 163 m 0
 549 92 487 -1 420 -1 c 0
 392 -1 374 25 374 61 c 0
 374 70 375 79 377 88 c 2
 481 581 l 1
 526 581 l 1
 446 202 l 1
 472 224 496 225 501 225 c 0
 537 225 549 196 549 163 c 0
497 200 m 0
 469 200 407 125 407 56 c 0
 407 32 418 25 427 25 c 0
 454 25 518 102 518 164 c 0
 518 184 511 200 497 200 c 0
EndSplineSet
EndChar
StartChar: uni0E42
Encoding: 3650 3650 273
Width: 381
VWidth: 1467
Flags: W
HStem: -10 26<211.251 260.581> 192 24<270.856 315.199> 985 38<311.94 503.847>
VStem: 174 32<16.3457 100.805> 218 50<882.622 949.108> 316 34<84.8276 186.225> 327 45<762.581 785.523 785.523 786.023 785.773 830.143>
Fore
411 985 m 0xfa
 345 985 268 953 268 917 c 0
 268 864 372 866 372 794 c 0xfa
 372 789 371 784 370 778 c 2
 246 194 l 1
 273 216 295 216 300 216 c 0
 335 216 350 188 350 155 c 0xfc
 350 94 288 -10 220 -10 c 0
 199 -10 174 10 174 53 c 0
 174 61 175 70 177 80 c 2
 326 779 l 2
 327 784 327 788 327 792 c 0
 327 854 218 845 218 901 c 0
 218 955 293 1023 417 1023 c 0
 475 1023 572 1002 572 1002 c 1
 573 955 l 1
 513 976 453 985 411 985 c 0xfa
296 192 m 0
 267 192 206 114 206 46 c 0
 206 21 218 16 227 16 c 0
 257 16 316 96 316 160 c 0xfc
 316 177 312 192 296 192 c 0
EndSplineSet
EndChar
StartChar: uni0E43
Encoding: 3651 3651 274
Width: 384
VWidth: 1467
Flags: W
HStem: -1 26<198.646 255.508> 199 25<263.183 302.343> 752 25<226.335 286.116> 978 33<325.61 438.396>
VStem: 165 33<29.9436 106.987> 189 32<779.553 908.785> 309 33<92.7143 198.757> 324 29<820.99 947.861> 469 42<816.86 948.331>
Fore
189 828 m 0xf580
 189 931 276 1011 377 1011 c 0
 445 1011 511 968 511 893 c 0
 511 823 462 764 414 719 c 2
 374 688 l 2
 348 667 334 654 333 647 c 2
 238 201 l 1
 256 216 275 224 294 224 c 0
 329 224 342 195 342 162 c 0
 342 79 265 -1 214 -1 c 0
 179 -1 165 26 165 59 c 0xfa80
 165 68 166 77 168 87 c 2
 292 666 l 2
 295 681 303 682 322 695 c 2
 377 737 l 2
 455 799 469 859 469 890 c 0
 469 944 429 978 372 978 c 0
 355 978 337 976 317 971 c 1
 341 961 353 932 353 897 c 0
 353 813 289 752 247 752 c 0
 210 752 189 784 189 828 c 0xf580
292 952 m 0
 258 952 221 885 221 830 c 0
 221 799 233 777 252 777 c 0
 282 777 324 842 324 890 c 0xf580
 324 924 307 952 292 952 c 0
286 199 m 0
 255 199 198 111 198 52 c 0
 198 36 203 25 218 25 c 0
 255 25 309 110 309 166 c 0xfa80
 309 192 296 199 286 199 c 0
EndSplineSet
EndChar
StartChar: uni0E44
Encoding: 3652 3652 275
Width: 432
VWidth: 1467
Flags: W
HStem: -6 24<257.706 312.549> 195 23<321.979 366.856> 980 41<322.165 388.51>
VStem: 224 33<23.8304 101.88> 368 34<87.2308 194.719> 397 44<868.676 974.139>
Fore
402 158 m 0xf8
 402 76 325 -6 273 -6 c 0
 253 -6 224 11 224 54 c 0
 224 61 225 70 227 79 c 0
 236 114 380 787 380 787 c 2
 387 822 397 870 397 909 c 0
 397 949 387 980 356 980 c 0
 289 980 239 873 210 814 c 1
 205 835 172 958 115 967 c 1
 126 1023 l 1
 210 988 221 931 221 888 c 1
 265 967 276 985 312 1005 c 0
 331 1016 348 1021 364 1021 c 0
 397 1021 441 995 441 918 c 0xf4
 441 885 430 813 420 769 c 2
 296 195 l 1
 326 216 342 218 352 218 c 0
 391 218 402 187 402 158 c 0xf8
346 195 m 0
 315 195 257 111 257 48 c 0
 257 32 262 18 277 18 c 0
 310 18 368 103 368 161 c 0xf8
 368 182 360 195 346 195 c 0
EndSplineSet
EndChar
StartChar: uni0E45
Encoding: 3653 3653 276
Width: 409
VWidth: 1467
Flags: W
HStem: 547 38<183.233 298.281>
VStem: 349 48<385.125 496.629>
Fore
344 364 m 2
 347 379 349 397 349 414 c 0
 349 478 322 547 220 547 c 0
 199 547 179 544 158 537 c 1
 178 582 l 1
 185 584 192 585 199 585 c 2
 222 585 l 2
 338 585 397 513 397 430 c 0
 397 418 396 405 393 393 c 2
 256 -248 l 1
 214 -248 l 1
 344 364 l 2
EndSplineSet
EndChar
StartChar: uni0E46
Encoding: 3654 3654 277
Width: 603
VWidth: 1467
Flags: W
HStem: 291 38<208.822 262.824> 565 20G<341.5 401 485.5 530>
VStem: 158 45<330.723 442.675> 296 46<371.625 498.835> 405 44<-238.839 419.63> 554 47<444.717 519.394>
Fore
342 460 m 0
 342 382 285 291 222 291 c 0
 186 291 158 327 158 382 c 0
 158 394 159 406 162 420 c 256
 187 535 289 571 394 585 c 1
 408 540 414 532 423 496 c 1
 482 568 474 560 497 585 c 1
 563 578 601 551 601 486 c 0
 601 471 599 455 595 437 c 2
 449 -248 l 1
 405 -248 l 1
 544 405 l 2
 550 434 554 456 554 474 c 0
 554 507 540 523 499 533 c 1
 407 418 l 1
 367 533 l 1
 353 530 339 526 325 521 c 1
 337 503 342 481 342 460 c 0
266 511 m 0
 241 511 203 449 203 388 c 0
 203 357 212 329 232 329 c 0
 264 329 296 401 296 449 c 0
 296 482 285 511 266 511 c 0
EndSplineSet
EndChar
StartChar: uni0E47
Encoding: 3655 3655 278
Width: 0
VWidth: 1467
Flags: W
HStem: 687 35<-244.349 -194.246 -75.8453 -21.051> 819 21<-41.0928 11.3019> 874 36<-211.62 15.5495>
VStem: -289 33<732.771 832.725> 14 21<753.884 818.682>
Fore
-147 874 m 2
 -214 874 -256 819 -256 783 c 0
 -256 755 -239 722 -208 722 c 0
 -198 722 -188 727 -181 738 c 2
 -114 817 l 1
 -110 809 -88 760 -88 760 c 1
 -79 804 -32 840 -1 840 c 0
 26 840 35 827 35 810 c 0
 35 760 -19 686 -69 686 c 0
 -91 686 -98 702 -100 713 c 1
 -122 770 l 1
 -190 687 l 1
 -219 687 -289 704 -289 770 c 0
 -289 851 -208 910 -131 910 c 0
 -38 910 -1 915 21 936 c 2
 47 961 l 1
 76 938 l 1
 48 914 l 2
 11 881 -52 874 -122 874 c 2
 -147 874 l 2
-1 819 m 0
 -34 819 -76 763 -76 732 c 0
 -76 723 -72 715 -59 715 c 0
 -23 715 14 784 14 804 c 0
 14 816 5 819 -1 819 c 0
EndSplineSet
Substitution2: "Single Substitution lookup 22 subtable" uni0E47.alt1
Substitution2: "Single Substitution lookup 22 subtable" uni0E47.alt1
EndChar
StartChar: uni0E48
Encoding: 3656 3656 279
Width: 0
VWidth: 1467
Flags: W
HStem: 954 123<91 110 65 136 91 91>
Fore
110 954 m 1
 65 954 l 1
 91 1077 l 1
 136 1077 l 1
 110 954 l 1
EndSplineSet
Substitution2: "Single Substitution lookup 22 subtable" uni0E48.alt2
Substitution2: "Single Substitution lookup 22 subtable" uni0E48.alt2
EndChar
StartChar: uni0E49
Encoding: 3657 3657 280
Width: 0
VWidth: 1467
Flags: W
HStem: 923 26<-43 -5> 975 17<10.2617 43.1945> 1100 14<38.9904 77.9178>
VStem: -11 21<993.92 1069.68> 78 22<1019.03 1097.46>
Fore
-11 1015 m 0
 -11 1058 32 1114 69 1114 c 0
 77 1114 100 1110 100 1077 c 0
 100 1037 69 974 32 949 c 1
 142 962 187 1010 227 1093 c 1
 267 1093 l 1
 219 970 144 923 -1 923 c 2
 -49 923 l 1
 -43 949 l 1
 -5 949 l 1
 16 965 23 963 43 983 c 1
 35 978 26 975 18 975 c 0
 -1 975 -11 992 -11 1015 c 0
65 1100 m 0
 53 1100 10 1055 10 1009 c 0
 10 998 13 992 23 992 c 0
 45 992 78 1044 78 1081 c 0
 78 1092 75 1100 65 1100 c 0
EndSplineSet
Substitution2: "Single Substitution lookup 22 subtable" uni0E49.alt2
Substitution2: "Single Substitution lookup 22 subtable" uni0E49.alt2
EndChar
StartChar: uni0E4A
Encoding: 3658 3658 281
Width: 0
VWidth: 1467
Flags: W
HStem: 931 21<-16.7435 48.8279> 1012 20<-19.7518 24.8663 9.625 40.6638>
VStem: -61 25<963.219 1024.72> 49 16<962.651 1001.33> 184 31<996.361 1076.64>
Fore
65 978 m 0
 65 965 56 931 18 931 c 0
 9 931 -61 936 -61 995 c 0
 -61 1054 -2 1115 52 1115 c 1
 93 1073 l 1
 134 1115 l 1
 166 1115 215 1100 215 1043 c 0
 215 1018 209 998 192 976 c 1
 256 1007 287 1058 317 1146 c 1
 357 1146 l 1
 317 1027 232 942 146 939 c 1
 150 958 l 1
 172 978 184 1003 184 1032 c 0
 184 1084 134 1087 134 1087 c 1
 113 1070 101 1054 86 1042 c 1
 40 1089 l 1
 -19 1063 -18 1041 -20 1030 c 1
 -14 1031 -8 1032 -2 1032 c 0
 41 1032 65 1004 65 978 c 0
20 1005 m 0
 19 1005 4 1012 -12 1012 c 0
 -27 1012 -36 999 -36 990 c 0
 -36 972 -3 952 23 952 c 0
 42 952 49 967 49 974 c 0
 49 990 24 1005 20 1005 c 0
EndSplineSet
Substitution2: "Single Substitution lookup 22 subtable" uni0E4A.alt2
Substitution2: "Single Substitution lookup 22 subtable" uni0E4A.alt2
EndChar
StartChar: uni0E4B
Encoding: 3659 3659 282
Width: 0
VWidth: 1467
Flags: W
HStem: 1012 39<-5 73 129 203 -13 211 -5 -5>
Fore
203 1012 m 1
 121 1012 l 1
 102 924 l 1
 54 924 l 1
 73 1012 l 1
 -13 1012 l 1
 -5 1051 l 1
 81 1051 l 1
 101 1141 l 1
 149 1141 l 1
 129 1051 l 1
 211 1051 l 1
 203 1012 l 1
EndSplineSet
Substitution2: "Single Substitution lookup 22 subtable" uni0E4B.alt2
Substitution2: "Single Substitution lookup 22 subtable" uni0E4B.alt2
EndChar
StartChar: uni0E4C
Encoding: 3660 3660 283
Width: 0
VWidth: 1467
Flags: W
HStem: 936 25<34.7391 78.008>
VStem: 2 31<968.079 1069.28> 95 30<976.123 1078.47> 201 33<1218.85 1237>
Fore
125 1047 m 0
 125 1007 94 936 49 936 c 0
 17 936 2 967 2 1001 c 0
 2 1128 158 1134 191 1210 c 0
 195 1217 198 1226 201 1237 c 1
 234 1234 l 1
 230 1213 l 2
 221 1172 122 1117 99 1103 c 1
 116 1092 125 1070 125 1047 c 0
52 961 m 0
 66 961 95 992 95 1045 c 0
 95 1071 86 1086 78 1086 c 0
 60 1086 33 1046 33 998 c 0
 33 981 37 961 52 961 c 0
EndSplineSet
Substitution2: "Single Substitution lookup 22 subtable" uni0E4C.alt2
Substitution2: "Single Substitution lookup 22 subtable" uni0E4C.alt2
EndChar
StartChar: uni0E4D
Encoding: 3661 3661 284
Width: 0
VWidth: 1467
Flags: W
HStem: 717 25<-63.3123 16.8692> 864 24<-48.5999 31.142>
VStem: -113 38<752.357 837.594> 43 36<768.918 852.764>
Fore
-113 786 m 0
 -113 847 -50 888 2 888 c 0
 47 888 79 858 79 819 c 0
 79 765 22 717 -35 717 c 0
 -81 717 -113 746 -113 786 c 0
-6 864 m 0
 -40 864 -75 819 -75 795 c 0
 -75 771 -52 742 -28 742 c 0
 1 742 43 780 43 810 c 0
 43 834 21 864 -6 864 c 0
EndSplineSet
Substitution2: "Single Substitution lookup 22 subtable" uni0E4D.alt1
Substitution2: "Single Substitution lookup 22 subtable" uni0E4D.alt1
EndChar
StartChar: uni0E4E
Encoding: 3662 3662 285
Width: 0
VWidth: 1467
Flags: W
HStem: 664 44<-110.558 -32.9437> 819 44<-37.8125 20> 970 44<8.52893 162.508>
VStem: -163 29<717.869 780.323> -73 31<869.044 931.757>
Fore
94 970 m 0
 23 970 -42 930 -42 896 c 0
 -42 877 -24 868 -1 863 c 1
 16 863 l 2
 32 863 30 860 36 860 c 1
 20 819 l 1
 -1 819 l 2
 -39 819 -134 789 -134 745 c 0
 -134 714 -88 708 -57 708 c 0
 -35 708 -30 712 -23 714 c 2
 -8 717 l 1
 -17 701 -26 684 -34 666 c 1
 -44 665 -52 664 -60 664 c 0
 -113 664 -163 691 -163 740 c 0
 -163 784 -122 828 -60 850 c 1
 -67 860 -73 875 -73 892 c 0
 -73 955 16 1014 98 1014 c 0
 151 1014 175 988 180 982 c 1
 156 957 l 1
 147 963 133 970 94 970 c 0
EndSplineSet
Substitution2: "Single Substitution lookup 22 subtable" uni0E4E.alt1
Substitution2: "Single Substitution lookup 22 subtable" uni0E4E.alt1
EndChar
StartChar: uni0E4F
Encoding: 3663 3663 286
Width: 660
VWidth: 1467
Flags: W
HStem: -9 50<248.168 425.77> 92 53<299.066 420.096> 333 51<331.434 449.475> 436 51<324.585 500.906>
VStem: 121 53<115.652 287.141> 227 52<165.228 280.829> 471 52<196.348 312.389> 577 51<190.787 362.632>
Fore
395 333 m 256
 332 333 279 276 279 218 c 0
 279 175 311 145 355 145 c 256
 421 145 471 204 471 258 c 0
 471 299 443 333 395 333 c 256
227 208 m 0
 227 303 316 384 406 384 c 256
 478 384 523 335 523 270 c 0
 523 180 438 92 344 92 c 256
 274 92 227 143 227 208 c 0
417 436 m 0
 283 436 174 313 174 196 c 0
 174 106 240 41 333 41 c 0
 455 41 577 153 577 282 c 0
 577 373 510 436 417 436 c 0
628 290 m 0
 628 136 482 -9 322 -9 c 256
 199 -9 121 75 121 186 c 0
 121 344 269 487 428 487 c 0
 546 487 628 403 628 290 c 0
EndSplineSet
EndChar
StartChar: uni0E50
Encoding: 3664 3664 287
Width: 815
VWidth: 1467
Flags: W
HStem: -1 45<324.391 523.509> 443 47<404.138 613.128>
VStem: 180 46<137.533 291.217> 703 42<199.102 361.892>
Fore
180 203 m 0
 180 347 352 490 515 490 c 0
 650 490 745 393 745 283 c 0
 745 148 586 -1 411 -1 c 0
 274 -1 180 93 180 203 c 0
505 443 m 0
 329 443 226 305 226 214 c 0
 226 128 300 44 421 44 c 0
 563 44 703 157 703 283 c 0
 703 370 636 443 505 443 c 0
EndSplineSet
EndChar
StartChar: uni0E51
Encoding: 3665 3665 288
Width: 815
VWidth: 1467
Flags: W
HStem: 0 39<288.744 504.78> 153 35<322.139 485.128> 278 36<391.668 518.766> 442 36<376.44 609.659>
VStem: 199 43<231.366 336.512> 321 26<201.21 245.267> 529 26<223.605 274.728> 696 45<275.147 282 282 299.023 299.023 302.023 302.023 371.871>
Fore
321 207 m 0
 321 269 417 314 472 314 c 0
 522 314 555 292 555 258 c 0
 555 205 482 153 383 153 c 0
 303 153 199 178 199 261 c 0
 199 359 308 478 513 478 c 0
 611 478 741 446 741 342 c 2
 741 329 l 2
 741 313 738 299 735 282 c 2
 713 180 l 2
 705 141 672 78 607 44 c 0
 533 6 441 0 402 0 c 0
 263 0 187 54 177 88 c 1
 236 106 l 1
 245 91 l 2
 264 61 332 39 408 39 c 0
 474 39 543 53 591 76 c 0
 637 101 665 155 677 214 c 2
 694 291 l 2
 696 299 696 306 696 313 c 0
 696 391 605 442 491 442 c 0
 323 442 242 342 242 276 c 0
 242 254 254 221 322 201 c 1
 321 202 321 204 321 207 c 0
482 278 m 0
 417 278 347 247 347 212 c 0
 347 197 360 188 398 188 c 0
 470 188 529 228 529 255 c 0
 529 274 500 278 482 278 c 0
EndSplineSet
EndChar
StartChar: uni0E52
Encoding: 3666 3666 289
Width: 815
VWidth: 1467
Flags: W
HStem: 0 37<250.64 573.124> 244 26<334.7 387.874> 455 25<359.697 411.757>
VStem: 116 50<119.424 226.378 224.68 228.076 228.076 238 238 254.478> 290 37<289.469 411.194> 418 37<309.635 380> 748 46<279.917 295 298 313.04 313.04 325.718 319.379 407.249>
Fore
290 326 m 0
 290 395 338 480 396 480 c 0
 414 480 428 472 440 456 c 1
 541 355 l 1
 571 383 643 432 679 477 c 1
 752 467 800 422 800 344 c 0
 800 329 798 313 794 295 c 2
 782 238 l 2
 754 108 627 0 494 0 c 2
 307 0 l 2
 190 0 116 84 116 189 c 0
 116 205 117 221 121 238 c 2
 210 657 l 1
 256 657 l 1
 173 268 l 2
 168 245 166 225 166 206 c 0
 166 73 277 37 332 37 c 2
 483 37 l 2
 547 39 703 83 742 267 c 2
 748 298 l 2
 751 314 753 328 753 341 c 0
 753 396 724 422 689 439 c 1
 537 305 l 1
 455 380 l 1
 455 358 427 244 349 244 c 0
 314 244 290 277 290 326 c 0
389 455 m 256
 361 455 327 383 327 338 c 0
 327 309 335 270 359 270 c 0
 388 270 418 342 418 390 c 0
 418 420 411 455 389 455 c 256
EndSplineSet
EndChar
StartChar: uni0E53
Encoding: 3667 3667 290
Width: 815
VWidth: 1467
Flags: MW
HStem: -3 36<265.395 396.263> 126 34<294.089 427.681> 293 80<467 484> 447 46<422 448>
VStem: 152 48<81.2937 171.482 170.625 172.34 172.34 186 186 202.593> 440 27<67.2042 121.692> 711 50<297.649 301 301 313.728 313.728 330.023 321.875 394.49>
Fore
467 103 m 0
 467 46 385 -3 308 -3 c 0
 255 -3 152 40 152 146 c 0
 152 159 153 172 156 186 c 2
 183 314 l 2
 205 421 319 481 448 493 c 1
 484 373 l 1
 518 413 538 451 571 493 c 1
 683 482 764 433 764 346 c 0
 764 336 763 325 761 314 c 2
 694 1 l 1
 647 1 l 1
 711 301 l 2
 713 312 715 323 715 333 c 0
 715 408 647 435 578 447 c 1
 467 293 l 1
 422 447 l 1
 375 440 252 418 227 301 c 2
 207 208 l 2
 202 185 200 166 200 151 c 0
 200 99 221 82 229 73 c 1
 246 128 322 160 382 160 c 0
 425 160 467 142 467 103 c 0
306 33 m 0
 364 33 440 65 440 99 c 0
 440 120 414 126 385 126 c 0
 318 126 252 91 252 59 c 0
 252 38 284 33 306 33 c 0
EndSplineSet
EndChar
StartChar: uni0E54
Encoding: 3668 3668 291
Width: 815
VWidth: 1467
Flags: W
HStem: 0 41<290.266 505 597.256 706> 120 29<519.109 524 521.554 583.03> 292 30<594.422 667.315> 442 39<394.491 682.931>
VStem: 155 53<120.527 276.178> 470 34<124.18 207.884> 672 26<230.714 291.674> 796 46<549.236 654>
Fore
470 127 m 0
 470 235 576 322 649 322 c 0
 680 322 698 301 698 273 c 0
 698 208 602 119 529 119 c 0
 525 119 523 120 519 120 c 1
 537 42 601 40 644 40 c 2
 715 41 l 1
 706 0 l 1
 336 0 l 2
 281 0 155 54 155 182 c 0
 155 307 283 481 497 481 c 2
 568 481 l 2
 658 481 749 502 796 654 c 1
 842 654 l 1
 794 533 727 442 584 442 c 2
 503 442 l 2
 350 442 208 320 208 199 c 0
 208 122 262 54 349 41 c 1
 505 41 l 1
 476 69 470 103 470 127 c 0
650 292 m 0
 595 292 504 200 504 168 c 0
 504 157 513 149 525 149 c 0
 587 149 672 241 672 273 c 0
 672 284 662 292 650 292 c 0
EndSplineSet
EndChar
StartChar: uni0E55
Encoding: 3669 3669 292
Width: 815
VWidth: 1467
Flags: W
HStem: 0 40<343 495 583.129 689> 119 29<508.03 513.523 510.777 573.835> 286 28<579.502 652.933> 433 37<432.132 586.531> 555 35<443.263 592.169>
VStem: 156 48<117.215 259.368> 397 26<482.826 537.321> 462 46<93.9714 119> 602 26<496.972 541.2> 657 27<224.422 285.749> 779 42<533.009 638>
Fore
684 267 m 0
 684 201 583 118 519 118 c 0
 516 118 512 119 508 119 c 1
 513 84 541 56 568 45 c 0
 581 41 601 38 630 38 c 2
 698 40 l 1
 689 0 l 1
 331 0 l 1
 295 6 156 37 156 165 c 0
 156 277 258 420 415 461 c 1
 401 475 397 488 397 499 c 0
 397 560 472 590 527 590 c 0
 583 590 628 564 628 526 c 0
 628 516 626 493 600 471 c 1
 644 476 735 495 779 638 c 1
 821 638 l 1
 772 516 710 433 571 433 c 2
 490 433 l 2
 361 433 204 310 204 186 c 0
 204 94 295 58 343 40 c 1
 495 40 l 1
 471 62 462 94 462 128 c 0
 462 144 464 160 467 176 c 0
 480 234 560 314 637 314 c 0
 671 314 684 291 684 267 c 0
514 148 m 0
 571 148 657 230 657 268 c 0
 657 282 645 286 636 286 c 0
 590 286 492 205 492 165 c 0
 492 155 502 148 514 148 c 0
520 555 m 0
 473 555 423 537 423 510 c 0
 423 487 461 470 502 470 c 0
 547 470 602 488 602 516 c 0
 602 540 554 555 520 555 c 0
EndSplineSet
EndChar
StartChar: uni0E56
Encoding: 3670 3670 293
Width: 815
VWidth: 1459
Flags: W
HStem: -3 44<379.364 534.771> 249 26<303.845 359.155> 453 35<341.656 604.596>
VStem: 245 49<536.389 642.912> 248 38<77.0317 228.64> 373 38<109.253 239.149> 707 51<191.297 358.816>
Fore
248 150 m 0xee
 248 217 291 275 335 275 c 0
 381 275 411 225 411 168 c 0
 411 118 389 76 361 57 c 1
 386 45 410 41 432 41 c 0
 546 41 707 137 707 276 c 0
 707 371 629 453 515 453 c 2
 438 453 l 2
 339 453 245 485 245 601 c 0
 245 619 247 639 252 661 c 1
 294 661 l 1
 294 642 l 2xf6
 294 538 313 488 455 488 c 2
 526 488 l 2
 680 488 758 387 758 282 c 0
 758 108 558 -3 429 -3 c 0
 373 -3 323 18 276 58 c 0
 261 74 248 111 248 150 c 0xee
324 68 m 0
 363 68 373 135 373 165 c 0
 373 213 353 249 334 249 c 0
 302 249 286 196 286 155 c 0xee
 286 108 304 68 324 68 c 0
EndSplineSet
EndChar
StartChar: uni0E57
Encoding: 3671 3671 294
Width: 890
VWidth: 1463
Flags: MW
HStem: -5 35<217.551 348.729> 122 35<245.644 380.084> 291 79<420 437> 445 45<374 399>
VStem: 103 48<77.0553 178.48> 393 26<66.1709 117.283> 665 46<296.454 392.33>
Fore
419 98 m 0
 419 39 330 -5 263 -5 c 0
 189 -5 103 42 103 142 c 0
 103 155 105 169 108 184 c 2
 135 310 l 2
 158 418 262 474 399 490 c 1
 437 370 l 1
 473 416 478 431 522 490 c 1
 668 473 711 416 711 338 c 0
 711 317 708 294 703 270 c 2
 677 144 l 2
 672 123 650 79 601 37 c 1
 625 39 670 48 733 108 c 0
 777 149 806 201 819 264 c 2
 896 624 l 1
 941 624 l 1
 858 235 l 2
 831 109 746 17 614 5 c 0
 604 4 573 0 513 0 c 1
 526 31 l 1
 548 41 607 60 634 159 c 2
 663 297 l 2
 664 307 665 315 665 324 c 0
 665 395 618 422 578 432 c 2
 529 445 l 1
 420 291 l 1
 374 445 l 1
 320 432 l 2
 285 425 199 391 179 297 c 2
 159 204 l 2
 153 178 151 158 151 141 c 0
 151 105 163 89 179 69 c 1
 197 129 282 157 334 157 c 0
 364 157 419 144 419 98 c 0
336 122 m 0
 283 122 203 92 203 56 c 0
 203 32 243 30 266 30 c 0
 331 30 393 71 393 97 c 0
 393 117 359 122 336 122 c 0
EndSplineSet
EndChar
StartChar: uni0E58
Encoding: 3672 3672 295
Width: 815
VWidth: 1464
Flags: MW
HStem: 0 47<305 311> 120 28<625.14 686.917> 133 59<430 443> 287 29<588.329 659.697> 431 40<400.874 677.401>
VStem: 158 49<110.115 260.16> 549 29<196.756 284.528> 705 28<150.575 238.397> 776 47<534.623 635>
Fore
549 235 m 0
 549 281 580 316 623 316 c 0
 674 316 733 270 733 202 c 0
 733 121 656 24 490 0 c 1
 430 133 l 1
 423 124 415 114 405 103 c 2
 311 0 l 1
 224 10 158 81 158 167 c 0
 158 292 299 471 484 471 c 2
 553 471 l 2
 675 471 747 499 776 635 c 1
 823 635 l 1
 788 472 663 431 553 431 c 2
 501 431 l 2
 353 431 207 291 207 189 c 0
 207 126 251 56 305 47 c 1
 443 192 l 1xbf80
 509 47 l 1
 558 58 l 2
 603 68 649 97 671 122 c 1
 666 121 660 120 654 120 c 0
 602 120 549 174 549 235 c 0
672 148 m 0xdf80
 685 148 705 155 705 183 c 0
 705 226 655 287 611 287 c 0
 599 287 578 280 578 253 c 0
 578 211 629 148 672 148 c 0xdf80
EndSplineSet
EndChar
StartChar: uni0E59
Encoding: 3673 3673 296
Width: 883
VWidth: 1458
Flags: W
HStem: -3 27<245.728 323.686> 205 25<327.942 381.096> 444 37<660 834.893>
VStem: 108 49<87.5945 260.945> 234 34<38.4796 131.421> 382 34<94.8413 198.605> 934 50<555.691 654>
Fore
416 168 m 0
 416 101 358 -3 271 -3 c 0
 224 -3 108 38 108 162 c 0
 108 295 246 479 437 488 c 1
 507 315 l 1
 562 381 585 416 642 481 c 1
 706 481 l 2
 844 481 905 516 934 654 c 1
 984 654 l 1
 940 502 859 444 707 444 c 2
 660 444 l 1
 525 270 l 1
 611 47 l 1
 581 1 l 1
 402 447 l 1
 260 422 157 281 157 167 c 0
 157 121 174 66 237 38 c 1
 235 45 234 53 234 61 c 0
 234 140 308 230 364 230 c 0
 405 230 416 199 416 168 c 0
290 24 m 0
 318 24 382 103 382 171 c 0
 382 189 377 205 361 205 c 0
 334 205 268 125 268 59 c 0
 268 41 273 24 290 24 c 0
EndSplineSet
EndChar
StartChar: uni0E5A
Encoding: 3674 3674 297
Width: 686
VWidth: 1467
Flags: W
HStem: 0 21G<358 412.238 543 597.241> 389 36<253.267 337.163> 552 30<234.494 286.494>
VStem: 192 34<453.103 551.511> 314 34<439.977 523.223>
Fore
192 499 m 0
 192 555 230 582 260 582 c 0
 300 582 348 539 348 480 c 0
 348 453 339 436 334 427 c 1
 392 441 448 512 474 546 c 1
 524 546 l 1
 498 423 l 1
 565 442 615 482 659 547 c 1
 709 547 l 1
 593 0 l 1
 543 0 l 1
 643 470 l 1
 638 466 591 403 490 386 c 1
 408 -1 l 1
 358 -1 l 1
 457 468 l 1
 413 424 365 389 288 389 c 0
 243 389 192 438 192 499 c 0
251 552 m 0
 246 552 226 547 226 516 c 0
 226 477 258 425 287 425 c 0
 298 425 314 431 314 464 c 0
 314 509 274 552 251 552 c 0
EndSplineSet
EndChar
StartChar: uni0E5B
Encoding: 3675 3675 298
Width: 1142
VWidth: 1467
Flags: W
HStem: 12 49<283.599 452.662> 195 28<356.965 413.328> 347 29<991.209 1117.78> 402 28<412.564 465.068 458.814 471.322> 525 44<332.195 448.922>
VStem: 146 49<126.694 330.712> 324 32<228.7 329.591> 472 42<309.705 446.257 427 502.261> 623 39<277.588 383> 690 40<234.92 341.86>
Fore
623 401 m 0
 623 456 612 452 607 462 c 1
 651 462 l 1
 705 413 730 344 730 271 c 0
 730 258 729 244 727 230 c 1
 799 312 818 459 818 461 c 1
 828 424 836 394 841 370 c 2
 853 314 l 2
 857 294 862 276 877 260 c 1
 916 298 921 361 926 408 c 2
 930 443 l 1
 946 431 969 376 1051 376 c 0
 1092 376 1139 390 1181 425 c 1
 1161 397 1113 347 1035 347 c 0
 1021 347 992 348 950 376 c 1
 950 372 945 343 943 334 c 0
 929 268 907 246 887 224 c 1
 860 222 l 1
 841 249 829 273 825 294 c 2
 815 349 l 1
 789 251 761 219 719 191 c 1
 675 191 l 1
 683 222 690 243 690 277 c 0
 690 306 684 343 662 383 c 1
 662 373 l 2
 662 299 632 205 571 125 c 0
 492 35 428 12 343 12 c 0
 290 12 251 23 207 50 c 0
 164 75 146 131 146 198 c 0
 146 351 242 569 417 569 c 0
 492 569 514 504 514 435 c 0
 514 280 432 195 376 195 c 0
 339 195 324 226 324 261 c 0
 324 334 392 430 451 430 c 0
 460 430 470 427 472 427 c 1
 470 465 458 525 407 525 c 0
 281 525 195 366 195 229 c 0
 195 151 223 76 300 66 c 0
 321 63 342 61 362 61 c 0
 413 61 463 76 530 139 c 0
 578 191 623 309 623 401 c 0
450 402 m 0
 412 402 356 315 356 252 c 0
 356 237 361 223 376 223 c 0
 412 223 472 308 472 371 c 0
 472 387 467 402 450 402 c 0
EndSplineSet
EndChar
StartChar: zerowidthnonjoiner
Encoding: 8204 8204 299
Width: 0
VWidth: 1467
Flags: W
VStem: -101 208<-393 411 -393 -393>
Fore
-53 -393 m 1
 -101 -393 l 1
 59 411 l 1
 107 411 l 1
 -53 -393 l 1
EndSplineSet
EndChar
StartChar: zerowidthjoiner
Encoding: 8205 8205 300
Width: 0
VWidth: 1467
Flags: W
VStem: -114 258<-452 327 -452 -452>
Fore
-66 -452 m 1
 -114 -452 l 1
 18 220 l 1
 -13 189 l 1
 -34 214 l 1
 29 270 l 1
 -10 327 l 1
 18 352 l 1
 57 296 l 1
 125 352 l 1
 144 327 l 1
 78 270 l 1
 120 214 l 1
 88 189 l 1
 66 220 l 1
 -66 -452 l 1
EndSplineSet
EndChar
StartChar: lefttorightmark
Encoding: 8206 8206 301
Width: 0
VWidth: 1467
Flags: W
HStem: 246 53<72 216>
VStem: -114 412<-452 273 -452 -452>
Fore
-66 -452 m 1
 -114 -452 l 1
 35 299 l 1
 227 299 l 1
 208 326 l 1
 236 351 l 1
 298 273 l 1
 204 195 l 1
 186 222 l 1
 216 246 l 1
 72 246 l 1
 -66 -452 l 1
EndSplineSet
EndChar
StartChar: righttoleftmark
Encoding: 8207 8207 302
Width: 0
VWidth: 1467
Flags: W
HStem: 246 53<-101 23>
VStem: -180 264<273 299 273 273>
Fore
-66 -452 m 1
 -114 -452 l 1
 23 246 l 1
 -110 246 l 1
 -92 222 l 1
 -119 195 l 1
 -180 273 l 1
 -89 351 l 1
 -70 326 l 1
 -101 299 l 1
 84 299 l 1
 -66 -452 l 1
EndSplineSet
EndChar
StartChar: endash
Encoding: 8211 8211 303
Width: 528
VWidth: 1467
Flags: W
HStem: 245 43<85 540 76 549 85 85>
Fore
76 245 m 1
 85 288 l 1
 549 288 l 1
 540 245 l 1
 76 245 l 1
EndSplineSet
EndChar
StartChar: emdash
Encoding: 8212 8212 304
Width: 1056
VWidth: 1467
Flags: W
HStem: 245 43<87 1064>
Fore
78 245 m 1
 87 288 l 1
 1073 288 l 1
 1064 245 l 1
 78 245 l 1
EndSplineSet
EndChar
StartChar: quoteleft
Encoding: 8216 8216 305
Width: 299
VWidth: 1467
Flags: W
HStem: 489 196<242 320 320 320>
VStem: 208 113<518.105 579.979>
Fore
321 564 m 0
 321 534 284 489 242 489 c 0
 222 489 208 504 208 526 c 0
 208 564 249 646 320 685 c 1
 354 685 l 1
 317 664 277 625 261 581 c 1
 274 586 284 589 293 589 c 0
 308 589 321 581 321 564 c 0
EndSplineSet
EndChar
StartChar: quoteright
Encoding: 8217 8217 306
Width: 303
VWidth: 1467
Flags: W
HStem: 490 196<229 307 307 307> 574 20<252.5 262 279.5 281.5>
VStem: 228 113<595.074 656.895>
Fore
228 611 m 0x60
 228 641 265 686 307 686 c 0
 327 686 341 670 341 648 c 0
 341 622 315 542 229 490 c 1
 195 490 l 1xa0
 231 513 272 550 287 594 c 1
 276 589 266 586 258 586 c 0
 247 586 228 591 228 611 c 0x60
EndSplineSet
EndChar
StartChar: quotesinglbase
Encoding: 8218 8218 307
Width: 184
VWidth: 1467
Flags: W
HStem: -109 196<44 122 122 122> -24 20<63 75.5 95 97>
VStem: 11 146<-109 48 -109 -109>
Fore
44 13 m 0x60
 44 49 87 87 122 87 c 0
 144 87 157 68 157 48 c 0
 157 30 141 -18 109 -54 c 0
 86 -78 64 -97 44 -109 c 1
 11 -109 l 1xa0
 48 -86 87 -50 103 -4 c 1
 91 -9 80 -12 71 -12 c 0
 55 -12 44 -3 44 13 c 0x60
EndSplineSet
EndChar
StartChar: quotedblleft
Encoding: 8220 8220 308
Width: 500
VWidth: 1467
Flags: W
HStem: 489 100<261.607 291.574 452.606 482.574>
VStem: 208 113<518.105 579.979> 399 113<518.105 579.033>
Fore
321 564 m 0
 321 534 284 489 242 489 c 0
 222 489 208 504 208 526 c 0
 208 564 249 646 320 685 c 1
 354 685 l 1
 317 664 277 625 261 581 c 1
 274 586 284 589 293 589 c 0
 308 589 321 581 321 564 c 0
512 564 m 0
 512 534 475 489 433 489 c 0
 411 489 399 506 399 526 c 0
 399 558 434 642 511 685 c 1
 545 685 l 1
 508 664 468 625 452 581 c 1
 465 586 474 589 483 589 c 0
 495 589 512 584 512 564 c 0
EndSplineSet
EndChar
StartChar: quotedblright
Encoding: 8221 8221 309
Width: 516
VWidth: 1467
Flags: W
HStem: 586 100<257.426 286.485 462.434 492.44>
VStem: 228 113<595.074 656.895> 434 112<594.634 657.221>
Fore
228 611 m 0
 228 641 265 686 307 686 c 0
 327 686 341 670 341 648 c 0
 341 622 315 542 229 490 c 1
 195 490 l 1
 231 513 272 550 287 594 c 1
 276 589 266 586 258 586 c 0
 247 586 228 591 228 611 c 0
434 611 m 0
 434 642 472 686 512 686 c 0
 534 686 546 669 546 649 c 0
 546 617 515 538 434 490 c 1
 400 490 l 1
 437 513 477 549 493 594 c 1
 481 589 472 586 463 586 c 0
 451 586 434 591 434 611 c 0
EndSplineSet
EndChar
StartChar: quotedblbase
Encoding: 8222 8222 310
Width: 443
VWidth: 1467
Flags: W
HStem: -12 99<94.57 126.438 286.364 316.439>
VStem: 67 113<-3.69922 59.0414> 258 113<-3.52888 59.0414>
Fore
67 13 m 0
 67 48 107 87 145 87 c 0
 168 87 180 69 180 49 c 0
 180 26 159 -52 68 -109 c 1
 34 -109 l 1
 71 -86 111 -49 127 -4 c 1
 115 -9 104 -12 95 -12 c 0
 84 -12 67 -7 67 13 c 0
258 13 m 0
 258 48 300 87 336 87 c 0
 357 87 371 71 371 50 c 0
 371 18 340 -58 259 -109 c 1
 225 -109 l 1
 262 -86 301 -50 317 -4 c 1
 305 -9 295 -12 286 -12 c 0
 275 -12 258 -7 258 13 c 0
EndSplineSet
EndChar
StartChar: dagger
Encoding: 8224 8224 311
Width: 450
VWidth: 1467
Flags: W
HStem: 439 35<152 294 337 482 144 490 152 152> 695 20G<348.768 388>
Fore
490 474 m 1
 482 439 l 1
 329 439 l 1
 225 -53 l 1
 190 -53 l 1
 294 439 l 1
 144 439 l 1
 152 474 l 1
 302 474 l 1
 353 715 l 1
 388 715 l 1
 337 474 l 1
 490 474 l 1
EndSplineSet
EndChar
StartChar: daggerdbl
Encoding: 8225 8225 312
Width: 450
VWidth: 1467
Flags: W
HStem: 292 182<298 302 113 490 449.733 452.212> 292 35<121 263 306 451> 439 35<152 294 337 482> 695 20G<348.768 388>
Fore
482 439 m 1x30
 329 439 l 1
 306 327 l 1
 459 327 l 1x70
 451 292 l 1
 298 292 l 1
 225 -53 l 1
 190 -53 l 1
 263 292 l 1
 113 292 l 1x90
 121 327 l 1
 271 327 l 1
 294 439 l 1
 144 439 l 1x70
 152 474 l 1
 302 474 l 1
 353 715 l 1
 388 715 l 1
 337 474 l 1
 490 474 l 1x90
 482 439 l 1x30
EndSplineSet
EndChar
StartChar: bullet
Encoding: 8226 8226 313
Width: 463
VWidth: 1467
Flags: W
HStem: 153 383<275.541 334.297>
VStem: 154 298<293.992 390.906>
Fore
154 282 m 0
 154 407 242 536 344 536 c 0
 414 536 452 477 452 399 c 0
 452 279 362 153 263 153 c 0
 215 153 154 186 154 282 c 0
EndSplineSet
EndChar
StartChar: ellipsis
Encoding: 8230 8230 314
Width: 1035
VWidth: 1467
Flags: W
HStem: 3 115<157.375 208.341 507.984 558.888 853.936 903.341>
VStem: 139 89<21.9844 100.129> 489 89<21.5544 100.263> 833 90<19.6699 97.1788>
Fore
139 40 m 0
 139 75 161 118 195 118 c 0
 216 118 228 102 228 78 c 0
 228 41 200 3 171 3 c 0
 157 3 139 11 139 40 c 0
489 42 m 0
 489 75 512 118 546 118 c 0
 566 118 578 102 578 78 c 0
 578 41 551 3 522 3 c 0
 501 3 489 19 489 42 c 0
833 38 m 0
 833 74 856 116 891 116 c 0
 912 116 923 98 923 75 c 0
 923 39 895 1 866 1 c 0
 844 1 833 16 833 38 c 0
EndSplineSet
EndChar
StartChar: perthousand
Encoding: 8240 8240 315
Width: 1203
VWidth: 1467
Flags: W
HStem: 4 41<579.094 678.124 973.496 1061.38> 289 41<203.804 299.819> 368 41<635.337 734.026 1023.81 1119.9> 653 41<263.166 353.822>
VStem: 124 53<358.652 543.077> 385 55<441.617 618.064> 500 54<71.139 258.165> 763 53<159.491 336.836> 887 55<79.7597 258.173> 1151 53<162.384 335.116>
Fore
207 -13 m 1
 157 -13 l 1
 733 698 l 1
 783 698 l 1
 207 -13 l 1
324 694 m 0
 221 694 124 567 124 435 c 0
 124 346 173 289 235 289 c 0
 347 289 440 423 440 548 c 0
 440 629 399 694 324 694 c 0
385 531 m 0
 385 449 318 330 249 330 c 0
 203 330 177 379 177 442 c 0
 177 551 255 653 311 653 c 0
 359 653 385 590 385 531 c 0
613 4 m 0
 726 4 816 143 816 264 c 0
 816 345 775 409 700 409 c 0
 590 409 500 271 500 151 c 0
 500 62 549 4 613 4 c 0
763 253 m 0
 763 157 691 45 626 45 c 0
 578 45 554 92 554 154 c 0
 554 256 620 368 686 368 c 0
 743 368 763 308 763 253 c 0
1000 7 m 0
 1111 7 1204 141 1204 268 c 0
 1204 350 1163 412 1088 412 c 0
 986 412 887 282 887 153 c 0
 887 65 936 7 1000 7 c 0
1151 251 m 0
 1151 167 1086 48 1014 48 c 0
 966 48 942 108 942 168 c 0
 942 263 1011 371 1077 371 c 256
 1123 371 1151 311 1151 251 c 0
EndSplineSet
EndChar
StartChar: minute
Encoding: 8242 8242 316
Width: 190
VWidth: 1467
Flags: W
HStem: 505 192<189 227 227 227>
Fore
189 505 m 1
 149 505 l 1
 227 697 l 1
 296 697 l 1
 189 505 l 1
EndSplineSet
EndChar
StartChar: second
Encoding: 8243 8243 317
Width: 318
VWidth: 1467
Flags: W
HStem: 503 192<317 355 355 355>
Fore
317 503 m 1
 277 503 l 1
 355 695 l 1
 424 695 l 1
 317 503 l 1
189 503 m 1
 149 503 l 1
 227 695 l 1
 296 695 l 1
 189 503 l 1
EndSplineSet
EndChar
StartChar: guilsinglleft
Encoding: 8249 8249 318
Width: 325
VWidth: 1467
Flags: W
HStem: 85 364<316 344 344 344>
VStem: 72 321<263 449 263 263>
Fore
72 263 m 1
 150 295 258 355 344 449 c 1
 393 449 l 1
 310 356 181 276 148 266 c 1
 192 247 290 143 316 85 c 1
 270 85 l 1
 195 201 122 248 72 263 c 1
EndSplineSet
EndChar
StartChar: guilsinglright
Encoding: 8250 8250 319
Width: 302
VWidth: 1467
Flags: W
HStem: 85 362<78 107 107 107>
VStem: 28 323<85 271 85 85>
Fore
351 271 m 1
 277 241 166 178 78 85 c 1
 28 85 l 1
 126 187 244 259 274 268 c 1
 235 284 133 388 107 447 c 1
 152 447 l 1
 202 367 283 291 351 271 c 1
EndSplineSet
EndChar
StartChar: fraction
Encoding: 8260 8260 320
Width: 155
VWidth: 1467
Flags: W
HStem: 0 21G<-79 -24.4775>
VStem: -79 459<0 666 1.53064e-18 1.53064e-18>
Fore
-37 0 m 1
 -79 0 l 1
 338 666 l 1
 380 666 l 1
 -37 0 l 1
EndSplineSet
EndChar
StartChar: Euro
Encoding: 8364 8364 321
Width: 664
VWidth: 1467
Flags: W
HStem: -18 36<242.32 432.604> 246 47<72 150 207 489> 412 47<108 186 243 525> 590 21G<647 700> 678 34<376.747 566.284>
VStem: 125 51<75.2926 136.262 126.5 146.023 146.023 152.739> 656 44<596.426 645.138>
Fore
656 590 m 1
 638 674 513 678 490 678 c 0
 338 678 270 588 260 540 c 2
 243 459 l 1
 535 459 l 1
 525 412 l 1
 233 412 l 1
 207 293 l 1
 499 293 l 1
 489 246 l 1
 197 246 l 1
 178 156 l 2
 177 150 176 143 176 136 c 0
 176 83 219 18 350 18 c 0
 381 18 501 22 554 106 c 1
 590 89 l 1
 538 16 429 -18 332 -18 c 0
 188 -18 125 54 125 117 c 0
 125 123 126 130 127 136 c 2
 150 246 l 1
 62 246 l 1
 72 293 l 1
 160 293 l 1
 186 412 l 1
 98 412 l 1
 108 459 l 1
 196 459 l 1
 217 559 l 2
 232 631 334 712 489 712 c 0
 587 712 680 678 700 606 c 1
 656 590 l 1
EndSplineSet
EndChar
StartChar: uni2113
Encoding: 8467 8467 322
Width: 312
VWidth: 1467
Flags: W
HStem: -5 45<151.53 240.148> 628 40<294.303 350.125>
VStem: 120 46<41.0122 70.9096 69.4769 72.3422 72.3422 91.4434> 351 38<512.92 627.608>
Fore
164 -5 m 0
 137 -5 120 9 120 47 c 0
 120 58 122 71 125 87 c 2
 171 301 l 1
 110 264 l 1
 78 298 l 1
 183 357 l 1
 211 489 l 2
 237 608 279 668 338 668 c 0
 372 665 389 643 389 601 c 0
 389 563 366 424 220 324 c 1
 167 75 l 2
 166 71 166 67 166 64 c 0
 166 48 175 40 192 40 c 0
 211 40 238 48 276 65 c 1
 269 31 l 1
 237 15 202 -5 164 -5 c 0
231 377 m 1
 324 458 351 562 351 597 c 0
 351 617 343 628 328 628 c 0
 299 628 275 586 257 511 c 2
 231 377 l 1
EndSplineSet
EndChar
StartChar: trademark
Encoding: 8482 8482 323
Width: 836
VWidth: 1467
Flags: W
HStem: 508 21G<679.5 708> 672 26<189 325 353 495>
Fore
189 698 m 1
 500 698 l 1
 495 671 l 1
 353 672 l 1
 269 279 l 1
 241 279 l 1
 325 672 l 1
 184 672 l 1
 189 698 l 1
705 555 m 1
 758 616 855 685 896 701 c 1
 925 701 l 1
 835 279 l 1
 809 279 l 1
 893 675 l 1
 856 663 721 550 695 508 c 1
 664 593 603 657 566 673 c 1
 482 279 l 1
 456 279 l 1
 546 701 l 1
 573 701 l 1
 607 683 672 625 705 555 c 1
EndSplineSet
EndChar
StartChar: Ohm
Encoding: 8486 8486 324
Width: 679
VWidth: 1467
Flags: W
HStem: 0 38<55 229 455 619> 630 43<377.359 562.863>
VStem: 140 51<254.28 441.227> 642 53<354.18 545.371>
Fore
140 342 m 0
 140 502 289 673 480 673 c 0
 619 673 695 578 695 462 c 0
 695 343 616 215 474 134 c 1
 455 41 l 1
 628 41 l 1
 619 0 l 1
 392 0 l 1
 423 147 l 1
 572 229 642 330 642 450 c 0
 642 549 587 630 476 630 c 0
 332 630 191 488 191 344 c 0
 191 274 225 204 309 153 c 1
 276 0 l 1
 47 0 l 1
 55 38 l 1
 229 38 l 1
 249 134 l 1
 172 191 140 267 140 342 c 0
EndSplineSet
EndChar
StartChar: estimated
Encoding: 8494 8494 325
Width: 468
VWidth: 1467
Flags: W
HStem: -5 38<178.205 318.349> 244 45<159 409.99> 534 40<275.215 409.488>
VStem: 89 43<80.6022 153 143 163 163 172.558> 446 40<330.292 381 381 395.109 395.109 402.5 398.805 493.846>
Fore
420 116 m 1
 367 21 284 -5 229 -5 c 0
 138 -5 89 64 89 130 c 0
 89 139 90 147 92 156 c 2
 144 402 l 2
 163 488 262 574 352 574 c 0
 446 574 490 501 490 423 c 0
 490 409 489 395 486 381 c 0
 462 268 421 244 290 244 c 2
 150 244 l 1
 135 176 l 2
 133 167 132 159 132 150 c 0
 132 91 173 33 245 33 c 0
 292 33 356 58 394 135 c 1
 420 116 l 1
299 289 m 2
 399 289 426 294 446 387 c 0
 448 397 448 408 448 418 c 0
 448 485 411 534 347 534 c 0
 271 534 196 462 179 381 c 2
 159 289 l 1
 299 289 l 2
EndSplineSet
EndChar
StartChar: partialdiff
Encoding: 8706 8706 326
Width: 473
VWidth: 1467
Flags: W
HStem: -11 52<138.071 232.645> 634 51<291.505 467.768>
VStem: 47 55<60.0263 142.489> 501 49<488.402 601.71>
Fore
471 399 m 1
 435 369 400 343 348 332 c 2
 281 314 l 2
 181 288 124 237 107 154 c 0
 104 139 102 126 102 115 c 0
 102 46 157 41 194 41 c 0
 250 41 304 68 346 104 c 2
 392 142 l 1
 395 147 l 1
 471 399 l 1
173 -11 m 0
 125 -11 47 13 47 105 c 0
 47 118 49 132 52 148 c 0
 96 355 260 348 364 379 c 1
 364 379 501 413 501 534 c 0
 501 579 482 634 394 634 c 0
 334 634 261 607 208 575 c 1
 236 637 l 1
 296 671 351 685 398 685 c 0
 467 685 550 659 550 556 c 0
 550 541 546 502 538 481 c 2
 439 141 l 1
 434 130 428 122 422 117 c 2
 372 76 l 2
 275 -4 190 -11 173 -11 c 0
EndSplineSet
EndChar
StartChar: Delta
Encoding: 8710 8710 327
Width: 582
VWidth: 1467
Flags: W
HStem: 0 47<79 518> 571 20G<410.415 430.11>
Fore
576 0 m 1
 -6 0 l 1
 425 591 l 1
 576 0 l 1
518 47 m 1
 406 493 l 1
 79 47 l 1
 518 47 l 1
EndSplineSet
EndChar
StartChar: product
Encoding: 8719 8719 328
Width: 704
VWidth: 1467
Flags: W
HStem: 612 53<259 692>
Fore
583 -153 m 1
 529 -153 l 1
 692 612 l 1
 259 612 l 1
 96 -153 l 1
 42 -153 l 1
 216 665 l 1
 757 665 l 1
 583 -153 l 1
EndSplineSet
EndChar
StartChar: summation
Encoding: 8721 8721 329
Width: 827
VWidth: 1467
Flags: W
HStem: -226 46<81 158.269 158.269 722> 607 44<248 899>
Fore
571 236 m 1
 395 247 211 519 186 607 c 1
 195 650 l 1
 908 651 l 1
 899 607 l 1
 248 607 l 1
 284 458 497 265 676 242 c 1
 517 227 110 -86 81 -182 c 1
 128 -181 179 -180 236 -180 c 2
 732 -180 l 1
 722 -226 l 1
 9 -226 l 1
 18 -183 l 1
 98 -52 398 197 571 236 c 1
EndSplineSet
EndChar
StartChar: minus
Encoding: 8722 8722 330
Width: 494
VWidth: 1467
Flags: W
HStem: 264 49<109 495 98 506 109 109>
Fore
495 264 m 1
 98 264 l 1
 109 313 l 1
 506 313 l 1
 495 264 l 1
EndSplineSet
EndChar
StartChar: radical
Encoding: 8730 8730 331
Width: 539
VWidth: 1467
Flags: W
HStem: 337 43<109 176>
Fore
260 15 m 1
 213 15 l 1
 176 337 l 1
 100 337 l 1
 109 380 l 1
 219 380 l 1
 253 81 l 1
 599 665 l 1
 644 665 l 1
 260 15 l 1
EndSplineSet
EndChar
StartChar: infinity
Encoding: 8734 8734 332
Width: 774
VWidth: 1467
Flags: W
HStem: 137 46<510.615 643.115> 158 40<206.175 323.522> 519 39<262.991 393.308> 531 50<594.812 697.771>
VStem: 136 35<234.938 407.646> 434 38<224.677 279 307.863 406.396> 731 49<306.282 497.254>
Fore
780 427 m 0x1e
 780 320 719 137 554 137 c 0x9e
 496 137 438 168 434 279 c 1
 383 163 295 158 272 158 c 0
 196 158 136 210 136 304 c 0
 136 415 217 558 338 558 c 0x6e
 400 558 442 537 469 445 c 1
 521 573 622 581 652 581 c 0
 742 581 780 512 780 427 c 0x1e
333 519 m 0x6e
 248 519 171 430 171 314 c 0
 171 258 193 198 273 198 c 0
 377 198 429 306 429 402 c 0
 429 473 394 519 333 519 c 0x6e
642 531 m 0x9e
 547 531 472 417 472 303 c 0
 472 229 510 183 575 183 c 0
 700 183 731 338 731 409 c 0
 731 471 710 531 642 531 c 0x9e
EndSplineSet
EndChar
StartChar: integral
Encoding: 8747 8747 333
Width: 362
VWidth: 1467
Flags: W
HStem: -142 39<-79 -76.8884 -76.8884 -65.8932 -71.3908 20.8881> 620 43<372.276 462.887 459.477 466.297 466.297 474>
Fore
117 -16 m 2
 87 -99 36 -147 -35 -147 c 0
 -53 -147 -74 -146 -95 -142 c 1
 -79 -103 l 1
 -67 -105 -57 -107 -46 -107 c 0
 7 -107 47 -76 72 -15 c 2
 273 531 l 2
 305 619 365 663 454 663 c 0
 466 663 479 662 492 660 c 1
 474 618 l 1
 464 620 454 620 445 620 c 0
 387 620 345 590 320 530 c 2
 117 -16 l 2
EndSplineSet
EndChar
StartChar: approxequal
Encoding: 8776 8776 334
Width: 570
VWidth: 1467
Flags: W
HStem: 144 50<357.933 482.578> 204 50<162.416 300.556> 302 51<387.991 514.099> 364 48<192.054 327.156>
VStem: 115 447<154 402 154 154>
Fore
268 412 m 0
 358 412 395 353 455 353 c 0
 483 353 516 366 562 402 c 1
 552 351 l 1
 514 318 476 302 439 302 c 0
 397 302 305 364 256 364 c 0
 225 364 190 346 148 311 c 1
 159 361 l 1
 192 400 232 412 268 412 c 0
245 254 m 0
 321 254 367 194 425 194 c 0
 456 194 491 211 529 245 c 1
 518 194 l 1
 480 158 449 144 417 144 c 0
 351 144 285 204 227 204 c 0
 197 204 164 190 115 154 c 1
 125 202 l 1
 157 237 197 254 245 254 c 0
EndSplineSet
EndChar
StartChar: notequal
Encoding: 8800 8800 335
Width: 513
VWidth: 1467
Flags: W
HStem: -10 21G<148 206.351> 144 54<103 219 293 468> 352 53<147 313 388 512>
VStem: 92 431<144 405 194 318>
Fore
468 144 m 1
 269 144 l 1
 197 -10 l 1
 148 -10 l 1
 219 144 l 1
 92 144 l 1
 103 198 l 1
 241 198 l 1
 313 352 l 1
 136 352 l 1
 147 405 l 1
 338 405 l 1
 403 546 l 1
 453 546 l 1
 388 405 l 1
 523 405 l 1
 512 352 l 1
 364 352 l 1
 293 198 l 1
 479 198 l 1
 468 144 l 1
EndSplineSet
EndChar
StartChar: lessequal
Encoding: 8804 8804 336
Width: 534
VWidth: 1467
Flags: W
HStem: 23 43<59 474>
Fore
219 326 m 1
 349 292 448 207 500 147 c 1
 488 91 l 1
 393 225 203 304 117 324 c 1
 358 392 510 495 588 562 c 1
 577 508 l 1
 382 368 259 336 219 326 c 1
50 23 m 1
 59 66 l 1
 483 66 l 1
 474 23 l 1
 50 23 l 1
EndSplineSet
EndChar
StartChar: greaterequal
Encoding: 8805 8805 337
Width: 514
VWidth: 1467
Flags: W
HStem: 25 42<53 469>
VStem: 44 487<25 330 25 25>
Fore
429 329 m 1
 299 361 199 448 147 508 c 1
 159 563 l 1
 255 429 446 351 531 330 c 1
 411 297 217 225 59 92 c 1
 70 147 l 1
 268 285 384 317 429 329 c 1
478 67 m 1
 469 25 l 1
 44 25 l 1
 53 67 l 1
 478 67 l 1
EndSplineSet
EndChar
StartChar: lozenge
Encoding: 9674 9674 338
Width: 573
VWidth: 1467
Flags: W
HStem: -23 21G<266.5 319>
VStem: 103 498<332 332 332 332>
Fore
426 687 m 1
 439 589 489 434 599 332 c 1
 601 332 l 1
 599 332 l 1
 504 271 360 134 278 -23 c 1
 255 113 196 244 105 332 c 1
 103 332 l 1
 105 332 l 1
 211 399 355 549 426 687 c 1
413 616 m 1
 343 490 214 377 152 332 c 1
 170 306 275 178 290 47 c 1
 332 131 445 254 552 332 c 1
 513 376 424 506 413 616 c 1
EndSplineSet
EndChar
StartChar: dottedcircle
Encoding: 9676 9676 339
Width: 630
VWidth: 1467
Flags: W
HStem: -26 62<290.746 328.657> -6 62<200.708 239.867 388.852 428.924> 47 62<133.273 171.777 479.116 518.599> 126 62<96.3151 136.234 548.098 586.381> 220 62<94.8521 135.381 588.919 628.077> 314 62<136.708 175.867 589.076 627.119> 396 62<206.746 246.033 552.619 591.148> 449 62<297.131 336.967 485.893 523.227> 467 61<394.654 434.4>
VStem: 92 48<127.898 185.546 221.986 279.461> 128 48<51.9245 98.5508 316.109 373.924> 196 48<-0.0295715 53.9236 398.3 455.942> 286 47<-23.4534 11.2742> 293 48<451.875 508.878> 385 48<-1.83398 53.4713 469.193 526.014> 474 49<53.1962 106.746 449.885 507.708> 544 47<130.499 186.319 398.201 456.014> 585 48<224.859 280.751 314.744 372.418>
Fore
91 243 m 0x1c53
 91 263 107 282 123 282 c 0
 134 282 140 273 140 261 c 0
 140 244 127 220 110 220 c 256
 98 220 91 230 91 243 c 0x1c53
180 354 m 0
 180 335 166 314 149 314 c 256
 141 314 132 318 132 334 c 0
 132 355 147 376 162 376 c 0
 173 376 180 367 180 354 c 0
250 435 m 0
 250 416 235 396 219 396 c 256
 206 396 202 404 202 414 c 0
 202 433 214 458 232 458 c 0x1e13
 244 458 250 448 250 435 c 0
341 489 m 0x1d17
 341 465 322 449 309 449 c 256
 302 449 293 453 293 469 c 0
 293 496 311 511 323 511 c 0
 334 511 341 502 341 489 c 0x1d17
438 505 m 0
 438 486 423 467 407 467 c 256
 400 467 390 470 390 485 c 0
 390 506 404 528 420 528 c 0x1c93
 432 528 438 518 438 505 c 0
528 488 m 0
 528 465 509 447 497 447 c 256
 492 447 481 449 481 466 c 0
 481 486 492 509 510 509 c 0
 521 509 528 501 528 488 c 0
595 435 m 0
 595 415 579 396 565 396 c 0
 554 396 548 406 548 417 c 0
 548 434 561 458 578 458 c 0x1e13
 589 458 595 448 595 435 c 0
631 353 m 0
 631 334 618 313 601 313 c 256
 596 313 584 315 584 332 c 0
 584 351 596 374 613 374 c 0
 624 374 631 366 631 353 c 0
585 242 m 0x1c1340
 585 267 602 283 614 283 c 0
 627 283 633 274 633 261 c 0
 633 238 614 222 601 222 c 256
 591 222 585 230 585 242 c 0x1c1340
544 146 m 0x1c1380
 544 168 558 188 574 188 c 0
 585 188 591 179 591 167 c 0
 591 150 578 126 561 126 c 256
 553 126 544 130 544 146 c 0x1c1380
474 66 m 0
 474 86 489 109 504 109 c 0
 515 109 523 98 523 85 c 0
 523 67 506 47 491 47 c 256x3c13
 484 47 474 51 474 66 c 0
385 18 m 0
 385 37 401 56 417 56 c 0
 427 56 433 47 433 35 c 0
 433 18 422 -6 404 -6 c 0x5c13
 392 -6 385 5 385 18 c 0
286 -6 m 0x5c1b
 286 11 298 36 316 36 c 0
 327 36 333 28 333 15 c 0
 333 -10 314 -26 302 -26 c 256x9c1b
 292 -26 286 -18 286 -6 c 0x5c1b
196 14 m 0
 196 35 211 56 226 56 c 0
 237 56 244 47 244 34 c 0
 244 15 230 -6 213 -6 c 256x5c13
 205 -6 196 -2 196 14 c 0
128 65 m 0x3c33
 128 85 142 109 158 109 c 0
 170 109 176 98 176 86 c 0
 176 68 161 47 145 47 c 256
 132 47 128 55 128 65 c 0x3c33
92 147 m 0x1c53
 92 168 107 188 122 188 c 0
 134 188 140 179 140 167 c 0
 140 145 126 126 109 126 c 256
 98 126 92 134 92 147 c 0x1c53
EndSplineSet
EndChar
StartChar: uni0E10.alt1
Encoding: 63232 63232 340
Width: 591
VWidth: 1467
Flags: W
HStem: 1 21G<307 370.5> 96 24<270.269 317.474> 296 24<272.742 327.545> 550 36<290.401 541.284>
VStem: 206 44<464.262 520.455> 218 38<131.1 276.299> 342 41<152.13 284.761> 508 48<306.286 338.301>
Fore
218 198 m 0xf7
 218 257 254 320 308 320 c 0
 346 320 383 275 383 202 c 0
 383 168 380 135 373 104 c 2
 362 50 l 1
 397 60 464 92 477 156 c 2
 508 299 l 1
 508 301 509 303 509 306 c 0
 509 383 206 394 206 479 c 0
 206 500 233 586 434 586 c 0
 513 586 589 574 625 565 c 1
 623 521 l 1
 575 540 472 550 413 550 c 0
 299 550 250 517 250 491 c 0xfb
 250 431 556 399 556 317 c 0
 556 315 556 312 555 310 c 1
 522 156 l 2
 515 120 494 88 476 66 c 0
 446 26 390 15 351 1 c 1
 307 1 l 1
 312 24 323 69 335 114 c 1
 314 96 299 96 290 96 c 0
 250 96 218 142 218 198 c 0xf7
303 296 m 0
 275 296 256 253 256 205 c 0xf7
 256 156 277 120 296 120 c 0
 323 120 342 176 342 216 c 0
 342 263 319 296 303 296 c 0
EndSplineSet
EndChar
StartChar: uni0E48.alt2
Encoding: 63242 63242 350
Width: 0
VWidth: 1467
Flags: W
HStem: 697 176<52 55 14 93 52 52>
Fore
55 697 m 1
 14 697 l 1
 52 873 l 1
 93 873 l 1
 55 697 l 1
EndSplineSet
Substitution2: "Single Substitution lookup 20 subtable" uni0E48.alt3
Substitution2: "Single Substitution lookup 21 subtable" uni0E48
Substitution2: "Single Substitution lookup 22 subtable" uni0E48.alt1
Substitution2: "Single Substitution lookup 20 subtable" uni0E48.alt3
Substitution2: "Single Substitution lookup 21 subtable" uni0E48
Substitution2: "Single Substitution lookup 22 subtable" uni0E48.alt1
EndChar
StartChar: uni0E49.alt2
Encoding: 63243 63243 351
Width: 0
VWidth: 1467
Flags: W
HStem: 668 30<-303 -259 -216 -87.1684> 728 18<-241.875 -203.43> 872 18<-207.398 -165.329>
VStem: -265 23<749.193 831.301> -162 26<783.866 871.811>
Fore
-136 843 m 0
 -136 799 -170 729 -216 698 c 1
 -206 698 l 2
 -74 698 -5 755 36 866 c 1
 81 866 l 1
 30 694 -72 668 -253 668 c 2
 -309 668 l 1
 -303 698 l 1
 -259 698 l 1
 -224 720 -225 712 -203 737 c 1
 -215 729 -220 728 -229 728 c 0
 -252 728 -265 745 -265 772 c 0
 -265 827 -212 890 -172 890 c 0
 -164 890 -136 883 -136 843 c 0
-176 872 m 0
 -200 872 -242 810 -242 766 c 0
 -242 754 -237 746 -226 746 c 0
 -200 746 -162 809 -162 848 c 0
 -162 866 -170 872 -176 872 c 0
EndSplineSet
Substitution2: "Single Substitution lookup 20 subtable" uni0E49.alt3
Substitution2: "Single Substitution lookup 21 subtable" uni0E49
Substitution2: "Single Substitution lookup 22 subtable" uni0E49.alt1
Substitution2: "Single Substitution lookup 20 subtable" uni0E49.alt3
Substitution2: "Single Substitution lookup 21 subtable" uni0E49
Substitution2: "Single Substitution lookup 22 subtable" uni0E49.alt1
EndChar
StartChar: uni0E4A.alt2
Encoding: 63244 63244 352
Width: 0
VWidth: 1467
Flags: W
HStem: 667 23<-222.113 -152.639> 716 21G<13 22.5> 755 23<-227.819 -163.13>
VStem: -274 29<703.59 767.057> -152 18<697.234 741.743> -5 35<740.971 825.165>
Fore
-134 719 m 0
 -134 698 -153 667 -186 667 c 0
 -199 667 -274 675 -274 738 c 0
 -274 798 -212 869 -148 869 c 1
 -104 822 l 1
 -59 869 l 1
 -9 869 30 837 30 787 c 0
 30 763 21 738 5 716 c 1
 40 732 93 759 142 902 c 1
 185 902 l 1
 139 759 36 682 -46 675 c 1
 -41 697 l 1
 -16 718 -5 751 -5 781 c 0
 -5 819 -28 827 -36 830 c 0
 -48 836 -56 838 -58 838 c 1
 -58 838 -96 801 -112 788 c 1
 -163 839 l 1
 -228 812 -226 781 -228 775 c 1
 -222 777 -216 778 -209 778 c 0
 -180 778 -134 758 -134 719 c 0
-218 755 m 0
 -238 755 -245 738 -245 732 c 0
 -245 713 -212 690 -181 690 c 0
 -158 690 -152 708 -152 714 c 0
 -152 731 -183 755 -218 755 c 0
EndSplineSet
Substitution2: "Single Substitution lookup 20 subtable" uni0E4A.alt3
Substitution2: "Single Substitution lookup 21 subtable" uni0E4A
Substitution2: "Single Substitution lookup 22 subtable" uni0E4A.alt1
Substitution2: "Single Substitution lookup 20 subtable" uni0E4A.alt3
Substitution2: "Single Substitution lookup 21 subtable" uni0E4A
Substitution2: "Single Substitution lookup 22 subtable" uni0E4A.alt1
EndChar
StartChar: uni0E4B.alt2
Encoding: 63245 63245 353
Width: 0
VWidth: 1467
Flags: W
HStem: 763 42<-68 15 77 159 -77 168 -68 -68>
Fore
159 763 m 1
 68 763 l 1
 48 668 l 1
 -5 668 l 1
 15 763 l 1
 -77 763 l 1
 -68 805 l 1
 24 805 l 1
 45 905 l 1
 98 905 l 1
 77 805 l 1
 168 805 l 1
 159 763 l 1
EndSplineSet
Substitution2: "Single Substitution lookup 20 subtable" uni0E4B.alt3
Substitution2: "Single Substitution lookup 21 subtable" uni0E4B
Substitution2: "Single Substitution lookup 22 subtable" uni0E4B.alt1
Substitution2: "Single Substitution lookup 20 subtable" uni0E4B.alt3
Substitution2: "Single Substitution lookup 21 subtable" uni0E4B
Substitution2: "Single Substitution lookup 22 subtable" uni0E4B.alt1
EndChar
StartChar: uni0E4C.alt2
Encoding: 63246 63246 354
Width: 0
VWidth: 1467
Flags: W
HStem: 668 353<-97 83 83 83> 668 30<-109.598 -63.7967>
VStem: -148 35<708.745 820.06> -41 36<721.891 831.94>
Fore
-148 747 m 0xb0
 -148 807 -116 840 -109 847 c 1
 -109 848 -82 875 -58 888 c 0
 67 958 70 973 83 1021 c 1
 123 1018 l 1
 118 994 l 2
 107 943 -24 872 -35 866 c 1
 -29 861 -5 845 -5 798 c 0
 -5 738 -48 668 -97 668 c 0
 -132 668 -148 706 -148 747 c 0xb0
-90 698 m 0x70
 -72 698 -41 745 -41 792 c 0
 -41 819 -49 844 -63 844 c 0
 -82 844 -113 796 -113 745 c 0
 -113 722 -107 698 -90 698 c 0x70
EndSplineSet
Substitution2: "Single Substitution lookup 20 subtable" uni0E4C.alt3
Substitution2: "Single Substitution lookup 21 subtable" uni0E4C
Substitution2: "Single Substitution lookup 22 subtable" uni0E4C.alt1
Substitution2: "Single Substitution lookup 20 subtable" uni0E4C.alt3
Substitution2: "Single Substitution lookup 21 subtable" uni0E4C
Substitution2: "Single Substitution lookup 22 subtable" uni0E4C.alt1
EndChar
StartChar: uni0E0D.alt1
Encoding: 63247 63247 355
Width: 908
VWidth: 1467
Flags: W
HStem: -1 35<529 660.716> -1 25<146.126 198.271> 200 25<199.269 254.165> 546 39<252 289.793 289.793 317.719 303.756 491.121>
VStem: 111 34<29.7522 110.505> 255 32<92.4321 194.428> 553 51<374.311 458.11>
Fore
287 163 m 0x7e
 287 81 213 -1 161 -1 c 0x7e
 124 -1 111 34 111 67 c 0
 111 75 111 84 113 91 c 2
 152 267 l 2
 171 359 204 434 270 471 c 1
 207 544 l 1
 215 585 l 1
 306 587 317 587 328 587 c 0
 470 587 567 586 598 482 c 0
 602 467 604 450 604 429 c 0
 604 402 600 369 593 332 c 2
 529 34 l 1xbe
 661 34 772 78 809 253 c 2
 880 587 l 1
 930 587 l 1
 862 268 l 2
 812 33 683 -1 522 -1 c 1
 521 -3 l 1
 476 -3 l 1
 543 333 l 2
 548 357 553 385 553 413 c 0
 553 446 546 479 523 504 c 0
 488 544 431 551 375 551 c 0
 326 551 313 546 252 546 c 1
 254 540 283 516 306 487 c 1
 296 442 l 1
 284 434 225 407 203 308 c 2
 180 198 l 1
 197 213 219 225 241 225 c 0
 275 225 287 196 287 163 c 0x7e
165 24 m 0
 191 24 255 101 255 167 c 0
 255 184 251 200 237 200 c 0
 196 200 145 109 145 54 c 0
 145 38 150 24 165 24 c 0
EndSplineSet
EndChar
StartChar: uni0E0E.alt1
Encoding: 63259 63259 367
Width: 657
VWidth: 1467
Flags: W
HStem: -233 28<164.549 264.901> -130 27<156.89 279.229> -1 25<156.924 211.024> 201 24<158.49 212.947> 544 41<290 383.285 383.285 525.448>
VStem: 104 37<35.799 181.064> 114 32<-197.653 -144.191> 375 41<-87.2643 -54> 591 51<372.253 493.109>
Fore
104 102 m 0xfd80
 104 155 136 225 192 225 c 0
 214 225 231 212 241 200 c 1
 301 480 l 1
 243 543 l 1
 252 584 l 1
 357 585 l 2
 510 585 541 580 580 556 c 0
 630 527 642 473 642 424 c 0
 642 389 636 357 632 339 c 2
 507 -248 l 1
 460 -248 l 1
 461 -244 l 1
 451 -222 418 -189 358 -163 c 1
 304 -225 235 -233 210 -233 c 0
 156 -233 114 -211 114 -177 c 0xfb80
 114 -139 167 -103 236 -103 c 0
 272 -103 311 -104 350 -117 c 1
 356 -105 361 -98 375 -54 c 1
 416 -54 l 1
 407 -81 395 -106 382 -129 c 1
 418 -145 449 -165 472 -192 c 1
 581 332 l 2
 588 364 591 393 591 417 c 0
 591 470 567 550 422 550 c 0
 396 550 382 548 290 544 c 1
 293 536 309 529 343 486 c 1
 343 486 263 98 262 94 c 0
 256 67 229 -1 175 -1 c 0
 137 -1 104 44 104 102 c 0xfd80
189 201 m 0
 164 201 141 162 141 113 c 0xfd80
 141 68 160 24 182 24 c 0
 209 24 227 67 227 115 c 0
 227 163 208 201 189 201 c 0
230 -130 m 0
 194 -130 146 -143 146 -173 c 0xfb80
 146 -199 188 -205 212 -205 c 0
 283 -205 325 -153 325 -153 c 1
 326 -152 325 -150 324 -148 c 1
 281 -133 250 -130 230 -130 c 0
EndSplineSet
EndChar
StartChar: uni0E0F.alt1
Encoding: 63260 63260 368
Width: 658
VWidth: 1467
Flags: W
HStem: -233 25<100.652 214.35> -128 25<109.056 231.195> -1 25<150.53 204.808> 199 25<152.292 207.721> 543 41<289 329.687 329.687 363.578 346.633 532.188>
VStem: 67 30<-201.482 -142.105> 100 36<34.1999 180.493> 297 42<-112.439 -56> 590 51<374.615 477.729>
Fore
100 101 m 0
 100 170 142 224 187 224 c 0
 198 224 219 221 235 194 c 1
 296 478 l 1
 243 541 l 1
 252 582 l 1
 341 584 350 584 369 584 c 0
 508 584 603 583 634 480 c 0
 639 465 641 447 641 427 c 0
 641 399 637 367 629 330 c 2
 506 -248 l 1
 460 -248 l 1
 402 -134 l 1
 296 -248 l 1
 287 -226 278 -210 263 -183 c 1
 227 -215 189 -233 146 -233 c 0
 104 -233 67 -213 67 -178 c 0
 67 -129 131 -103 180 -103 c 0
 224 -103 242 -126 261 -138 c 1
 271 -123 281 -106 297 -56 c 1
 339 -56 l 1
 324 -95 307 -131 284 -160 c 1
 289 -166 308 -191 308 -195 c 1
 412 -84 l 1
 472 -195 l 1
 580 332 l 2
 586 363 590 390 590 413 c 0
 590 468 568 549 425 549 c 0
 398 549 370 545 289 543 c 1
 335 484 l 1
 256 110 l 1
 256 74 230 -1 169 -1 c 0
 129 -1 100 45 100 101 c 0
182 199 m 0
 155 199 136 155 136 108 c 0
 136 61 156 24 176 24 c 0
 203 24 221 68 221 117 c 0
 221 165 201 199 182 199 c 0
166 -128 m 0
 140 -128 97 -144 97 -174 c 0
 97 -194 122 -208 147 -208 c 0
 175 -208 218 -191 245 -161 c 1
 245 -161 213 -128 166 -128 c 0
EndSplineSet
EndChar
StartChar: uni0E2C.alt1
Encoding: 63261 63261 369
Width: 765
VWidth: 1467
Flags: W
HStem: 0 21G<185 257.5 562 642.246> 360 25<220.011 256.935 251.537 262.333> 431 41<567.376 646.855> 518 21G<748 762.5> 550 41<556.968 687.943> 562 24<222.623 276.28>
VStem: 168 38<395.279 541.776> 291 36<426.312 551.627> 506 36<482.737 533.13> 801 47<529.616 615>
Fore
506 498 m 0xf7c0
 506 547 568 591 645 591 c 0xfbc0
 711 591 749 554 747 518 c 1
 778 540 791 567 801 615 c 1
 848 615 l 1
 827 528 778 490 738 471 c 1
 638 0 l 1
 597 0 l 1
 527 36 483 158 465 270 c 1
 393 123 288 33 227 0 c 1
 185 0 l 1
 263 365 l 1
 260 364 259 364 257 364 c 0
 256 364 254 360 238 360 c 0
 204 360 168 402 168 463 c 0
 168 525 205 586 256 586 c 0
 297 586 327 545 327 488 c 0
 327 477 326 465 323 452 c 2
 235 38 l 1
 306 98 409 212 480 355 c 1
 497 245 564 77 605 41 c 1
 691 449 l 1
 660 438 642 431 611 431 c 0
 553 431 506 457 506 498 c 0xf7c0
252 562 m 0xf7c0
 224 562 206 517 206 468 c 0
 206 421 225 385 246 385 c 0
 273 385 291 431 291 476 c 0
 291 524 271 562 252 562 c 0xf7c0
636 550 m 256xfbc0
 592 550 542 532 542 506 c 0
 542 479 597 472 619 472 c 0
 649 472 710 486 710 518 c 0
 710 544 658 550 636 550 c 256xfbc0
EndSplineSet
EndChar
StartChar: uni0E4F.liga
Encoding: 63616 63616 370
Width: 664
VWidth: 1467
Flags: W
HStem: -9 50<248.168 425.77> 92 53<299.066 420.096> 333 51<331.434 449.475> 436 51<324.585 500.906> 596 21G<363 414.577 495 546.577>
VStem: 121 53<115.652 287.141> 227 52<165.228 280.829> 363 46<602.382 628.593> 471 52<196.348 312.389> 495 46<602.382 628.593> 577 51<190.787 362.632>
Fore
395 333 m 256xffa0
 332 333 279 276 279 218 c 0
 279 175 311 145 355 145 c 256
 421 145 471 204 471 258 c 0
 471 299 443 333 395 333 c 256xffa0
227 208 m 0
 227 303 316 384 406 384 c 256
 478 384 523 335 523 270 c 0
 523 180 438 92 344 92 c 256
 274 92 227 143 227 208 c 0
417 436 m 0
 283 436 174 313 174 196 c 0
 174 106 240 41 333 41 c 0
 455 41 577 153 577 282 c 0
 577 373 510 436 417 436 c 0
628 290 m 0
 628 136 482 -9 322 -9 c 256
 199 -9 121 75 121 186 c 0
 121 344 269 487 428 487 c 0
 546 487 628 403 628 290 c 0
541 596 m 1xff60
 495 596 l 1
 524 803 l 1
 599 804 l 1
 541 596 l 1xff60
409 596 m 1
 363 596 l 1
 392 803 l 1
 467 804 l 1
 409 596 l 1
EndSplineSet
LCarets2: 1 0 
Ligature2: "'liga' Standard Ligatures in Latin lookup 19 subtable" uni0E4F quotedbl
EndChar
